# Blender 4.3.2
# www.blender.org
mtllib door_right_out.mtl
o cube
v -1.396292 1.064972 -0.125000
v -1.396292 1.064972 -0.687500
v -1.333851 1.062246 -0.125000
v -1.333851 1.062246 -0.687500
v -1.401744 0.940091 -0.687500
v -1.401744 0.940091 -0.125000
v -1.339304 0.937365 -0.687500
v -1.339304 0.937365 -0.125000
vn -0.0000 -0.0000 -1.0000
vn 0.0436 0.9990 -0.0000
vn -0.0000 -0.0000 1.0000
vn -0.0436 -0.9990 -0.0000
vn -0.9990 0.0436 -0.0000
vn 0.9990 -0.0436 -0.0000
vt 0.934028 0.952546
vt 0.936343 0.952546
vt 0.936343 0.953704
vt 0.934028 0.953704
vt 0.923611 0.952546
vt 0.923611 0.953704
vt 0.946759 0.952546
vt 0.949074 0.952546
vt 0.949074 0.953704
vt 0.946759 0.953704
vt 0.936343 0.964120
vt 0.934028 0.964120
vt 0.938657 0.953704
vt 0.938657 0.964120
s 1
usemtl m_cd254a77-ce7e-4613-06af-7ec7a8a6d443
f 4/1/1 7/2/1 5/3/1 2/4/1
f 3/5/2 4/1/2 2/4/2 1/6/2
f 8/7/3 3/8/3 1/9/3 6/10/3
f 7/2/4 8/7/4 6/10/4 5/3/4
f 6/11/5 1/12/5 2/4/5 5/3/5
f 7/13/6 4/3/6 3/11/6 8/14/6
o cube.001
v -1.401744 0.940091 -0.000000
v -1.401744 0.940091 -0.875000
v -1.339244 0.940091 -0.000000
v -1.339244 0.940091 -0.875000
v -1.401744 0.690091 -0.875000
v -1.401744 0.690091 -0.000000
v -1.339244 0.690091 -0.875000
v -1.339244 0.690091 -0.000000
vn -0.0000 -0.0000 -1.0000
vn -0.0000 1.0000 -0.0000
vn -0.0000 -0.0000 1.0000
vn -0.0000 -1.0000 -0.0000
vn -1.0000 -0.0000 -0.0000
vn 1.0000 -0.0000 -0.0000
vt 0.777778 0.975694
vt 0.782407 0.975694
vt 0.782407 0.976852
vt 0.777778 0.976852
vt 0.761574 0.975694
vt 0.761574 0.976852
vt 0.798611 0.975694
vt 0.803241 0.975694
vt 0.803241 0.976852
vt 0.798611 0.976852
vt 0.782407 0.993056
vt 0.777778 0.993056
vt 0.787037 0.976852
vt 0.787037 0.993056
s 1
usemtl m_cd254a77-ce7e-4613-06af-7ec7a8a6d443
f 12/15/7 15/16/7 13/17/7 10/18/7
f 11/19/8 12/15/8 10/18/8 9/20/8
f 16/21/9 11/22/9 9/23/9 14/24/9
f 15/16/10 16/21/10 14/24/10 13/17/10
f 14/25/11 9/26/11 10/18/11 13/17/11
f 15/27/12 12/17/12 11/25/12 16/28/12
o cube.002
v -1.401744 0.690091 -0.000000
v -1.401744 0.690091 -0.875000
v -1.339482 0.695538 -0.000000
v -1.339482 0.695538 -0.875000
v -1.379955 0.441042 -0.875000
v -1.379955 0.441042 -0.000000
v -1.317693 0.446489 -0.875000
v -1.317693 0.446489 -0.000000
vn -0.0000 -0.0000 -1.0000
vn -0.0872 0.9962 -0.0000
vn -0.0000 -0.0000 1.0000
vn 0.0872 -0.9962 -0.0000
vn -0.9962 -0.0872 -0.0000
vn 0.9962 0.0872 -0.0000
vt 0.777778 0.958333
vt 0.782407 0.958333
vt 0.782407 0.959491
vt 0.777778 0.959491
vt 0.761574 0.958333
vt 0.761574 0.959491
vt 0.798611 0.958333
vt 0.803241 0.958333
vt 0.803241 0.959491
vt 0.798611 0.959491
vt 0.782407 0.975694
vt 0.777778 0.975694
vt 0.787037 0.959491
vt 0.787037 0.975694
s 1
usemtl m_cd254a77-ce7e-4613-06af-7ec7a8a6d443
f 20/29/13 23/30/13 21/31/13 18/32/13
f 19/33/14 20/29/14 18/32/14 17/34/14
f 24/35/15 19/36/15 17/37/15 22/38/15
f 23/30/16 24/35/16 22/38/16 21/31/16
f 22/39/17 17/40/17 18/32/17 21/31/17
f 23/41/18 20/31/18 19/39/18 24/42/18
o cube.003
v -1.379955 0.441042 -0.000000
v -1.379955 0.441042 -0.875000
v -1.318502 0.452432 -0.000000
v -1.318502 0.452432 -0.875000
v -1.334396 0.195229 -0.875000
v -1.334396 0.195229 -0.000000
v -1.272943 0.206618 -0.875000
v -1.272943 0.206618 -0.000000
vn -0.0000 -0.0000 -1.0000
vn -0.1822 0.9833 -0.0000
vn -0.0000 -0.0000 1.0000
vn 0.1822 -0.9833 -0.0000
vn -0.9833 -0.1822 -0.0000
vn 0.9833 0.1822 -0.0000
vt 0.777778 0.940972
vt 0.782407 0.940972
vt 0.782407 0.942130
vt 0.777778 0.942130
vt 0.761574 0.940972
vt 0.761574 0.942130
vt 0.798611 0.940972
vt 0.803241 0.940972
vt 0.803241 0.942130
vt 0.798611 0.942130
vt 0.782407 0.958333
vt 0.777778 0.958333
vt 0.787037 0.942130
vt 0.787037 0.958333
s 1
usemtl m_cd254a77-ce7e-4613-06af-7ec7a8a6d443
f 28/43/19 31/44/19 29/45/19 26/46/19
f 27/47/20 28/43/20 26/46/20 25/48/20
f 32/49/21 27/50/21 25/51/21 30/52/21
f 31/44/22 32/49/22 30/52/22 29/45/22
f 30/53/23 25/54/23 26/46/23 29/45/23
f 31/55/24 28/45/24 27/53/24 32/56/24
o cube.004
v -1.334396 0.195229 -0.000000
v -1.334396 0.195228 -0.875000
v -1.276865 0.219649 -0.000000
v -1.276865 0.219649 -0.875000
v -1.212293 -0.092429 -0.875000
v -1.212293 -0.092429 0.000000
v -1.154761 -0.068009 -0.875000
v -1.154761 -0.068009 0.000000
vn -0.0000 -0.0000 -1.0000
vn -0.3907 0.9205 -0.0000
vn -0.0000 -0.0000 1.0000
vn 0.3907 -0.9205 -0.0000
vn -0.9205 -0.3907 -0.0000
vn 0.9205 0.3907 -0.0000
vt 0.776620 0.923611
vt 0.782407 0.923611
vt 0.782407 0.924769
vt 0.776620 0.924769
vt 0.760417 0.923611
vt 0.760417 0.924769
vt 0.798611 0.923611
vt 0.804398 0.923611
vt 0.804398 0.924769
vt 0.798611 0.924769
vt 0.782407 0.940972
vt 0.776620 0.940972
vt 0.788194 0.924769
vt 0.788194 0.940972
s 1
usemtl m_cd254a77-ce7e-4613-06af-7ec7a8a6d443
f 36/57/25 39/58/25 37/59/25 34/60/25
f 35/61/26 36/57/26 34/60/26 33/62/26
f 40/63/27 35/64/27 33/65/27 38/66/27
f 39/58/28 40/63/28 38/66/28 37/59/28
f 38/67/29 33/68/29 34/60/29 37/59/29
f 39/69/30 36/59/30 35/67/30 40/70/30
o cube.005
v -1.349946 2.126461 -0.687500
v -1.349946 2.126461 -0.875000
v -1.287506 2.123735 -0.687500
v -1.287506 2.123735 -0.875000
v -1.401744 0.940091 -0.875000
v -1.401744 0.940091 -0.687500
v -1.339304 0.937365 -0.875000
v -1.339304 0.937365 -0.687500
vn -0.0000 -0.0000 -1.0000
vn 0.0436 0.9990 -0.0000
vn -0.0000 -0.0000 1.0000
vn -0.0436 -0.9990 -0.0000
vn -0.9990 0.0436 -0.0000
vn 0.9990 -0.0436 -0.0000
vt 0.942130 0.753472
vt 0.964120 0.753472
vt 0.964120 0.754630
vt 0.942130 0.754630
vt 0.938657 0.753472
vt 0.938657 0.754630
vt 0.967593 0.753472
vt 0.989583 0.753472
vt 0.989583 0.754630
vt 0.967593 0.754630
vt 0.964120 0.758102
vt 0.942130 0.758102
vt 0.986111 0.754630
vt 0.986111 0.758102
s 1
usemtl m_cd254a77-ce7e-4613-06af-7ec7a8a6d443
f 44/71/31 47/72/31 45/73/31 42/74/31
f 43/75/32 44/71/32 42/74/32 41/76/32
f 48/77/33 43/78/33 41/79/33 46/80/33
f 47/72/34 48/77/34 46/80/34 45/73/34
f 46/81/35 41/82/35 42/74/35 45/73/35
f 47/83/36 44/73/36 43/81/36 48/84/36
o cube.006
v -1.349946 2.126461 -0.000000
v -1.349946 2.126461 -0.187500
v -1.287506 2.123735 -0.000000
v -1.287506 2.123735 -0.187500
v -1.401744 0.940091 -0.187500
v -1.401744 0.940091 -0.000000
v -1.339304 0.937365 -0.187500
v -1.339304 0.937365 -0.000000
vn -0.0000 -0.0000 -1.0000
vn 0.0436 0.9990 -0.0000
vn -0.0000 -0.0000 1.0000
vn -0.0436 -0.9990 -0.0000
vn -0.9990 0.0436 -0.0000
vn 0.9990 -0.0436 -0.0000
vt 0.943287 0.765046
vt 0.965278 0.765046
vt 0.965278 0.766204
vt 0.943287 0.766204
vt 0.939815 0.765046
vt 0.939815 0.766204
vt 0.968750 0.765046
vt 0.990741 0.765046
vt 0.990741 0.766204
vt 0.968750 0.766204
vt 0.965278 0.769676
vt 0.943287 0.769676
vt 0.987269 0.766204
vt 0.987269 0.769676
s 1
usemtl m_cd254a77-ce7e-4613-06af-7ec7a8a6d443
f 52/85/37 55/86/37 53/87/37 50/88/37
f 51/89/38 52/85/38 50/88/38 49/90/38
f 56/91/39 51/92/39 49/93/39 54/94/39
f 55/86/40 56/91/40 54/94/40 53/87/40
f 54/95/41 49/96/41 50/88/41 53/87/41
f 55/97/42 52/87/42 51/95/42 56/98/42
o cube.007
v -1.349816 2.127413 -0.125000
v -1.349816 2.127413 -0.687500
v -1.287375 2.124686 -0.125000
v -1.287375 2.124686 -0.687500
v -1.357994 1.940091 -0.687500
v -1.357994 1.940091 -0.125000
v -1.295554 1.937365 -0.687500
v -1.295554 1.937365 -0.125000
vn -0.0000 -0.0000 -1.0000
vn 0.0436 0.9990 -0.0000
vn -0.0000 -0.0000 1.0000
vn -0.0436 -0.9990 -0.0000
vn -0.9990 0.0436 -0.0000
vn 0.9990 -0.0436 -0.0000
vt 0.932870 0.952546
vt 0.936343 0.952546
vt 0.936343 0.953704
vt 0.932870 0.953704
vt 0.922454 0.952546
vt 0.922454 0.953704
vt 0.946759 0.952546
vt 0.950231 0.952546
vt 0.950231 0.953704
vt 0.946759 0.953704
vt 0.936343 0.964120
vt 0.932870 0.964120
vt 0.939815 0.953704
vt 0.939815 0.964120
s 1
usemtl m_cd254a77-ce7e-4613-06af-7ec7a8a6d443
f 60/99/43 63/100/43 61/101/43 58/102/43
f 59/103/44 60/99/44 58/102/44 57/104/44
f 64/105/45 59/106/45 57/107/45 62/108/45
f 63/100/46 64/105/46 62/108/46 61/101/46
f 62/109/47 57/110/47 58/102/47 61/101/47
f 63/111/48 60/101/48 59/109/48 64/112/48
o cube.008
v -1.355336 2.001577 -0.187500
v -1.355336 2.001577 -0.687500
v -1.355336 2.001577 -0.187500
v -1.355336 2.001577 -0.687500
v -1.396229 1.064969 -0.687500
v -1.396229 1.064969 -0.187500
v -1.396229 1.064969 -0.687500
v -1.396229 1.064969 -0.187500
vn -0.0000 -0.0000 -1.0000
vn -0.0000 -0.0000 -0.0000
vn -0.0000 -0.0000 1.0000
vn -0.9990 0.0436 -0.0000
vn 0.9990 -0.0436 -0.0000
vt 0.938657 0.844907
vt 0.956019 0.844907
vt 0.929398 0.844907
vt 0.965278 0.844907
vt 0.982639 0.844907
vt 0.956019 0.854167
vt 0.938657 0.854167
vt 0.973380 0.844907
vt 0.973380 0.854167
s 0
usemtl m_cd254a77-ce7e-4613-06af-7ec7a8a6d443
f 68/113/49 71/114/49 69/114/49 66/113/49
f 67/115/50 68/113/50 66/113/50 65/115/50
f 72/116/51 67/117/51 65/117/51 70/116/51
f 71/114/50 72/116/50 70/116/50 69/114/50
s 1
f 70/118/52 65/119/52 66/113/52 69/114/52
f 71/120/53 68/114/53 67/118/53 72/121/53
o cube.009
v -1.401744 0.940091 -5.000000
v -1.401744 0.940091 -5.875000
v -1.339244 0.940091 -5.000000
v -1.339244 0.940091 -5.875000
v -1.401744 0.690091 -5.875000
v -1.401744 0.690091 -5.000000
v -1.339244 0.690091 -5.875000
v -1.339244 0.690091 -5.000000
vn -0.0000 -0.0000 -1.0000
vn -0.0000 1.0000 -0.0000
vn -0.0000 -0.0000 1.0000
vn -0.0000 -1.0000 -0.0000
vn -1.0000 -0.0000 -0.0000
vn 1.0000 -0.0000 -0.0000
vt 0.777778 0.975694
vt 0.782407 0.975694
vt 0.782407 0.976852
vt 0.777778 0.976852
vt 0.761574 0.975694
vt 0.761574 0.976852
vt 0.798611 0.975694
vt 0.803241 0.975694
vt 0.803241 0.976852
vt 0.798611 0.976852
vt 0.782407 0.993056
vt 0.777778 0.993056
vt 0.787037 0.976852
vt 0.787037 0.993056
s 1
usemtl m_cd254a77-ce7e-4613-06af-7ec7a8a6d443
f 76/122/54 79/123/54 77/124/54 74/125/54
f 75/126/55 76/122/55 74/125/55 73/127/55
f 80/128/56 75/129/56 73/130/56 78/131/56
f 79/123/57 80/128/57 78/131/57 77/124/57
f 78/132/58 73/133/58 74/125/58 77/124/58
f 79/134/59 76/124/59 75/132/59 80/135/59
o cube.010
v -1.401744 0.690091 -5.000000
v -1.401744 0.690091 -5.875000
v -1.339482 0.695538 -5.000000
v -1.339482 0.695538 -5.875000
v -1.379955 0.441042 -5.875000
v -1.379955 0.441042 -5.000000
v -1.317693 0.446489 -5.875000
v -1.317693 0.446489 -5.000000
vn -0.0000 -0.0000 -1.0000
vn -0.0872 0.9962 -0.0000
vn -0.0000 -0.0000 1.0000
vn 0.0872 -0.9962 -0.0000
vn -0.9962 -0.0872 -0.0000
vn 0.9962 0.0872 -0.0000
vt 0.777778 0.958333
vt 0.782407 0.958333
vt 0.782407 0.959491
vt 0.777778 0.959491
vt 0.761574 0.958333
vt 0.761574 0.959491
vt 0.798611 0.958333
vt 0.803241 0.958333
vt 0.803241 0.959491
vt 0.798611 0.959491
vt 0.782407 0.975694
vt 0.777778 0.975694
vt 0.787037 0.959491
vt 0.787037 0.975694
s 1
usemtl m_cd254a77-ce7e-4613-06af-7ec7a8a6d443
f 84/136/60 87/137/60 85/138/60 82/139/60
f 83/140/61 84/136/61 82/139/61 81/141/61
f 88/142/62 83/143/62 81/144/62 86/145/62
f 87/137/63 88/142/63 86/145/63 85/138/63
f 86/146/64 81/147/64 82/139/64 85/138/64
f 87/148/65 84/138/65 83/146/65 88/149/65
o cube.011
v -1.379955 0.441042 -5.000000
v -1.379955 0.441042 -5.875000
v -1.318502 0.452432 -5.000000
v -1.318502 0.452432 -5.875000
v -1.334396 0.195228 -5.875000
v -1.334396 0.195228 -5.000000
v -1.272943 0.206618 -5.875000
v -1.272943 0.206618 -5.000000
vn -0.0000 -0.0000 -1.0000
vn -0.1822 0.9833 -0.0000
vn -0.0000 -0.0000 1.0000
vn 0.1822 -0.9833 -0.0000
vn -0.9833 -0.1822 -0.0000
vn 0.9833 0.1822 -0.0000
vt 0.777778 0.940972
vt 0.782407 0.940972
vt 0.782407 0.942130
vt 0.777778 0.942130
vt 0.761574 0.940972
vt 0.761574 0.942130
vt 0.798611 0.940972
vt 0.803241 0.940972
vt 0.803241 0.942130
vt 0.798611 0.942130
vt 0.782407 0.958333
vt 0.777778 0.958333
vt 0.787037 0.942130
vt 0.787037 0.958333
s 1
usemtl m_cd254a77-ce7e-4613-06af-7ec7a8a6d443
f 92/150/66 95/151/66 93/152/66 90/153/66
f 91/154/67 92/150/67 90/153/67 89/155/67
f 96/156/68 91/157/68 89/158/68 94/159/68
f 95/151/69 96/156/69 94/159/69 93/152/69
f 94/160/70 89/161/70 90/153/70 93/152/70
f 95/162/71 92/152/71 91/160/71 96/163/71
o cube.012
v -1.334396 0.195228 -5.000000
v -1.334396 0.195228 -5.875000
v -1.276865 0.219649 -5.000000
v -1.276865 0.219649 -5.875000
v -1.212293 -0.092430 -5.875000
v -1.212293 -0.092430 -5.000000
v -1.154761 -0.068009 -5.875000
v -1.154761 -0.068009 -5.000000
vn -0.0000 -0.0000 -1.0000
vn -0.3907 0.9205 -0.0000
vn -0.0000 -0.0000 1.0000
vn 0.3907 -0.9205 -0.0000
vn -0.9205 -0.3907 -0.0000
vn 0.9205 0.3907 -0.0000
vt 0.776620 0.923611
vt 0.782407 0.923611
vt 0.782407 0.924769
vt 0.776620 0.924769
vt 0.760417 0.923611
vt 0.760417 0.924769
vt 0.798611 0.923611
vt 0.804398 0.923611
vt 0.804398 0.924769
vt 0.798611 0.924769
vt 0.782407 0.940972
vt 0.776620 0.940972
vt 0.788194 0.924769
vt 0.788194 0.940972
s 1
usemtl m_cd254a77-ce7e-4613-06af-7ec7a8a6d443
f 100/164/72 103/165/72 101/166/72 98/167/72
f 99/168/73 100/164/73 98/167/73 97/169/73
f 104/170/74 99/171/74 97/172/74 102/173/74
f 103/165/75 104/170/75 102/173/75 101/166/75
f 102/174/76 97/175/76 98/167/76 101/166/76
f 103/176/77 100/166/77 99/174/77 104/177/77
o cube.013
v -1.349946 2.126460 -5.687500
v -1.349946 2.126460 -5.875000
v -1.287506 2.123734 -5.687500
v -1.287506 2.123734 -5.875000
v -1.401744 0.940091 -5.875000
v -1.401744 0.940091 -5.687500
v -1.339304 0.937365 -5.875000
v -1.339304 0.937365 -5.687500
vn -0.0000 -0.0000 -1.0000
vn 0.0436 0.9990 -0.0000
vn -0.0000 -0.0000 1.0000
vn -0.0436 -0.9990 -0.0000
vn -0.9990 0.0436 -0.0000
vn 0.9990 -0.0436 -0.0000
vt 0.942130 0.753472
vt 0.964120 0.753472
vt 0.964120 0.754630
vt 0.942130 0.754630
vt 0.938657 0.753472
vt 0.938657 0.754630
vt 0.967593 0.753472
vt 0.989583 0.753472
vt 0.989583 0.754630
vt 0.967593 0.754630
vt 0.964120 0.758102
vt 0.942130 0.758102
vt 0.986111 0.754630
vt 0.986111 0.758102
s 1
usemtl m_cd254a77-ce7e-4613-06af-7ec7a8a6d443
f 108/178/78 111/179/78 109/180/78 106/181/78
f 107/182/79 108/178/79 106/181/79 105/183/79
f 112/184/80 107/185/80 105/186/80 110/187/80
f 111/179/81 112/184/81 110/187/81 109/180/81
f 110/188/82 105/189/82 106/181/82 109/180/82
f 111/190/83 108/180/83 107/188/83 112/191/83
o cube.014
v -1.396292 1.064972 -5.125000
v -1.396292 1.064972 -5.687500
v -1.333851 1.062246 -5.125000
v -1.333851 1.062245 -5.687500
v -1.401744 0.940091 -5.687500
v -1.401744 0.940091 -5.125000
v -1.339304 0.937365 -5.687500
v -1.339304 0.937365 -5.125000
vn -0.0000 -0.0000 -1.0000
vn 0.0436 0.9990 -0.0000
vn -0.0000 -0.0000 1.0000
vn -0.0436 -0.9990 -0.0000
vn -0.9990 0.0436 -0.0000
vn 0.9990 -0.0436 -0.0000
vt 0.934028 0.952546
vt 0.936343 0.952546
vt 0.936343 0.953704
vt 0.934028 0.953704
vt 0.923611 0.952546
vt 0.923611 0.953704
vt 0.946759 0.952546
vt 0.949074 0.952546
vt 0.949074 0.953704
vt 0.946759 0.953704
vt 0.936343 0.964120
vt 0.934028 0.964120
vt 0.938657 0.953704
vt 0.938657 0.964120
s 1
usemtl m_cd254a77-ce7e-4613-06af-7ec7a8a6d443
f 116/192/84 119/193/84 117/194/84 114/195/84
f 115/196/85 116/192/85 114/195/85 113/197/85
f 120/198/86 115/199/86 113/200/86 118/201/86
f 119/193/87 120/198/87 118/201/87 117/194/87
f 118/202/88 113/203/88 114/195/88 117/194/88
f 119/204/89 116/194/89 115/202/89 120/205/89
o cube.015
v -1.349946 2.126460 -5.000000
v -1.349946 2.126460 -5.187500
v -1.287506 2.123734 -5.000000
v -1.287506 2.123734 -5.187500
v -1.401744 0.940091 -5.187500
v -1.401744 0.940091 -5.000000
v -1.339304 0.937365 -5.187500
v -1.339304 0.937365 -5.000000
vn -0.0000 -0.0000 -1.0000
vn 0.0436 0.9990 -0.0000
vn -0.0000 -0.0000 1.0000
vn -0.0436 -0.9990 -0.0000
vn -0.9990 0.0436 -0.0000
vn 0.9990 -0.0436 -0.0000
vt 0.943287 0.765046
vt 0.965278 0.765046
vt 0.965278 0.766204
vt 0.943287 0.766204
vt 0.939815 0.765046
vt 0.939815 0.766204
vt 0.968750 0.765046
vt 0.990741 0.765046
vt 0.990741 0.766204
vt 0.968750 0.766204
vt 0.965278 0.769676
vt 0.943287 0.769676
vt 0.987269 0.766204
vt 0.987269 0.769676
s 1
usemtl m_cd254a77-ce7e-4613-06af-7ec7a8a6d443
f 124/206/90 127/207/90 125/208/90 122/209/90
f 123/210/91 124/206/91 122/209/91 121/211/91
f 128/212/92 123/213/92 121/214/92 126/215/92
f 127/207/93 128/212/93 126/215/93 125/208/93
f 126/216/94 121/217/94 122/209/94 125/208/94
f 127/218/95 124/208/95 123/216/95 128/219/95
o cube.016
v -1.349816 2.127412 -5.125000
v -1.349816 2.127412 -5.687500
v -1.287375 2.124686 -5.125000
v -1.287375 2.124686 -5.687500
v -1.357994 1.940091 -5.687500
v -1.357994 1.940091 -5.125000
v -1.295554 1.937364 -5.687500
v -1.295554 1.937365 -5.125000
vn -0.0000 -0.0000 -1.0000
vn 0.0436 0.9990 -0.0000
vn -0.0000 -0.0000 1.0000
vn -0.0436 -0.9990 -0.0000
vn -0.9990 0.0436 -0.0000
vn 0.9990 -0.0436 -0.0000
vt 0.932870 0.952546
vt 0.936343 0.952546
vt 0.936343 0.953704
vt 0.932870 0.953704
vt 0.922454 0.952546
vt 0.922454 0.953704
vt 0.946759 0.952546
vt 0.950231 0.952546
vt 0.950231 0.953704
vt 0.946759 0.953704
vt 0.936343 0.964120
vt 0.932870 0.964120
vt 0.939815 0.953704
vt 0.939815 0.964120
s 1
usemtl m_cd254a77-ce7e-4613-06af-7ec7a8a6d443
f 132/220/96 135/221/96 133/222/96 130/223/96
f 131/224/97 132/220/97 130/223/97 129/225/97
f 136/226/98 131/227/98 129/228/98 134/229/98
f 135/221/99 136/226/99 134/229/99 133/222/99
f 134/230/100 129/231/100 130/223/100 133/222/100
f 135/232/101 132/222/101 131/230/101 136/233/101
o cube.017
v -1.355336 2.001577 -5.187500
v -1.355336 2.001577 -5.687500
v -1.355336 2.001577 -5.187500
v -1.355336 2.001577 -5.687500
v -1.396229 1.064969 -5.687500
v -1.396229 1.064969 -5.187500
v -1.396229 1.064969 -5.687500
v -1.396229 1.064969 -5.187500
vn -0.0000 -0.0000 -1.0000
vn -0.0000 -0.0000 -0.0000
vn -0.0000 -0.0000 1.0000
vn -0.9990 0.0436 -0.0000
vn 0.9990 -0.0436 -0.0000
vt 0.938657 0.844907
vt 0.956019 0.844907
vt 0.929398 0.844907
vt 0.965278 0.844907
vt 0.982639 0.844907
vt 0.956019 0.854167
vt 0.938657 0.854167
vt 0.973380 0.844907
vt 0.973380 0.854167
s 0
usemtl m_cd254a77-ce7e-4613-06af-7ec7a8a6d443
f 140/234/102 143/235/102 141/235/102 138/234/102
f 139/236/103 140/234/103 138/234/103 137/236/103
f 144/237/104 139/238/104 137/238/104 142/237/104
f 143/235/103 144/237/103 142/237/103 141/235/103
s 1
f 142/239/105 137/240/105 138/234/105 141/235/105
f 143/241/106 140/235/106 139/239/106 144/242/106
o cube.018
v -1.401744 0.940090 -10.000000
v -1.401744 0.940090 -10.875000
v -1.339244 0.940090 -10.000000
v -1.339244 0.940090 -10.875000
v -1.401744 0.690090 -10.875000
v -1.401744 0.690090 -10.000000
v -1.339244 0.690090 -10.875000
v -1.339244 0.690090 -10.000000
vn -0.0000 -0.0000 -1.0000
vn -0.0000 1.0000 -0.0000
vn -0.0000 -0.0000 1.0000
vn -0.0000 -1.0000 -0.0000
vn -1.0000 -0.0000 -0.0000
vn 1.0000 -0.0000 -0.0000
vt 0.777778 0.975694
vt 0.782407 0.975694
vt 0.782407 0.976852
vt 0.777778 0.976852
vt 0.761574 0.975694
vt 0.761574 0.976852
vt 0.798611 0.975694
vt 0.803241 0.975694
vt 0.803241 0.976852
vt 0.798611 0.976852
vt 0.782407 0.993056
vt 0.777778 0.993056
vt 0.787037 0.976852
vt 0.787037 0.993056
s 1
usemtl m_cd254a77-ce7e-4613-06af-7ec7a8a6d443
f 148/243/107 151/244/107 149/245/107 146/246/107
f 147/247/108 148/243/108 146/246/108 145/248/108
f 152/249/109 147/250/109 145/251/109 150/252/109
f 151/244/110 152/249/110 150/252/110 149/245/110
f 150/253/111 145/254/111 146/246/111 149/245/111
f 151/255/112 148/245/112 147/253/112 152/256/112
o cube.019
v -1.401744 0.690090 -10.000000
v -1.401744 0.690090 -10.875000
v -1.339482 0.695537 -10.000000
v -1.339482 0.695537 -10.875000
v -1.379955 0.441041 -10.875000
v -1.379955 0.441041 -10.000000
v -1.317693 0.446489 -10.875000
v -1.317693 0.446489 -10.000000
vn -0.0000 -0.0000 -1.0000
vn -0.0872 0.9962 -0.0000
vn -0.0000 -0.0000 1.0000
vn 0.0872 -0.9962 -0.0000
vn -0.9962 -0.0872 -0.0000
vn 0.9962 0.0872 -0.0000
vt 0.777778 0.958333
vt 0.782407 0.958333
vt 0.782407 0.959491
vt 0.777778 0.959491
vt 0.761574 0.958333
vt 0.761574 0.959491
vt 0.798611 0.958333
vt 0.803241 0.958333
vt 0.803241 0.959491
vt 0.798611 0.959491
vt 0.782407 0.975694
vt 0.777778 0.975694
vt 0.787037 0.959491
vt 0.787037 0.975694
s 1
usemtl m_cd254a77-ce7e-4613-06af-7ec7a8a6d443
f 156/257/113 159/258/113 157/259/113 154/260/113
f 155/261/114 156/257/114 154/260/114 153/262/114
f 160/263/115 155/264/115 153/265/115 158/266/115
f 159/258/116 160/263/116 158/266/116 157/259/116
f 158/267/117 153/268/117 154/260/117 157/259/117
f 159/269/118 156/259/118 155/267/118 160/270/118
o cube.020
v -1.379955 0.441042 -10.000000
v -1.379955 0.441042 -10.875000
v -1.318502 0.452431 -10.000000
v -1.318502 0.452431 -10.875000
v -1.334396 0.195228 -10.875000
v -1.334396 0.195228 -10.000000
v -1.272943 0.206618 -10.875000
v -1.272943 0.206618 -10.000000
vn -0.0000 -0.0000 -1.0000
vn -0.1822 0.9833 -0.0000
vn -0.0000 -0.0000 1.0000
vn 0.1822 -0.9833 -0.0000
vn -0.9833 -0.1822 -0.0000
vn 0.9833 0.1822 -0.0000
vt 0.777778 0.940972
vt 0.782407 0.940972
vt 0.782407 0.942130
vt 0.777778 0.942130
vt 0.761574 0.940972
vt 0.761574 0.942130
vt 0.798611 0.940972
vt 0.803241 0.940972
vt 0.803241 0.942130
vt 0.798611 0.942130
vt 0.782407 0.958333
vt 0.777778 0.958333
vt 0.787037 0.942130
vt 0.787037 0.958333
s 1
usemtl m_cd254a77-ce7e-4613-06af-7ec7a8a6d443
f 164/271/119 167/272/119 165/273/119 162/274/119
f 163/275/120 164/271/120 162/274/120 161/276/120
f 168/277/121 163/278/121 161/279/121 166/280/121
f 167/272/122 168/277/122 166/280/122 165/273/122
f 166/281/123 161/282/123 162/274/123 165/273/123
f 167/283/124 164/273/124 163/281/124 168/284/124
o cube.021
v -1.334396 0.195228 -10.000000
v -1.334396 0.195228 -10.875000
v -1.276865 0.219648 -10.000000
v -1.276865 0.219648 -10.875000
v -1.212293 -0.092430 -10.875000
v -1.212293 -0.092430 -10.000000
v -1.154761 -0.068009 -10.875000
v -1.154761 -0.068009 -10.000000
vn -0.0000 -0.0000 -1.0000
vn -0.3907 0.9205 -0.0000
vn -0.0000 -0.0000 1.0000
vn 0.3907 -0.9205 -0.0000
vn -0.9205 -0.3907 -0.0000
vn 0.9205 0.3907 -0.0000
vt 0.776620 0.923611
vt 0.782407 0.923611
vt 0.782407 0.924769
vt 0.776620 0.924769
vt 0.760417 0.923611
vt 0.760417 0.924769
vt 0.798611 0.923611
vt 0.804398 0.923611
vt 0.804398 0.924769
vt 0.798611 0.924769
vt 0.782407 0.940972
vt 0.776620 0.940972
vt 0.788194 0.924769
vt 0.788194 0.940972
s 1
usemtl m_cd254a77-ce7e-4613-06af-7ec7a8a6d443
f 172/285/125 175/286/125 173/287/125 170/288/125
f 171/289/126 172/285/126 170/288/126 169/290/126
f 176/291/127 171/292/127 169/293/127 174/294/127
f 175/286/128 176/291/128 174/294/128 173/287/128
f 174/295/129 169/296/129 170/288/129 173/287/129
f 175/297/130 172/287/130 171/295/130 176/298/130
o cube.022
v -1.349946 2.126460 -10.687500
v -1.349946 2.126460 -10.875000
v -1.287506 2.123734 -10.687500
v -1.287506 2.123734 -10.875000
v -1.401744 0.940090 -10.875000
v -1.401744 0.940090 -10.687500
v -1.339304 0.937364 -10.875000
v -1.339304 0.937364 -10.687500
vn -0.0000 -0.0000 -1.0000
vn 0.0436 0.9990 -0.0000
vn -0.0000 -0.0000 1.0000
vn -0.0436 -0.9990 -0.0000
vn -0.9990 0.0436 -0.0000
vn 0.9990 -0.0436 -0.0000
vt 0.942130 0.753472
vt 0.964120 0.753472
vt 0.964120 0.754630
vt 0.942130 0.754630
vt 0.938657 0.753472
vt 0.938657 0.754630
vt 0.967593 0.753472
vt 0.989583 0.753472
vt 0.989583 0.754630
vt 0.967593 0.754630
vt 0.964120 0.758102
vt 0.942130 0.758102
vt 0.986111 0.754630
vt 0.986111 0.758102
s 1
usemtl m_cd254a77-ce7e-4613-06af-7ec7a8a6d443
f 180/299/131 183/300/131 181/301/131 178/302/131
f 179/303/132 180/299/132 178/302/132 177/304/132
f 184/305/133 179/306/133 177/307/133 182/308/133
f 183/300/134 184/305/134 182/308/134 181/301/134
f 182/309/135 177/310/135 178/302/135 181/301/135
f 183/311/136 180/301/136 179/309/136 184/312/136
o cube.023
v -1.396292 1.064971 -10.125000
v -1.396292 1.064971 -10.687500
v -1.333851 1.062245 -10.125000
v -1.333851 1.062245 -10.687500
v -1.401744 0.940090 -10.687500
v -1.401744 0.940090 -10.125000
v -1.339304 0.937364 -10.687500
v -1.339304 0.937364 -10.125000
vn -0.0000 -0.0000 -1.0000
vn 0.0436 0.9990 -0.0000
vn -0.0000 -0.0000 1.0000
vn -0.0436 -0.9990 -0.0000
vn -0.9990 0.0436 -0.0000
vn 0.9990 -0.0436 -0.0000
vt 0.934028 0.952546
vt 0.936343 0.952546
vt 0.936343 0.953704
vt 0.934028 0.953704
vt 0.923611 0.952546
vt 0.923611 0.953704
vt 0.946759 0.952546
vt 0.949074 0.952546
vt 0.949074 0.953704
vt 0.946759 0.953704
vt 0.936343 0.964120
vt 0.934028 0.964120
vt 0.938657 0.953704
vt 0.938657 0.964120
s 1
usemtl m_cd254a77-ce7e-4613-06af-7ec7a8a6d443
f 188/313/137 191/314/137 189/315/137 186/316/137
f 187/317/138 188/313/138 186/316/138 185/318/138
f 192/319/139 187/320/139 185/321/139 190/322/139
f 191/314/140 192/319/140 190/322/140 189/315/140
f 190/323/141 185/324/141 186/316/141 189/315/141
f 191/325/142 188/315/142 187/323/142 192/326/142
o cube.024
v -1.349946 2.126460 -10.000000
v -1.349946 2.126460 -10.187500
v -1.287506 2.123734 -10.000000
v -1.287506 2.123734 -10.187500
v -1.401744 0.940090 -10.187500
v -1.401744 0.940090 -10.000000
v -1.339304 0.937364 -10.187500
v -1.339304 0.937364 -10.000000
vn -0.0000 -0.0000 -1.0000
vn 0.0436 0.9990 -0.0000
vn -0.0000 -0.0000 1.0000
vn -0.0436 -0.9990 -0.0000
vn -0.9990 0.0436 -0.0000
vn 0.9990 -0.0436 -0.0000
vt 0.943287 0.765046
vt 0.965278 0.765046
vt 0.965278 0.766204
vt 0.943287 0.766204
vt 0.939815 0.765046
vt 0.939815 0.766204
vt 0.968750 0.765046
vt 0.990741 0.765046
vt 0.990741 0.766204
vt 0.968750 0.766204
vt 0.965278 0.769676
vt 0.943287 0.769676
vt 0.987269 0.766204
vt 0.987269 0.769676
s 1
usemtl m_cd254a77-ce7e-4613-06af-7ec7a8a6d443
f 196/327/143 199/328/143 197/329/143 194/330/143
f 195/331/144 196/327/144 194/330/144 193/332/144
f 200/333/145 195/334/145 193/335/145 198/336/145
f 199/328/146 200/333/146 198/336/146 197/329/146
f 198/337/147 193/338/147 194/330/147 197/329/147
f 199/339/148 196/329/148 195/337/148 200/340/148
o cube.025
v -1.349816 2.127412 -10.125000
v -1.349816 2.127412 -10.687500
v -1.287375 2.124686 -10.125000
v -1.287375 2.124686 -10.687500
v -1.357994 1.940090 -10.687500
v -1.357994 1.940090 -10.125000
v -1.295554 1.937364 -10.687500
v -1.295554 1.937364 -10.125000
vn -0.0000 -0.0000 -1.0000
vn 0.0436 0.9990 -0.0000
vn -0.0000 -0.0000 1.0000
vn -0.0436 -0.9990 -0.0000
vn -0.9990 0.0436 -0.0000
vn 0.9990 -0.0436 -0.0000
vt 0.932870 0.952546
vt 0.936343 0.952546
vt 0.936343 0.953704
vt 0.932870 0.953704
vt 0.922454 0.952546
vt 0.922454 0.953704
vt 0.946759 0.952546
vt 0.950231 0.952546
vt 0.950231 0.953704
vt 0.946759 0.953704
vt 0.936343 0.964120
vt 0.932870 0.964120
vt 0.939815 0.953704
vt 0.939815 0.964120
s 1
usemtl m_cd254a77-ce7e-4613-06af-7ec7a8a6d443
f 204/341/149 207/342/149 205/343/149 202/344/149
f 203/345/150 204/341/150 202/344/150 201/346/150
f 208/347/151 203/348/151 201/349/151 206/350/151
f 207/342/152 208/347/152 206/350/152 205/343/152
f 206/351/153 201/352/153 202/344/153 205/343/153
f 207/353/154 204/343/154 203/351/154 208/354/154
o cube.026
v -1.355336 2.001576 -10.187500
v -1.355336 2.001576 -10.687500
v -1.355336 2.001576 -10.187500
v -1.355336 2.001576 -10.687500
v -1.396229 1.064969 -10.687500
v -1.396229 1.064969 -10.187500
v -1.396229 1.064969 -10.687500
v -1.396229 1.064969 -10.187500
vn -0.0000 -0.0000 -1.0000
vn -0.0000 -0.0000 -0.0000
vn -0.0000 -0.0000 1.0000
vn -0.9990 0.0436 -0.0000
vn 0.9990 -0.0436 -0.0000
vt 0.938657 0.844907
vt 0.956019 0.844907
vt 0.929398 0.844907
vt 0.965278 0.844907
vt 0.982639 0.844907
vt 0.956019 0.854167
vt 0.938657 0.854167
vt 0.973380 0.844907
vt 0.973380 0.854167
s 0
usemtl m_cd254a77-ce7e-4613-06af-7ec7a8a6d443
f 212/355/155 215/356/155 213/356/155 210/355/155
f 211/357/156 212/355/156 210/355/156 209/357/156
f 216/358/157 211/359/157 209/359/157 214/358/157
f 215/356/156 216/358/156 214/358/156 213/356/156
s 1
f 214/360/158 209/361/158 210/355/158 213/356/158
f 215/362/159 212/356/159 211/360/159 216/363/159
o cube.027
v -1.401744 0.940092 5.000000
v -1.401744 0.940092 4.125000
v -1.339244 0.940092 5.000000
v -1.339244 0.940092 4.125000
v -1.401744 0.690092 4.125000
v -1.401744 0.690092 5.000000
v -1.339244 0.690092 4.125000
v -1.339244 0.690092 5.000000
vn -0.0000 -0.0000 -1.0000
vn -0.0000 1.0000 -0.0000
vn -0.0000 -0.0000 1.0000
vn -0.0000 -1.0000 -0.0000
vn -1.0000 -0.0000 -0.0000
vn 1.0000 -0.0000 -0.0000
vt 0.777778 0.975694
vt 0.782407 0.975694
vt 0.782407 0.976852
vt 0.777778 0.976852
vt 0.761574 0.975694
vt 0.761574 0.976852
vt 0.798611 0.975694
vt 0.803241 0.975694
vt 0.803241 0.976852
vt 0.798611 0.976852
vt 0.782407 0.993056
vt 0.777778 0.993056
vt 0.787037 0.976852
vt 0.787037 0.993056
s 1
usemtl m_cd254a77-ce7e-4613-06af-7ec7a8a6d443
f 220/364/160 223/365/160 221/366/160 218/367/160
f 219/368/161 220/364/161 218/367/161 217/369/161
f 224/370/162 219/371/162 217/372/162 222/373/162
f 223/365/163 224/370/163 222/373/163 221/366/163
f 222/374/164 217/375/164 218/367/164 221/366/164
f 223/376/165 220/366/165 219/374/165 224/377/165
o cube.028
v -1.401744 0.690091 5.000000
v -1.401744 0.690091 4.125000
v -1.339482 0.695539 5.000000
v -1.339482 0.695538 4.125000
v -1.379955 0.441043 4.125000
v -1.379955 0.441043 5.000000
v -1.317693 0.446490 4.125000
v -1.317693 0.446490 5.000000
vn -0.0000 -0.0000 -1.0000
vn -0.0872 0.9962 -0.0000
vn -0.0000 -0.0000 1.0000
vn 0.0872 -0.9962 -0.0000
vn -0.9962 -0.0872 -0.0000
vn 0.9962 0.0872 -0.0000
vt 0.777778 0.958333
vt 0.782407 0.958333
vt 0.782407 0.959491
vt 0.777778 0.959491
vt 0.761574 0.958333
vt 0.761574 0.959491
vt 0.798611 0.958333
vt 0.803241 0.958333
vt 0.803241 0.959491
vt 0.798611 0.959491
vt 0.782407 0.975694
vt 0.777778 0.975694
vt 0.787037 0.959491
vt 0.787037 0.975694
s 1
usemtl m_cd254a77-ce7e-4613-06af-7ec7a8a6d443
f 228/378/166 231/379/166 229/380/166 226/381/166
f 227/382/167 228/378/167 226/381/167 225/383/167
f 232/384/168 227/385/168 225/386/168 230/387/168
f 231/379/169 232/384/169 230/387/169 229/380/169
f 230/388/170 225/389/170 226/381/170 229/380/170
f 231/390/171 228/380/171 227/388/171 232/391/171
o cube.029
v -1.379955 0.441043 5.000000
v -1.379955 0.441043 4.125000
v -1.318502 0.452432 5.000000
v -1.318502 0.452432 4.125000
v -1.334396 0.195229 4.125000
v -1.334396 0.195229 5.000000
v -1.272943 0.206619 4.125000
v -1.272943 0.206619 5.000000
vn -0.0000 -0.0000 -1.0000
vn -0.1822 0.9833 -0.0000
vn -0.0000 -0.0000 1.0000
vn 0.1822 -0.9833 -0.0000
vn -0.9833 -0.1822 -0.0000
vn 0.9833 0.1822 -0.0000
vt 0.777778 0.940972
vt 0.782407 0.940972
vt 0.782407 0.942130
vt 0.777778 0.942130
vt 0.761574 0.940972
vt 0.761574 0.942130
vt 0.798611 0.940972
vt 0.803241 0.940972
vt 0.803241 0.942130
vt 0.798611 0.942130
vt 0.782407 0.958333
vt 0.777778 0.958333
vt 0.787037 0.942130
vt 0.787037 0.958333
s 1
usemtl m_cd254a77-ce7e-4613-06af-7ec7a8a6d443
f 236/392/172 239/393/172 237/394/172 234/395/172
f 235/396/173 236/392/173 234/395/173 233/397/173
f 240/398/174 235/399/174 233/400/174 238/401/174
f 239/393/175 240/398/175 238/401/175 237/394/175
f 238/402/176 233/403/176 234/395/176 237/394/176
f 239/404/177 236/394/177 235/402/177 240/405/177
o cube.030
v -1.334396 0.195229 5.000000
v -1.334396 0.195229 4.125000
v -1.276865 0.219650 5.000000
v -1.276865 0.219650 4.125000
v -1.212293 -0.092429 4.125000
v -1.212293 -0.092429 5.000000
v -1.154761 -0.068008 4.125000
v -1.154761 -0.068008 5.000000
vn -0.0000 -0.0000 -1.0000
vn -0.3907 0.9205 -0.0000
vn -0.0000 -0.0000 1.0000
vn 0.3907 -0.9205 -0.0000
vn -0.9205 -0.3907 -0.0000
vn 0.9205 0.3907 -0.0000
vt 0.776620 0.923611
vt 0.782407 0.923611
vt 0.782407 0.924769
vt 0.776620 0.924769
vt 0.760417 0.923611
vt 0.760417 0.924769
vt 0.798611 0.923611
vt 0.804398 0.923611
vt 0.804398 0.924769
vt 0.798611 0.924769
vt 0.782407 0.940972
vt 0.776620 0.940972
vt 0.788194 0.924769
vt 0.788194 0.940972
s 1
usemtl m_cd254a77-ce7e-4613-06af-7ec7a8a6d443
f 244/406/178 247/407/178 245/408/178 242/409/178
f 243/410/179 244/406/179 242/409/179 241/411/179
f 248/412/180 243/413/180 241/414/180 246/415/180
f 247/407/181 248/412/181 246/415/181 245/408/181
f 246/416/182 241/417/182 242/409/182 245/408/182
f 247/418/183 244/408/183 243/416/183 248/419/183
o cube.031
v -1.349946 2.126461 4.312500
v -1.349946 2.126461 4.125000
v -1.287506 2.123735 4.312500
v -1.287506 2.123735 4.125000
v -1.401744 0.940091 4.125000
v -1.401744 0.940091 4.312500
v -1.339304 0.937365 4.125000
v -1.339304 0.937365 4.312500
vn -0.0000 -0.0000 -1.0000
vn 0.0436 0.9990 -0.0000
vn -0.0000 -0.0000 1.0000
vn -0.0436 -0.9990 -0.0000
vn -0.9990 0.0436 -0.0000
vn 0.9990 -0.0436 -0.0000
vt 0.942130 0.753472
vt 0.964120 0.753472
vt 0.964120 0.754630
vt 0.942130 0.754630
vt 0.938657 0.753472
vt 0.938657 0.754630
vt 0.967593 0.753472
vt 0.989583 0.753472
vt 0.989583 0.754630
vt 0.967593 0.754630
vt 0.964120 0.758102
vt 0.942130 0.758102
vt 0.986111 0.754630
vt 0.986111 0.758102
s 1
usemtl m_cd254a77-ce7e-4613-06af-7ec7a8a6d443
f 252/420/184 255/421/184 253/422/184 250/423/184
f 251/424/185 252/420/185 250/423/185 249/425/185
f 256/426/186 251/427/186 249/428/186 254/429/186
f 255/421/187 256/426/187 254/429/187 253/422/187
f 254/430/188 249/431/188 250/423/188 253/422/188
f 255/432/189 252/422/189 251/430/189 256/433/189
o cube.032
v -1.396292 1.064973 4.875000
v -1.396292 1.064973 4.312500
v -1.333851 1.062246 4.875000
v -1.333851 1.062246 4.312500
v -1.401744 0.940091 4.312500
v -1.401744 0.940091 4.875000
v -1.339304 0.937365 4.312500
v -1.339304 0.937365 4.875000
vn -0.0000 -0.0000 -1.0000
vn 0.0436 0.9990 -0.0000
vn -0.0000 -0.0000 1.0000
vn -0.0436 -0.9990 -0.0000
vn -0.9990 0.0436 -0.0000
vn 0.9990 -0.0436 -0.0000
vt 0.934028 0.952546
vt 0.936343 0.952546
vt 0.936343 0.953704
vt 0.934028 0.953704
vt 0.923611 0.952546
vt 0.923611 0.953704
vt 0.946759 0.952546
vt 0.949074 0.952546
vt 0.949074 0.953704
vt 0.946759 0.953704
vt 0.936343 0.964120
vt 0.934028 0.964120
vt 0.938657 0.953704
vt 0.938657 0.964120
s 1
usemtl m_cd254a77-ce7e-4613-06af-7ec7a8a6d443
f 260/434/190 263/435/190 261/436/190 258/437/190
f 259/438/191 260/434/191 258/437/191 257/439/191
f 264/440/192 259/441/192 257/442/192 262/443/192
f 263/435/193 264/440/193 262/443/193 261/436/193
f 262/444/194 257/445/194 258/437/194 261/436/194
f 263/446/195 260/436/195 259/444/195 264/447/195
o cube.033
v -1.349946 2.126461 5.000000
v -1.349946 2.126461 4.812500
v -1.287506 2.123735 5.000000
v -1.287506 2.123735 4.812500
v -1.401744 0.940091 4.812500
v -1.401744 0.940091 5.000000
v -1.339304 0.937365 4.812500
v -1.339304 0.937365 5.000000
vn -0.0000 -0.0000 -1.0000
vn 0.0436 0.9990 -0.0000
vn -0.0000 -0.0000 1.0000
vn -0.0436 -0.9990 -0.0000
vn -0.9990 0.0436 -0.0000
vn 0.9990 -0.0436 -0.0000
vt 0.943287 0.765046
vt 0.965278 0.765046
vt 0.965278 0.766204
vt 0.943287 0.766204
vt 0.939815 0.765046
vt 0.939815 0.766204
vt 0.968750 0.765046
vt 0.990741 0.765046
vt 0.990741 0.766204
vt 0.968750 0.766204
vt 0.965278 0.769676
vt 0.943287 0.769676
vt 0.987269 0.766204
vt 0.987269 0.769676
s 1
usemtl m_cd254a77-ce7e-4613-06af-7ec7a8a6d443
f 268/448/196 271/449/196 269/450/196 266/451/196
f 267/452/197 268/448/197 266/451/197 265/453/197
f 272/454/198 267/455/198 265/456/198 270/457/198
f 271/449/199 272/454/199 270/457/199 269/450/199
f 270/458/200 265/459/200 266/451/200 269/450/200
f 271/460/201 268/450/201 267/458/201 272/461/201
o cube.034
v -1.349816 2.127413 4.875000
v -1.349816 2.127413 4.312500
v -1.287375 2.124687 4.875000
v -1.287375 2.124687 4.312500
v -1.357994 1.940091 4.312500
v -1.357994 1.940091 4.875000
v -1.295554 1.937365 4.312500
v -1.295554 1.937365 4.875000
vn -0.0000 -0.0000 -1.0000
vn 0.0436 0.9990 -0.0000
vn -0.0000 -0.0000 1.0000
vn -0.0436 -0.9990 -0.0000
vn -0.9990 0.0436 -0.0000
vn 0.9990 -0.0436 -0.0000
vt 0.932870 0.952546
vt 0.936343 0.952546
vt 0.936343 0.953704
vt 0.932870 0.953704
vt 0.922454 0.952546
vt 0.922454 0.953704
vt 0.946759 0.952546
vt 0.950231 0.952546
vt 0.950231 0.953704
vt 0.946759 0.953704
vt 0.936343 0.964120
vt 0.932870 0.964120
vt 0.939815 0.953704
vt 0.939815 0.964120
s 1
usemtl m_cd254a77-ce7e-4613-06af-7ec7a8a6d443
f 276/462/202 279/463/202 277/464/202 274/465/202
f 275/466/203 276/462/203 274/465/203 273/467/203
f 280/468/204 275/469/204 273/470/204 278/471/204
f 279/463/205 280/468/205 278/471/205 277/464/205
f 278/472/206 273/473/206 274/465/206 277/464/206
f 279/474/207 276/464/207 275/472/207 280/475/207
o cube.035
v -1.355336 2.001578 4.812500
v -1.355336 2.001577 4.312500
v -1.355336 2.001578 4.812500
v -1.355336 2.001577 4.312500
v -1.396229 1.064970 4.312500
v -1.396229 1.064970 4.812500
v -1.396229 1.064970 4.312500
v -1.396229 1.064970 4.812500
vn -0.0000 -0.0000 -1.0000
vn -0.0000 -0.0000 -0.0000
vn -0.0000 -0.0000 1.0000
vn -0.9990 0.0436 -0.0000
vn 0.9990 -0.0436 -0.0000
vt 0.938657 0.844907
vt 0.956019 0.844907
vt 0.929398 0.844907
vt 0.965278 0.844907
vt 0.982639 0.844907
vt 0.956019 0.854167
vt 0.938657 0.854167
vt 0.973380 0.844907
vt 0.973380 0.854167
s 0
usemtl m_cd254a77-ce7e-4613-06af-7ec7a8a6d443
f 284/476/208 287/477/208 285/477/208 282/476/208
f 283/478/209 284/476/209 282/476/209 281/478/209
f 288/479/210 283/480/210 281/480/210 286/479/210
f 287/477/209 288/479/209 286/479/209 285/477/209
s 1
f 286/481/211 281/482/211 282/476/211 285/477/211
f 287/483/212 284/477/212 283/481/212 288/484/212
o cube.036
v -1.401744 0.940092 10.000000
v -1.401744 0.940092 9.125000
v -1.339244 0.940092 10.000000
v -1.339244 0.940092 9.125000
v -1.401744 0.690092 9.125000
v -1.401744 0.690092 10.000000
v -1.339244 0.690092 9.125000
v -1.339244 0.690092 10.000000
vn -0.0000 -0.0000 -1.0000
vn -0.0000 1.0000 -0.0000
vn -0.0000 -0.0000 1.0000
vn -0.0000 -1.0000 -0.0000
vn -1.0000 -0.0000 -0.0000
vn 1.0000 -0.0000 -0.0000
vt 0.777778 0.975694
vt 0.782407 0.975694
vt 0.782407 0.976852
vt 0.777778 0.976852
vt 0.761574 0.975694
vt 0.761574 0.976852
vt 0.798611 0.975694
vt 0.803241 0.975694
vt 0.803241 0.976852
vt 0.798611 0.976852
vt 0.782407 0.993056
vt 0.777778 0.993056
vt 0.787037 0.976852
vt 0.787037 0.993056
s 1
usemtl m_cd254a77-ce7e-4613-06af-7ec7a8a6d443
f 292/485/213 295/486/213 293/487/213 290/488/213
f 291/489/214 292/485/214 290/488/214 289/490/214
f 296/491/215 291/492/215 289/493/215 294/494/215
f 295/486/216 296/491/216 294/494/216 293/487/216
f 294/495/217 289/496/217 290/488/217 293/487/217
f 295/497/218 292/487/218 291/495/218 296/498/218
o cube.037
v -1.401744 0.690092 10.000000
v -1.401744 0.690092 9.125000
v -1.339482 0.695539 10.000000
v -1.339482 0.695539 9.125000
v -1.379955 0.441043 9.125000
v -1.379955 0.441043 10.000000
v -1.317693 0.446490 9.125000
v -1.317693 0.446490 10.000000
vn -0.0000 -0.0000 -1.0000
vn -0.0872 0.9962 -0.0000
vn -0.0000 -0.0000 1.0000
vn 0.0872 -0.9962 -0.0000
vn -0.9962 -0.0872 -0.0000
vn 0.9962 0.0872 -0.0000
vt 0.777778 0.958333
vt 0.782407 0.958333
vt 0.782407 0.959491
vt 0.777778 0.959491
vt 0.761574 0.958333
vt 0.761574 0.959491
vt 0.798611 0.958333
vt 0.803241 0.958333
vt 0.803241 0.959491
vt 0.798611 0.959491
vt 0.782407 0.975694
vt 0.777778 0.975694
vt 0.787037 0.959491
vt 0.787037 0.975694
s 1
usemtl m_cd254a77-ce7e-4613-06af-7ec7a8a6d443
f 300/499/219 303/500/219 301/501/219 298/502/219
f 299/503/220 300/499/220 298/502/220 297/504/220
f 304/505/221 299/506/221 297/507/221 302/508/221
f 303/500/222 304/505/222 302/508/222 301/501/222
f 302/509/223 297/510/223 298/502/223 301/501/223
f 303/511/224 300/501/224 299/509/224 304/512/224
o cube.038
v -1.379955 0.441043 10.000000
v -1.379955 0.441043 9.125000
v -1.318502 0.452433 10.000000
v -1.318502 0.452433 9.125000
v -1.334396 0.195229 9.125000
v -1.334396 0.195229 10.000000
v -1.272943 0.206619 9.125000
v -1.272943 0.206619 10.000000
vn -0.0000 -0.0000 -1.0000
vn -0.1822 0.9833 -0.0000
vn -0.0000 -0.0000 1.0000
vn 0.1822 -0.9833 -0.0000
vn -0.9833 -0.1822 -0.0000
vn 0.9833 0.1822 -0.0000
vt 0.777778 0.940972
vt 0.782407 0.940972
vt 0.782407 0.942130
vt 0.777778 0.942130
vt 0.761574 0.940972
vt 0.761574 0.942130
vt 0.798611 0.940972
vt 0.803241 0.940972
vt 0.803241 0.942130
vt 0.798611 0.942130
vt 0.782407 0.958333
vt 0.777778 0.958333
vt 0.787037 0.942130
vt 0.787037 0.958333
s 1
usemtl m_cd254a77-ce7e-4613-06af-7ec7a8a6d443
f 308/513/225 311/514/225 309/515/225 306/516/225
f 307/517/226 308/513/226 306/516/226 305/518/226
f 312/519/227 307/520/227 305/521/227 310/522/227
f 311/514/228 312/519/228 310/522/228 309/515/228
f 310/523/229 305/524/229 306/516/229 309/515/229
f 311/525/230 308/515/230 307/523/230 312/526/230
o cube.039
v -1.334396 0.195229 10.000000
v -1.334396 0.195229 9.125000
v -1.276865 0.219650 10.000000
v -1.276865 0.219650 9.125000
v -1.212293 -0.092429 9.125000
v -1.212293 -0.092429 10.000000
v -1.154761 -0.068008 9.125000
v -1.154761 -0.068008 10.000000
vn -0.0000 -0.0000 -1.0000
vn -0.3907 0.9205 -0.0000
vn -0.0000 -0.0000 1.0000
vn 0.3907 -0.9205 -0.0000
vn -0.9205 -0.3907 -0.0000
vn 0.9205 0.3907 -0.0000
vt 0.776620 0.923611
vt 0.782407 0.923611
vt 0.782407 0.924769
vt 0.776620 0.924769
vt 0.760417 0.923611
vt 0.760417 0.924769
vt 0.798611 0.923611
vt 0.804398 0.923611
vt 0.804398 0.924769
vt 0.798611 0.924769
vt 0.782407 0.940972
vt 0.776620 0.940972
vt 0.788194 0.924769
vt 0.788194 0.940972
s 1
usemtl m_cd254a77-ce7e-4613-06af-7ec7a8a6d443
f 316/527/231 319/528/231 317/529/231 314/530/231
f 315/531/232 316/527/232 314/530/232 313/532/232
f 320/533/233 315/534/233 313/535/233 318/536/233
f 319/528/234 320/533/234 318/536/234 317/529/234
f 318/537/235 313/538/235 314/530/235 317/529/235
f 319/539/236 316/529/236 315/537/236 320/540/236
o cube.040
v -1.349946 2.126462 9.312500
v -1.349946 2.126462 9.125000
v -1.287506 2.123735 9.312500
v -1.287506 2.123735 9.125000
v -1.401744 0.940092 9.125000
v -1.401744 0.940092 9.312500
v -1.339304 0.937366 9.125000
v -1.339304 0.937366 9.312500
vn -0.0000 -0.0000 -1.0000
vn 0.0436 0.9990 -0.0000
vn -0.0000 -0.0000 1.0000
vn -0.0436 -0.9990 -0.0000
vn -0.9990 0.0436 -0.0000
vn 0.9990 -0.0436 -0.0000
vt 0.942130 0.753472
vt 0.964120 0.753472
vt 0.964120 0.754630
vt 0.942130 0.754630
vt 0.938657 0.753472
vt 0.938657 0.754630
vt 0.967593 0.753472
vt 0.989583 0.753472
vt 0.989583 0.754630
vt 0.967593 0.754630
vt 0.964120 0.758102
vt 0.942130 0.758102
vt 0.986111 0.754630
vt 0.986111 0.758102
s 1
usemtl m_cd254a77-ce7e-4613-06af-7ec7a8a6d443
f 324/541/237 327/542/237 325/543/237 322/544/237
f 323/545/238 324/541/238 322/544/238 321/546/238
f 328/547/239 323/548/239 321/549/239 326/550/239
f 327/542/240 328/547/240 326/550/240 325/543/240
f 326/551/241 321/552/241 322/544/241 325/543/241
f 327/553/242 324/543/242 323/551/242 328/554/242
o cube.041
v -1.396292 1.064973 9.875000
v -1.396292 1.064973 9.312500
v -1.333851 1.062247 9.875000
v -1.333851 1.062247 9.312500
v -1.401744 0.940092 9.312500
v -1.401744 0.940092 9.875000
v -1.339304 0.937366 9.312500
v -1.339304 0.937366 9.875000
vn -0.0000 -0.0000 -1.0000
vn 0.0436 0.9990 -0.0000
vn -0.0000 -0.0000 1.0000
vn -0.0436 -0.9990 -0.0000
vn -0.9990 0.0436 -0.0000
vn 0.9990 -0.0436 -0.0000
vt 0.934028 0.952546
vt 0.936343 0.952546
vt 0.936343 0.953704
vt 0.934028 0.953704
vt 0.923611 0.952546
vt 0.923611 0.953704
vt 0.946759 0.952546
vt 0.949074 0.952546
vt 0.949074 0.953704
vt 0.946759 0.953704
vt 0.936343 0.964120
vt 0.934028 0.964120
vt 0.938657 0.953704
vt 0.938657 0.964120
s 1
usemtl m_cd254a77-ce7e-4613-06af-7ec7a8a6d443
f 332/555/243 335/556/243 333/557/243 330/558/243
f 331/559/244 332/555/244 330/558/244 329/560/244
f 336/561/245 331/562/245 329/563/245 334/564/245
f 335/556/246 336/561/246 334/564/246 333/557/246
f 334/565/247 329/566/247 330/558/247 333/557/247
f 335/567/248 332/557/248 331/565/248 336/568/248
o cube.042
v -1.349946 2.126462 10.000000
v -1.349946 2.126462 9.812500
v -1.287506 2.123735 10.000000
v -1.287506 2.123735 9.812500
v -1.401744 0.940092 9.812500
v -1.401744 0.940092 10.000000
v -1.339304 0.937366 9.812500
v -1.339304 0.937366 10.000000
vn -0.0000 -0.0000 -1.0000
vn 0.0436 0.9990 -0.0000
vn -0.0000 -0.0000 1.0000
vn -0.0436 -0.9990 -0.0000
vn -0.9990 0.0436 -0.0000
vn 0.9990 -0.0436 -0.0000
vt 0.943287 0.765046
vt 0.965278 0.765046
vt 0.965278 0.766204
vt 0.943287 0.766204
vt 0.939815 0.765046
vt 0.939815 0.766204
vt 0.968750 0.765046
vt 0.990741 0.765046
vt 0.990741 0.766204
vt 0.968750 0.766204
vt 0.965278 0.769676
vt 0.943287 0.769676
vt 0.987269 0.766204
vt 0.987269 0.769676
s 1
usemtl m_cd254a77-ce7e-4613-06af-7ec7a8a6d443
f 340/569/249 343/570/249 341/571/249 338/572/249
f 339/573/250 340/569/250 338/572/250 337/574/250
f 344/575/251 339/576/251 337/577/251 342/578/251
f 343/570/252 344/575/252 342/578/252 341/571/252
f 342/579/253 337/580/253 338/572/253 341/571/253
f 343/581/254 340/571/254 339/579/254 344/582/254
o cube.043
v -1.349816 2.127414 9.875000
v -1.349816 2.127414 9.312500
v -1.287375 2.124687 9.875000
v -1.287375 2.124687 9.312500
v -1.357994 1.940092 9.312500
v -1.357994 1.940092 9.875000
v -1.295554 1.937366 9.312500
v -1.295554 1.937366 9.875000
vn -0.0000 -0.0000 -1.0000
vn 0.0436 0.9990 -0.0000
vn -0.0000 -0.0000 1.0000
vn -0.0436 -0.9990 -0.0000
vn -0.9990 0.0436 -0.0000
vn 0.9990 -0.0436 -0.0000
vt 0.932870 0.952546
vt 0.936343 0.952546
vt 0.936343 0.953704
vt 0.932870 0.953704
vt 0.922454 0.952546
vt 0.922454 0.953704
vt 0.946759 0.952546
vt 0.950231 0.952546
vt 0.950231 0.953704
vt 0.946759 0.953704
vt 0.936343 0.964120
vt 0.932870 0.964120
vt 0.939815 0.953704
vt 0.939815 0.964120
s 1
usemtl m_cd254a77-ce7e-4613-06af-7ec7a8a6d443
f 348/583/255 351/584/255 349/585/255 346/586/255
f 347/587/256 348/583/256 346/586/256 345/588/256
f 352/589/257 347/590/257 345/591/257 350/592/257
f 351/584/258 352/589/258 350/592/258 349/585/258
f 350/593/259 345/594/259 346/586/259 349/585/259
f 351/595/260 348/585/260 347/593/260 352/596/260
o cube.044
v -1.355336 2.001578 9.812500
v -1.355336 2.001578 9.312500
v -1.355336 2.001578 9.812500
v -1.355336 2.001578 9.312500
v -1.396229 1.064970 9.312500
v -1.396229 1.064970 9.812500
v -1.396229 1.064970 9.312500
v -1.396229 1.064970 9.812500
vn -0.0000 -0.0000 -1.0000
vn -0.0000 -0.0000 -0.0000
vn -0.0000 -0.0000 1.0000
vn -0.9990 0.0436 -0.0000
vn 0.9990 -0.0436 -0.0000
vt 0.938657 0.844907
vt 0.956019 0.844907
vt 0.929398 0.844907
vt 0.965278 0.844907
vt 0.982639 0.844907
vt 0.956019 0.854167
vt 0.938657 0.854167
vt 0.973380 0.844907
vt 0.973380 0.854167
s 0
usemtl m_cd254a77-ce7e-4613-06af-7ec7a8a6d443
f 356/597/261 359/598/261 357/598/261 354/597/261
f 355/599/262 356/597/262 354/597/262 353/599/262
f 360/600/263 355/601/263 353/601/263 358/600/263
f 359/598/262 360/600/262 358/600/262 357/598/262
s 1
f 358/602/264 353/603/264 354/597/264 357/598/264
f 359/604/265 356/598/265 355/602/265 360/605/265
