# Blender 4.3.2
# www.blender.org
mtllib door_left_in.mtl
o cube.005
v -1.285943 2.123734 -4.062500
v -1.285943 2.123734 -4.312500
v -1.285943 2.123734 -4.062500
v -1.285943 2.123734 -4.312500
v -1.337741 0.937365 -4.312500
v -1.337741 0.937365 -4.062500
v -1.337741 0.937365 -4.312500
v -1.337741 0.937365 -4.062500
v -1.337682 0.940091 -4.062500
v -1.337682 0.940091 -5.000000
v -1.337682 0.940091 -4.062500
v -1.337682 0.940091 -5.000000
v -1.337682 0.690091 -5.000000
v -1.337682 0.690091 -4.062500
v -1.337682 0.690091 -5.000000
v -1.337682 0.690091 -4.062500
v -1.337920 0.695538 -4.062500
v -1.337920 0.695538 -5.000000
v -1.337920 0.695538 -4.062500
v -1.337920 0.695538 -5.000000
v -1.316131 0.446489 -5.000000
v -1.316131 0.446489 -4.062500
v -1.316131 0.446489 -5.000000
v -1.316131 0.446489 -4.062500
v -1.316939 0.452432 -4.062500
v -1.316939 0.452432 -5.000000
v -1.316939 0.452432 -4.062500
v -1.316939 0.452432 -5.000000
v -1.271381 0.206618 -5.000000
v -1.271381 0.206618 -4.062500
v -1.271381 0.206618 -5.000000
v -1.271381 0.206618 -4.062500
v -1.275302 0.219649 -4.062500
v -1.275302 0.219649 -5.000000
v -1.275302 0.219649 -4.062500
v -1.275302 0.219649 -5.000000
v -1.153199 -0.068009 -5.000000
v -1.153199 -0.068009 -4.062500
v -1.153199 -0.068009 -5.000000
v -1.153199 -0.068009 -4.062500
v -1.285943 2.123734 -4.750000
v -1.285943 2.123734 -5.000000
v -1.285943 2.123734 -4.750000
v -1.285943 2.123734 -5.000000
v -1.337741 0.937365 -5.000000
v -1.337741 0.937365 -4.750000
v -1.337741 0.937365 -5.000000
v -1.337741 0.937365 -4.750000
v -1.332289 1.062246 -4.250000
v -1.332289 1.062246 -4.875000
v -1.332289 1.062246 -4.250000
v -1.332289 1.062246 -4.875000
v -1.337741 0.937365 -4.875000
v -1.337741 0.937365 -4.250000
v -1.337741 0.937365 -4.875000
v -1.337741 0.937365 -4.250000
v -1.285813 2.124686 -4.250000
v -1.285813 2.124686 -4.875000
v -1.285813 2.124686 -4.250000
v -1.285813 2.124686 -4.875000
v -1.293991 1.937365 -4.875000
v -1.293991 1.937365 -4.250000
v -1.293991 1.937365 -4.875000
v -1.293991 1.937365 -4.250000
v -1.294488 1.936591 -4.250000
v -1.294488 1.936591 -4.812500
v -1.294488 1.936591 -4.250000
v -1.294488 1.936591 -4.812500
v -1.332655 1.062424 -4.812500
v -1.332655 1.062424 -4.250000
v -1.332655 1.062424 -4.812500
v -1.332655 1.062424 -4.250000
vn -0.0000 -0.0000 -0.0000
vn -0.9990 0.0436 -0.0000
vn 0.9990 -0.0436 -0.0000
vn -1.0000 -0.0000 -0.0000
vn 1.0000 -0.0000 -0.0000
vn -0.9962 -0.0872 -0.0000
vn 0.9962 0.0872 -0.0000
vn -0.9833 -0.1822 -0.0000
vn 0.9833 0.1822 -0.0000
vn -0.9205 -0.3907 -0.0000
vn 0.9205 0.3907 -0.0000
vt 0.936343 0.899306
vt 0.958333 0.899306
vt 0.931713 0.899306
vt 0.962963 0.899306
vt 0.984954 0.899306
vt 0.958333 0.903935
vt 0.936343 0.903935
vt 0.980324 0.899306
vt 0.980324 0.903935
vt 0.888889 0.900463
vt 0.893519 0.900463
vt 0.871528 0.900463
vt 0.910880 0.900463
vt 0.915509 0.900463
vt 0.893519 0.917824
vt 0.888889 0.917824
vt 0.898148 0.900463
vt 0.898148 0.917824
vt 0.888889 0.875000
vt 0.893519 0.875000
vt 0.871528 0.875000
vt 0.910880 0.875000
vt 0.915509 0.875000
vt 0.893519 0.892361
vt 0.888889 0.892361
vt 0.898148 0.875000
vt 0.898148 0.892361
vt 0.888889 0.850694
vt 0.893519 0.850694
vt 0.871528 0.850694
vt 0.910880 0.850694
vt 0.915509 0.850694
vt 0.893519 0.868056
vt 0.888889 0.868056
vt 0.898148 0.850694
vt 0.898148 0.868056
vt 0.888889 0.826389
vt 0.894676 0.826389
vt 0.871528 0.826389
vt 0.912037 0.826389
vt 0.917824 0.826389
vt 0.894676 0.843750
vt 0.888889 0.843750
vt 0.900463 0.826389
vt 0.900463 0.843750
vt 0.936343 0.912037
vt 0.958333 0.912037
vt 0.931713 0.912037
vt 0.962963 0.912037
vt 0.984954 0.912037
vt 0.958333 0.916667
vt 0.936343 0.916667
vt 0.980324 0.912037
vt 0.980324 0.916667
vt 0.945602 0.940972
vt 0.947917 0.940972
vt 0.934028 0.940972
vt 0.959491 0.940972
vt 0.961806 0.940972
vt 0.947917 0.952546
vt 0.945602 0.952546
vt 0.950231 0.940972
vt 0.950231 0.952546
vt 0.961806 0.942130
vt 0.965278 0.942130
vt 0.950231 0.942130
vt 0.976852 0.942130
vt 0.980324 0.942130
vt 0.965278 0.953704
vt 0.961806 0.953704
vt 0.968750 0.942130
vt 0.968750 0.953704
vt 0.950231 0.930556
vt 0.966435 0.930556
vt 0.939815 0.930556
vt 0.976852 0.930556
vt 0.993056 0.930556
vt 0.966435 0.940972
vt 0.982639 0.930556
vt 0.982639 0.940972
s 1
usemtl m_d66f417c-c71e-1189-400f-200ebb740664
f 4/1/1 7/2/1 5/2/1 2/1/1
f 3/3/1 4/1/1 2/1/1 1/3/1
f 8/4/1 3/5/1 1/5/1 6/4/1
f 7/2/1 8/4/1 6/4/1 5/2/1
f 6/6/2 1/7/2 2/1/2 5/2/2
f 7/8/3 4/2/3 3/6/3 8/9/3
f 12/10/1 15/11/1 13/11/1 10/10/1
f 11/12/1 12/10/1 10/10/1 9/12/1
f 16/13/1 11/14/1 9/14/1 14/13/1
f 15/11/1 16/13/1 14/13/1 13/11/1
f 14/15/4 9/16/4 10/10/4 13/11/4
f 15/17/5 12/11/5 11/15/5 16/18/5
f 20/19/1 23/20/1 21/20/1 18/19/1
f 19/21/1 20/19/1 18/19/1 17/21/1
f 24/22/1 19/23/1 17/23/1 22/22/1
f 23/20/1 24/22/1 22/22/1 21/20/1
f 22/24/6 17/25/6 18/19/6 21/20/6
f 23/26/7 20/20/7 19/24/7 24/27/7
f 28/28/1 31/29/1 29/29/1 26/28/1
f 27/30/1 28/28/1 26/28/1 25/30/1
f 32/31/1 27/32/1 25/32/1 30/31/1
f 31/29/1 32/31/1 30/31/1 29/29/1
f 30/33/8 25/34/8 26/28/8 29/29/8
f 31/35/9 28/29/9 27/33/9 32/36/9
f 36/37/1 39/38/1 37/38/1 34/37/1
f 35/39/1 36/37/1 34/37/1 33/39/1
f 40/40/1 35/41/1 33/41/1 38/40/1
f 39/38/1 40/40/1 38/40/1 37/38/1
f 38/42/10 33/43/10 34/37/10 37/38/10
f 39/44/11 36/38/11 35/42/11 40/45/11
f 44/46/1 47/47/1 45/47/1 42/46/1
f 43/48/1 44/46/1 42/46/1 41/48/1
f 48/49/1 43/50/1 41/50/1 46/49/1
f 47/47/1 48/49/1 46/49/1 45/47/1
f 46/51/2 41/52/2 42/46/2 45/47/2
f 47/53/3 44/47/3 43/51/3 48/54/3
f 52/55/1 55/56/1 53/56/1 50/55/1
f 51/57/1 52/55/1 50/55/1 49/57/1
f 56/58/1 51/59/1 49/59/1 54/58/1
f 55/56/1 56/58/1 54/58/1 53/56/1
f 54/60/2 49/61/2 50/55/2 53/56/2
f 55/62/3 52/56/3 51/60/3 56/63/3
f 60/64/1 63/65/1 61/65/1 58/64/1
f 59/66/1 60/64/1 58/64/1 57/66/1
f 64/67/1 59/68/1 57/68/1 62/67/1
f 63/65/1 64/67/1 62/67/1 61/65/1
f 62/69/2 57/70/2 58/64/2 61/65/2
f 63/71/3 60/65/3 59/69/3 64/72/3
f 68/73/1 71/74/1 69/74/1 66/73/1
f 67/75/1 68/73/1 66/73/1 65/75/1
f 72/76/1 67/77/1 65/77/1 70/76/1
f 71/74/1 72/76/1 70/76/1 69/74/1
f 70/78/2 65/62/2 66/73/2 69/74/2
f 71/79/3 68/74/3 67/78/3 72/80/3
o cube.014
v -1.285943 2.123735 0.937500
v -1.285943 2.123735 0.687500
v -1.285943 2.123735 0.937500
v -1.285943 2.123735 0.687500
v -1.337741 0.937365 0.687500
v -1.337741 0.937365 0.937500
v -1.337741 0.937365 0.687500
v -1.337741 0.937365 0.937500
v -1.337682 0.940091 0.937500
v -1.337682 0.940091 -0.000000
v -1.337682 0.940091 0.937500
v -1.337682 0.940091 -0.000000
v -1.337682 0.690091 -0.000000
v -1.337682 0.690091 0.937500
v -1.337682 0.690091 -0.000000
v -1.337682 0.690091 0.937500
v -1.337920 0.695538 0.937500
v -1.337920 0.695538 -0.000000
v -1.337920 0.695538 0.937500
v -1.337920 0.695538 -0.000000
v -1.316131 0.446489 -0.000000
v -1.316131 0.446490 0.937500
v -1.316131 0.446489 -0.000000
v -1.316131 0.446490 0.937500
v -1.316939 0.452432 0.937500
v -1.316939 0.452432 -0.000000
v -1.316939 0.452432 0.937500
v -1.316939 0.452432 -0.000000
v -1.271381 0.206618 -0.000000
v -1.271381 0.206618 0.937500
v -1.271381 0.206618 -0.000000
v -1.271381 0.206618 0.937500
v -1.275302 0.219649 0.937500
v -1.275302 0.219649 -0.000000
v -1.275302 0.219649 0.937500
v -1.275302 0.219649 -0.000000
v -1.153199 -0.068009 0.000000
v -1.153199 -0.068009 0.937500
v -1.153199 -0.068009 0.000000
v -1.153199 -0.068009 0.937500
v -1.285943 2.123735 0.250000
v -1.285943 2.123735 -0.000000
v -1.285943 2.123735 0.250000
v -1.285943 2.123735 -0.000000
v -1.337741 0.937365 -0.000000
v -1.337741 0.937365 0.250000
v -1.337741 0.937365 -0.000000
v -1.337741 0.937365 0.250000
v -1.332289 1.062246 0.750000
v -1.332289 1.062246 0.125000
v -1.332289 1.062246 0.750000
v -1.332289 1.062246 0.125000
v -1.337741 0.937365 0.125000
v -1.337741 0.937365 0.750000
v -1.337741 0.937365 0.125000
v -1.337741 0.937365 0.750000
v -1.285813 2.124686 0.750000
v -1.285813 2.124686 0.125000
v -1.285813 2.124686 0.750000
v -1.285813 2.124686 0.125000
v -1.293991 1.937365 0.125000
v -1.293991 1.937365 0.750000
v -1.293991 1.937365 0.125000
v -1.293991 1.937365 0.750000
v -1.294488 1.936592 0.750000
v -1.294488 1.936592 0.187500
v -1.294488 1.936592 0.750000
v -1.294488 1.936592 0.187500
v -1.332655 1.062424 0.187500
v -1.332655 1.062424 0.750000
v -1.332655 1.062424 0.187500
v -1.332655 1.062424 0.750000
vn -0.0000 -0.0000 -0.0000
vn -0.9990 0.0436 -0.0000
vn 0.9990 -0.0436 -0.0000
vn -1.0000 -0.0000 -0.0000
vn 1.0000 -0.0000 -0.0000
vn -0.9962 -0.0872 -0.0000
vn 0.9962 0.0872 -0.0000
vn -0.9833 -0.1822 -0.0000
vn 0.9833 0.1822 -0.0000
vn -0.9205 -0.3907 -0.0000
vn 0.9205 0.3907 -0.0000
vt 0.936343 0.899306
vt 0.958333 0.899306
vt 0.931713 0.899306
vt 0.962963 0.899306
vt 0.984954 0.899306
vt 0.958333 0.903935
vt 0.936343 0.903935
vt 0.980324 0.899306
vt 0.980324 0.903935
vt 0.888889 0.900463
vt 0.893519 0.900463
vt 0.871528 0.900463
vt 0.910880 0.900463
vt 0.915509 0.900463
vt 0.893519 0.917824
vt 0.888889 0.917824
vt 0.898148 0.900463
vt 0.898148 0.917824
vt 0.888889 0.875000
vt 0.893519 0.875000
vt 0.871528 0.875000
vt 0.910880 0.875000
vt 0.915509 0.875000
vt 0.893519 0.892361
vt 0.888889 0.892361
vt 0.898148 0.875000
vt 0.898148 0.892361
vt 0.888889 0.850694
vt 0.893519 0.850694
vt 0.871528 0.850694
vt 0.910880 0.850694
vt 0.915509 0.850694
vt 0.893519 0.868056
vt 0.888889 0.868056
vt 0.898148 0.850694
vt 0.898148 0.868056
vt 0.888889 0.826389
vt 0.894676 0.826389
vt 0.871528 0.826389
vt 0.912037 0.826389
vt 0.917824 0.826389
vt 0.894676 0.843750
vt 0.888889 0.843750
vt 0.900463 0.826389
vt 0.900463 0.843750
vt 0.936343 0.912037
vt 0.958333 0.912037
vt 0.931713 0.912037
vt 0.962963 0.912037
vt 0.984954 0.912037
vt 0.958333 0.916667
vt 0.936343 0.916667
vt 0.980324 0.912037
vt 0.980324 0.916667
vt 0.945602 0.940972
vt 0.947917 0.940972
vt 0.934028 0.940972
vt 0.959491 0.940972
vt 0.961806 0.940972
vt 0.947917 0.952546
vt 0.945602 0.952546
vt 0.950231 0.940972
vt 0.950231 0.952546
vt 0.961806 0.942130
vt 0.965278 0.942130
vt 0.950231 0.942130
vt 0.976852 0.942130
vt 0.980324 0.942130
vt 0.965278 0.953704
vt 0.961806 0.953704
vt 0.968750 0.942130
vt 0.968750 0.953704
vt 0.950231 0.930556
vt 0.966435 0.930556
vt 0.939815 0.930556
vt 0.976852 0.930556
vt 0.993056 0.930556
vt 0.966435 0.940972
vt 0.982639 0.930556
vt 0.982639 0.940972
s 1
usemtl m_d66f417c-c71e-1189-400f-200ebb740664
f 76/81/12 79/82/12 77/82/12 74/81/12
f 75/83/12 76/81/12 74/81/12 73/83/12
f 80/84/12 75/85/12 73/85/12 78/84/12
f 79/82/12 80/84/12 78/84/12 77/82/12
f 78/86/13 73/87/13 74/81/13 77/82/13
f 79/88/14 76/82/14 75/86/14 80/89/14
f 84/90/12 87/91/12 85/91/12 82/90/12
f 83/92/12 84/90/12 82/90/12 81/92/12
f 88/93/12 83/94/12 81/94/12 86/93/12
f 87/91/12 88/93/12 86/93/12 85/91/12
f 86/95/15 81/96/15 82/90/15 85/91/15
f 87/97/16 84/91/16 83/95/16 88/98/16
f 92/99/12 95/100/12 93/100/12 90/99/12
f 91/101/12 92/99/12 90/99/12 89/101/12
f 96/102/12 91/103/12 89/103/12 94/102/12
f 95/100/12 96/102/12 94/102/12 93/100/12
f 94/104/17 89/105/17 90/99/17 93/100/17
f 95/106/18 92/100/18 91/104/18 96/107/18
f 100/108/12 103/109/12 101/109/12 98/108/12
f 99/110/12 100/108/12 98/108/12 97/110/12
f 104/111/12 99/112/12 97/112/12 102/111/12
f 103/109/12 104/111/12 102/111/12 101/109/12
f 102/113/19 97/114/19 98/108/19 101/109/19
f 103/115/20 100/109/20 99/113/20 104/116/20
f 108/117/12 111/118/12 109/118/12 106/117/12
f 107/119/12 108/117/12 106/117/12 105/119/12
f 112/120/12 107/121/12 105/121/12 110/120/12
f 111/118/12 112/120/12 110/120/12 109/118/12
f 110/122/21 105/123/21 106/117/21 109/118/21
f 111/124/22 108/118/22 107/122/22 112/125/22
f 116/126/12 119/127/12 117/127/12 114/126/12
f 115/128/12 116/126/12 114/126/12 113/128/12
f 120/129/12 115/130/12 113/130/12 118/129/12
f 119/127/12 120/129/12 118/129/12 117/127/12
f 118/131/13 113/132/13 114/126/13 117/127/13
f 119/133/14 116/127/14 115/131/14 120/134/14
f 124/135/12 127/136/12 125/136/12 122/135/12
f 123/137/12 124/135/12 122/135/12 121/137/12
f 128/138/12 123/139/12 121/139/12 126/138/12
f 127/136/12 128/138/12 126/138/12 125/136/12
f 126/140/13 121/141/13 122/135/13 125/136/13
f 127/142/14 124/136/14 123/140/14 128/143/14
f 132/144/12 135/145/12 133/145/12 130/144/12
f 131/146/12 132/144/12 130/144/12 129/146/12
f 136/147/12 131/148/12 129/148/12 134/147/12
f 135/145/12 136/147/12 134/147/12 133/145/12
f 134/149/13 129/150/13 130/144/13 133/145/13
f 135/151/14 132/145/14 131/149/14 136/152/14
f 140/153/12 143/154/12 141/154/12 138/153/12
f 139/155/12 140/153/12 138/153/12 137/155/12
f 144/156/12 139/157/12 137/157/12 142/156/12
f 143/154/12 144/156/12 142/156/12 141/154/12
f 142/158/13 137/142/13 138/153/13 141/154/13
f 143/159/14 140/154/14 139/158/14 144/160/14
o cube.023
v -1.285943 2.123734 -9.062500
v -1.285943 2.123734 -9.312500
v -1.285943 2.123734 -9.062500
v -1.285943 2.123734 -9.312500
v -1.337741 0.937364 -9.312500
v -1.337741 0.937364 -9.062500
v -1.337741 0.937364 -9.312500
v -1.337741 0.937364 -9.062500
v -1.337682 0.940091 -9.062500
v -1.337682 0.940090 -10.000000
v -1.337682 0.940091 -9.062500
v -1.337682 0.940090 -10.000000
v -1.337682 0.690090 -10.000000
v -1.337682 0.690091 -9.062500
v -1.337682 0.690090 -10.000000
v -1.337682 0.690091 -9.062500
v -1.337920 0.695538 -9.062500
v -1.337920 0.695537 -10.000000
v -1.337920 0.695538 -9.062500
v -1.337920 0.695537 -10.000000
v -1.316131 0.446489 -10.000000
v -1.316131 0.446489 -9.062500
v -1.316131 0.446489 -10.000000
v -1.316131 0.446489 -9.062500
v -1.316939 0.452431 -9.062500
v -1.316939 0.452431 -10.000000
v -1.316939 0.452431 -9.062500
v -1.316939 0.452431 -10.000000
v -1.271381 0.206618 -10.000000
v -1.271381 0.206618 -9.062500
v -1.271381 0.206618 -10.000000
v -1.271381 0.206618 -9.062500
v -1.275302 0.219649 -9.062500
v -1.275302 0.219648 -10.000000
v -1.275302 0.219649 -9.062500
v -1.275302 0.219648 -10.000000
v -1.153199 -0.068009 -10.000000
v -1.153199 -0.068009 -9.062500
v -1.153199 -0.068009 -10.000000
v -1.153199 -0.068009 -9.062500
v -1.285943 2.123734 -9.750000
v -1.285943 2.123734 -10.000000
v -1.285943 2.123734 -9.750000
v -1.285943 2.123734 -10.000000
v -1.337741 0.937364 -10.000000
v -1.337741 0.937364 -9.750000
v -1.337741 0.937364 -10.000000
v -1.337741 0.937364 -9.750000
v -1.332289 1.062245 -9.250000
v -1.332289 1.062245 -9.875000
v -1.332289 1.062245 -9.250000
v -1.332289 1.062245 -9.875000
v -1.337741 0.937364 -9.875000
v -1.337741 0.937364 -9.250000
v -1.337741 0.937364 -9.875000
v -1.337741 0.937364 -9.250000
v -1.285813 2.124686 -9.250000
v -1.285813 2.124686 -9.875000
v -1.285813 2.124686 -9.250000
v -1.285813 2.124686 -9.875000
v -1.293991 1.937364 -9.875000
v -1.293991 1.937364 -9.250000
v -1.293991 1.937364 -9.875000
v -1.293991 1.937364 -9.250000
v -1.294488 1.936591 -9.250000
v -1.294488 1.936591 -9.812500
v -1.294488 1.936591 -9.250000
v -1.294488 1.936591 -9.812500
v -1.332655 1.062424 -9.812500
v -1.332655 1.062424 -9.250000
v -1.332655 1.062424 -9.812500
v -1.332655 1.062424 -9.250000
vn -0.0000 -0.0000 -0.0000
vn -0.9990 0.0436 -0.0000
vn 0.9990 -0.0436 -0.0000
vn -1.0000 -0.0000 -0.0000
vn 1.0000 -0.0000 -0.0000
vn -0.9962 -0.0872 -0.0000
vn 0.9962 0.0872 -0.0000
vn -0.9833 -0.1822 -0.0000
vn 0.9833 0.1822 -0.0000
vn -0.9205 -0.3907 -0.0000
vn 0.9205 0.3907 -0.0000
vt 0.936343 0.899306
vt 0.958333 0.899306
vt 0.931713 0.899306
vt 0.962963 0.899306
vt 0.984954 0.899306
vt 0.958333 0.903935
vt 0.936343 0.903935
vt 0.980324 0.899306
vt 0.980324 0.903935
vt 0.888889 0.900463
vt 0.893519 0.900463
vt 0.871528 0.900463
vt 0.910880 0.900463
vt 0.915509 0.900463
vt 0.893519 0.917824
vt 0.888889 0.917824
vt 0.898148 0.900463
vt 0.898148 0.917824
vt 0.888889 0.875000
vt 0.893519 0.875000
vt 0.871528 0.875000
vt 0.910880 0.875000
vt 0.915509 0.875000
vt 0.893519 0.892361
vt 0.888889 0.892361
vt 0.898148 0.875000
vt 0.898148 0.892361
vt 0.888889 0.850694
vt 0.893519 0.850694
vt 0.871528 0.850694
vt 0.910880 0.850694
vt 0.915509 0.850694
vt 0.893519 0.868056
vt 0.888889 0.868056
vt 0.898148 0.850694
vt 0.898148 0.868056
vt 0.888889 0.826389
vt 0.894676 0.826389
vt 0.871528 0.826389
vt 0.912037 0.826389
vt 0.917824 0.826389
vt 0.894676 0.843750
vt 0.888889 0.843750
vt 0.900463 0.826389
vt 0.900463 0.843750
vt 0.936343 0.912037
vt 0.958333 0.912037
vt 0.931713 0.912037
vt 0.962963 0.912037
vt 0.984954 0.912037
vt 0.958333 0.916667
vt 0.936343 0.916667
vt 0.980324 0.912037
vt 0.980324 0.916667
vt 0.945602 0.940972
vt 0.947917 0.940972
vt 0.934028 0.940972
vt 0.959491 0.940972
vt 0.961806 0.940972
vt 0.947917 0.952546
vt 0.945602 0.952546
vt 0.950231 0.940972
vt 0.950231 0.952546
vt 0.961806 0.942130
vt 0.965278 0.942130
vt 0.950231 0.942130
vt 0.976852 0.942130
vt 0.980324 0.942130
vt 0.965278 0.953704
vt 0.961806 0.953704
vt 0.968750 0.942130
vt 0.968750 0.953704
vt 0.950231 0.930556
vt 0.966435 0.930556
vt 0.939815 0.930556
vt 0.976852 0.930556
vt 0.993056 0.930556
vt 0.966435 0.940972
vt 0.982639 0.930556
vt 0.982639 0.940972
s 1
usemtl m_d66f417c-c71e-1189-400f-200ebb740664
f 148/161/23 151/162/23 149/162/23 146/161/23
f 147/163/23 148/161/23 146/161/23 145/163/23
f 152/164/23 147/165/23 145/165/23 150/164/23
f 151/162/23 152/164/23 150/164/23 149/162/23
f 150/166/24 145/167/24 146/161/24 149/162/24
f 151/168/25 148/162/25 147/166/25 152/169/25
f 156/170/23 159/171/23 157/171/23 154/170/23
f 155/172/23 156/170/23 154/170/23 153/172/23
f 160/173/23 155/174/23 153/174/23 158/173/23
f 159/171/23 160/173/23 158/173/23 157/171/23
f 158/175/26 153/176/26 154/170/26 157/171/26
f 159/177/27 156/171/27 155/175/27 160/178/27
f 164/179/23 167/180/23 165/180/23 162/179/23
f 163/181/23 164/179/23 162/179/23 161/181/23
f 168/182/23 163/183/23 161/183/23 166/182/23
f 167/180/23 168/182/23 166/182/23 165/180/23
f 166/184/28 161/185/28 162/179/28 165/180/28
f 167/186/29 164/180/29 163/184/29 168/187/29
f 172/188/23 175/189/23 173/189/23 170/188/23
f 171/190/23 172/188/23 170/188/23 169/190/23
f 176/191/23 171/192/23 169/192/23 174/191/23
f 175/189/23 176/191/23 174/191/23 173/189/23
f 174/193/30 169/194/30 170/188/30 173/189/30
f 175/195/31 172/189/31 171/193/31 176/196/31
f 180/197/23 183/198/23 181/198/23 178/197/23
f 179/199/23 180/197/23 178/197/23 177/199/23
f 184/200/23 179/201/23 177/201/23 182/200/23
f 183/198/23 184/200/23 182/200/23 181/198/23
f 182/202/32 177/203/32 178/197/32 181/198/32
f 183/204/33 180/198/33 179/202/33 184/205/33
f 188/206/23 191/207/23 189/207/23 186/206/23
f 187/208/23 188/206/23 186/206/23 185/208/23
f 192/209/23 187/210/23 185/210/23 190/209/23
f 191/207/23 192/209/23 190/209/23 189/207/23
f 190/211/24 185/212/24 186/206/24 189/207/24
f 191/213/25 188/207/25 187/211/25 192/214/25
f 196/215/23 199/216/23 197/216/23 194/215/23
f 195/217/23 196/215/23 194/215/23 193/217/23
f 200/218/23 195/219/23 193/219/23 198/218/23
f 199/216/23 200/218/23 198/218/23 197/216/23
f 198/220/24 193/221/24 194/215/24 197/216/24
f 199/222/25 196/216/25 195/220/25 200/223/25
f 204/224/23 207/225/23 205/225/23 202/224/23
f 203/226/23 204/224/23 202/224/23 201/226/23
f 208/227/23 203/228/23 201/228/23 206/227/23
f 207/225/23 208/227/23 206/227/23 205/225/23
f 206/229/24 201/230/24 202/224/24 205/225/24
f 207/231/25 204/225/25 203/229/25 208/232/25
f 212/233/23 215/234/23 213/234/23 210/233/23
f 211/235/23 212/233/23 210/233/23 209/235/23
f 216/236/23 211/237/23 209/237/23 214/236/23
f 215/234/23 216/236/23 214/236/23 213/234/23
f 214/238/24 209/222/24 210/233/24 213/234/24
f 215/239/25 212/234/25 211/238/25 216/240/25
o cube.032
v -1.285943 2.123735 5.937500
v -1.285943 2.123735 5.687500
v -1.285943 2.123735 5.937500
v -1.285943 2.123735 5.687500
v -1.337741 0.937365 5.687500
v -1.337741 0.937365 5.937500
v -1.337741 0.937365 5.687500
v -1.337741 0.937365 5.937500
v -1.337682 0.940092 5.937500
v -1.337682 0.940092 5.000000
v -1.337682 0.940092 5.937500
v -1.337682 0.940092 5.000000
v -1.337682 0.690092 5.000000
v -1.337682 0.690092 5.937500
v -1.337682 0.690092 5.000000
v -1.337682 0.690092 5.937500
v -1.337920 0.695539 5.937500
v -1.337920 0.695539 5.000000
v -1.337920 0.695539 5.937500
v -1.337920 0.695539 5.000000
v -1.316131 0.446490 5.000000
v -1.316131 0.446490 5.937500
v -1.316131 0.446490 5.000000
v -1.316131 0.446490 5.937500
v -1.316939 0.452433 5.937500
v -1.316939 0.452432 5.000000
v -1.316939 0.452433 5.937500
v -1.316939 0.452432 5.000000
v -1.271381 0.206619 5.000000
v -1.271381 0.206619 5.937500
v -1.271381 0.206619 5.000000
v -1.271381 0.206619 5.937500
v -1.275302 0.219650 5.937500
v -1.275302 0.219650 5.000000
v -1.275302 0.219650 5.937500
v -1.275302 0.219650 5.000000
v -1.153199 -0.068008 5.000000
v -1.153199 -0.068008 5.937500
v -1.153199 -0.068008 5.000000
v -1.153199 -0.068008 5.937500
v -1.285943 2.123735 5.250000
v -1.285943 2.123735 5.000000
v -1.285943 2.123735 5.250000
v -1.285943 2.123735 5.000000
v -1.337741 0.937365 5.000000
v -1.337741 0.937365 5.250000
v -1.337741 0.937365 5.000000
v -1.337741 0.937365 5.250000
v -1.332289 1.062246 5.750000
v -1.332289 1.062246 5.125000
v -1.332289 1.062246 5.750000
v -1.332289 1.062246 5.125000
v -1.337741 0.937365 5.125000
v -1.337741 0.937365 5.750000
v -1.337741 0.937365 5.125000
v -1.337741 0.937365 5.750000
v -1.285813 2.124687 5.750000
v -1.285813 2.124687 5.125000
v -1.285813 2.124687 5.750000
v -1.285813 2.124687 5.125000
v -1.293991 1.937365 5.125000
v -1.293991 1.937365 5.750000
v -1.293991 1.937365 5.125000
v -1.293991 1.937365 5.750000
v -1.294488 1.936592 5.750000
v -1.294488 1.936592 5.187500
v -1.294488 1.936592 5.750000
v -1.294488 1.936592 5.187500
v -1.332655 1.062425 5.187500
v -1.332655 1.062425 5.750000
v -1.332655 1.062425 5.187500
v -1.332655 1.062425 5.750000
vn -0.0000 -0.0000 -0.0000
vn -0.9990 0.0436 -0.0000
vn 0.9990 -0.0436 -0.0000
vn -1.0000 -0.0000 -0.0000
vn 1.0000 -0.0000 -0.0000
vn -0.9962 -0.0872 -0.0000
vn 0.9962 0.0872 -0.0000
vn -0.9833 -0.1822 -0.0000
vn 0.9833 0.1822 -0.0000
vn -0.9205 -0.3907 -0.0000
vn 0.9205 0.3907 -0.0000
vt 0.936343 0.899306
vt 0.958333 0.899306
vt 0.931713 0.899306
vt 0.962963 0.899306
vt 0.984954 0.899306
vt 0.958333 0.903935
vt 0.936343 0.903935
vt 0.980324 0.899306
vt 0.980324 0.903935
vt 0.888889 0.900463
vt 0.893519 0.900463
vt 0.871528 0.900463
vt 0.910880 0.900463
vt 0.915509 0.900463
vt 0.893519 0.917824
vt 0.888889 0.917824
vt 0.898148 0.900463
vt 0.898148 0.917824
vt 0.888889 0.875000
vt 0.893519 0.875000
vt 0.871528 0.875000
vt 0.910880 0.875000
vt 0.915509 0.875000
vt 0.893519 0.892361
vt 0.888889 0.892361
vt 0.898148 0.875000
vt 0.898148 0.892361
vt 0.888889 0.850694
vt 0.893519 0.850694
vt 0.871528 0.850694
vt 0.910880 0.850694
vt 0.915509 0.850694
vt 0.893519 0.868056
vt 0.888889 0.868056
vt 0.898148 0.850694
vt 0.898148 0.868056
vt 0.888889 0.826389
vt 0.894676 0.826389
vt 0.871528 0.826389
vt 0.912037 0.826389
vt 0.917824 0.826389
vt 0.894676 0.843750
vt 0.888889 0.843750
vt 0.900463 0.826389
vt 0.900463 0.843750
vt 0.936343 0.912037
vt 0.958333 0.912037
vt 0.931713 0.912037
vt 0.962963 0.912037
vt 0.984954 0.912037
vt 0.958333 0.916667
vt 0.936343 0.916667
vt 0.980324 0.912037
vt 0.980324 0.916667
vt 0.945602 0.940972
vt 0.947917 0.940972
vt 0.934028 0.940972
vt 0.959491 0.940972
vt 0.961806 0.940972
vt 0.947917 0.952546
vt 0.945602 0.952546
vt 0.950231 0.940972
vt 0.950231 0.952546
vt 0.961806 0.942130
vt 0.965278 0.942130
vt 0.950231 0.942130
vt 0.976852 0.942130
vt 0.980324 0.942130
vt 0.965278 0.953704
vt 0.961806 0.953704
vt 0.968750 0.942130
vt 0.968750 0.953704
vt 0.950231 0.930556
vt 0.966435 0.930556
vt 0.939815 0.930556
vt 0.976852 0.930556
vt 0.993056 0.930556
vt 0.966435 0.940972
vt 0.982639 0.930556
vt 0.982639 0.940972
s 1
usemtl m_d66f417c-c71e-1189-400f-200ebb740664
f 220/241/34 223/242/34 221/242/34 218/241/34
f 219/243/34 220/241/34 218/241/34 217/243/34
f 224/244/34 219/245/34 217/245/34 222/244/34
f 223/242/34 224/244/34 222/244/34 221/242/34
f 222/246/35 217/247/35 218/241/35 221/242/35
f 223/248/36 220/242/36 219/246/36 224/249/36
f 228/250/34 231/251/34 229/251/34 226/250/34
f 227/252/34 228/250/34 226/250/34 225/252/34
f 232/253/34 227/254/34 225/254/34 230/253/34
f 231/251/34 232/253/34 230/253/34 229/251/34
f 230/255/37 225/256/37 226/250/37 229/251/37
f 231/257/38 228/251/38 227/255/38 232/258/38
f 236/259/34 239/260/34 237/260/34 234/259/34
f 235/261/34 236/259/34 234/259/34 233/261/34
f 240/262/34 235/263/34 233/263/34 238/262/34
f 239/260/34 240/262/34 238/262/34 237/260/34
f 238/264/39 233/265/39 234/259/39 237/260/39
f 239/266/40 236/260/40 235/264/40 240/267/40
f 244/268/34 247/269/34 245/269/34 242/268/34
f 243/270/34 244/268/34 242/268/34 241/270/34
f 248/271/34 243/272/34 241/272/34 246/271/34
f 247/269/34 248/271/34 246/271/34 245/269/34
f 246/273/41 241/274/41 242/268/41 245/269/41
f 247/275/42 244/269/42 243/273/42 248/276/42
f 252/277/34 255/278/34 253/278/34 250/277/34
f 251/279/34 252/277/34 250/277/34 249/279/34
f 256/280/34 251/281/34 249/281/34 254/280/34
f 255/278/34 256/280/34 254/280/34 253/278/34
f 254/282/43 249/283/43 250/277/43 253/278/43
f 255/284/44 252/278/44 251/282/44 256/285/44
f 260/286/34 263/287/34 261/287/34 258/286/34
f 259/288/34 260/286/34 258/286/34 257/288/34
f 264/289/34 259/290/34 257/290/34 262/289/34
f 263/287/34 264/289/34 262/289/34 261/287/34
f 262/291/35 257/292/35 258/286/35 261/287/35
f 263/293/36 260/287/36 259/291/36 264/294/36
f 268/295/34 271/296/34 269/296/34 266/295/34
f 267/297/34 268/295/34 266/295/34 265/297/34
f 272/298/34 267/299/34 265/299/34 270/298/34
f 271/296/34 272/298/34 270/298/34 269/296/34
f 270/300/35 265/301/35 266/295/35 269/296/35
f 271/302/36 268/296/36 267/300/36 272/303/36
f 276/304/34 279/305/34 277/305/34 274/304/34
f 275/306/34 276/304/34 274/304/34 273/306/34
f 280/307/34 275/308/34 273/308/34 278/307/34
f 279/305/34 280/307/34 278/307/34 277/305/34
f 278/309/35 273/310/35 274/304/35 277/305/35
f 279/311/36 276/305/36 275/309/36 280/312/36
f 284/313/34 287/314/34 285/314/34 282/313/34
f 283/315/34 284/313/34 282/313/34 281/315/34
f 288/316/34 283/317/34 281/317/34 286/316/34
f 287/314/34 288/316/34 286/316/34 285/314/34
f 286/318/35 281/302/35 282/313/35 285/314/35
f 287/319/36 284/314/36 283/318/36 288/320/36
o cube.043
v -1.285813 2.124687 10.750000
v -1.285813 2.124687 10.125000
v -1.285813 2.124687 10.750000
v -1.285813 2.124687 10.125000
v -1.293991 1.937366 10.125000
v -1.293991 1.937366 10.750000
v -1.293991 1.937366 10.125000
v -1.293991 1.937366 10.750000
v -1.337682 0.940092 10.937500
v -1.337682 0.940092 10.000000
v -1.337682 0.940092 10.937500
v -1.337682 0.940092 10.000000
v -1.337682 0.690092 10.000000
v -1.337682 0.690092 10.937500
v -1.337682 0.690092 10.000000
v -1.337682 0.690092 10.937500
v -1.337920 0.695539 10.937500
v -1.337920 0.695539 10.000000
v -1.337920 0.695539 10.937500
v -1.337920 0.695539 10.000000
v -1.316131 0.446490 10.000000
v -1.316131 0.446490 10.937500
v -1.316131 0.446490 10.000000
v -1.316131 0.446490 10.937500
v -1.316939 0.452433 10.937500
v -1.316939 0.452433 10.000000
v -1.316939 0.452433 10.937500
v -1.316939 0.452433 10.000000
v -1.271381 0.206619 10.000000
v -1.271381 0.206619 10.937500
v -1.271381 0.206619 10.000000
v -1.271381 0.206619 10.937500
v -1.275302 0.219650 10.937500
v -1.275302 0.219650 10.000000
v -1.275302 0.219650 10.937500
v -1.275302 0.219650 10.000000
v -1.153199 -0.068008 10.000000
v -1.153199 -0.068008 10.937500
v -1.153199 -0.068008 10.000000
v -1.153199 -0.068008 10.937500
v -1.285943 2.123735 10.250000
v -1.285943 2.123735 10.000000
v -1.285943 2.123735 10.250000
v -1.285943 2.123735 10.000000
v -1.337741 0.937366 10.000000
v -1.337741 0.937366 10.250000
v -1.337741 0.937366 10.000000
v -1.337741 0.937366 10.250000
v -1.285943 2.123735 10.937500
v -1.285943 2.123735 10.687500
v -1.285943 2.123735 10.937500
v -1.285943 2.123735 10.687500
v -1.337741 0.937366 10.687500
v -1.337741 0.937366 10.937500
v -1.337741 0.937366 10.687500
v -1.337741 0.937366 10.937500
v -1.332289 1.062247 10.750000
v -1.332289 1.062247 10.125000
v -1.332289 1.062247 10.750000
v -1.332289 1.062247 10.125000
v -1.337741 0.937366 10.125000
v -1.337741 0.937366 10.750000
v -1.337741 0.937366 10.125000
v -1.337741 0.937366 10.750000
v -1.294488 1.936592 10.750000
v -1.294488 1.936592 10.187500
v -1.294488 1.936592 10.750000
v -1.294488 1.936592 10.187500
v -1.332655 1.062425 10.187500
v -1.332655 1.062425 10.750000
v -1.332655 1.062425 10.187500
v -1.332655 1.062425 10.750000
vn -0.0000 -0.0000 -0.0000
vn -0.9990 0.0436 -0.0000
vn 0.9990 -0.0436 -0.0000
vn -1.0000 -0.0000 -0.0000
vn 1.0000 -0.0000 -0.0000
vn -0.9962 -0.0872 -0.0000
vn 0.9962 0.0872 -0.0000
vn -0.9833 -0.1822 -0.0000
vn 0.9833 0.1822 -0.0000
vn -0.9205 -0.3907 -0.0000
vn 0.9205 0.3907 -0.0000
vt 0.961806 0.942130
vt 0.965278 0.942130
vt 0.950231 0.942130
vt 0.976852 0.942130
vt 0.980324 0.942130
vt 0.965278 0.953704
vt 0.961806 0.953704
vt 0.968750 0.942130
vt 0.968750 0.953704
vt 0.888889 0.900463
vt 0.893519 0.900463
vt 0.871528 0.900463
vt 0.910880 0.900463
vt 0.915509 0.900463
vt 0.893519 0.917824
vt 0.888889 0.917824
vt 0.898148 0.900463
vt 0.898148 0.917824
vt 0.888889 0.875000
vt 0.893519 0.875000
vt 0.871528 0.875000
vt 0.910880 0.875000
vt 0.915509 0.875000
vt 0.893519 0.892361
vt 0.888889 0.892361
vt 0.898148 0.875000
vt 0.898148 0.892361
vt 0.888889 0.850694
vt 0.893519 0.850694
vt 0.871528 0.850694
vt 0.910880 0.850694
vt 0.915509 0.850694
vt 0.893519 0.868056
vt 0.888889 0.868056
vt 0.898148 0.850694
vt 0.898148 0.868056
vt 0.888889 0.826389
vt 0.894676 0.826389
vt 0.871528 0.826389
vt 0.912037 0.826389
vt 0.917824 0.826389
vt 0.894676 0.843750
vt 0.888889 0.843750
vt 0.900463 0.826389
vt 0.900463 0.843750
vt 0.936343 0.912037
vt 0.958333 0.912037
vt 0.931713 0.912037
vt 0.962963 0.912037
vt 0.984954 0.912037
vt 0.958333 0.916667
vt 0.936343 0.916667
vt 0.980324 0.912037
vt 0.980324 0.916667
vt 0.936343 0.899306
vt 0.958333 0.899306
vt 0.931713 0.899306
vt 0.962963 0.899306
vt 0.984954 0.899306
vt 0.958333 0.903935
vt 0.936343 0.903935
vt 0.980324 0.899306
vt 0.980324 0.903935
vt 0.945602 0.940972
vt 0.947917 0.940972
vt 0.934028 0.940972
vt 0.959491 0.940972
vt 0.961806 0.940972
vt 0.947917 0.952546
vt 0.945602 0.952546
vt 0.950231 0.940972
vt 0.950231 0.952546
vt 0.950231 0.930556
vt 0.966435 0.930556
vt 0.939815 0.930556
vt 0.976852 0.930556
vt 0.993056 0.930556
vt 0.966435 0.940972
vt 0.982639 0.930556
vt 0.982639 0.940972
s 1
usemtl m_d66f417c-c71e-1189-400f-200ebb740664
f 292/321/45 295/322/45 293/322/45 290/321/45
f 291/323/45 292/321/45 290/321/45 289/323/45
f 296/324/45 291/325/45 289/325/45 294/324/45
f 295/322/45 296/324/45 294/324/45 293/322/45
f 294/326/46 289/327/46 290/321/46 293/322/46
f 295/328/47 292/322/47 291/326/47 296/329/47
f 300/330/45 303/331/45 301/331/45 298/330/45
f 299/332/45 300/330/45 298/330/45 297/332/45
f 304/333/45 299/334/45 297/334/45 302/333/45
f 303/331/45 304/333/45 302/333/45 301/331/45
f 302/335/48 297/336/48 298/330/48 301/331/48
f 303/337/49 300/331/49 299/335/49 304/338/49
f 308/339/45 311/340/45 309/340/45 306/339/45
f 307/341/45 308/339/45 306/339/45 305/341/45
f 312/342/45 307/343/45 305/343/45 310/342/45
f 311/340/45 312/342/45 310/342/45 309/340/45
f 310/344/50 305/345/50 306/339/50 309/340/50
f 311/346/51 308/340/51 307/344/51 312/347/51
f 316/348/45 319/349/45 317/349/45 314/348/45
f 315/350/45 316/348/45 314/348/45 313/350/45
f 320/351/45 315/352/45 313/352/45 318/351/45
f 319/349/45 320/351/45 318/351/45 317/349/45
f 318/353/52 313/354/52 314/348/52 317/349/52
f 319/355/53 316/349/53 315/353/53 320/356/53
f 324/357/45 327/358/45 325/358/45 322/357/45
f 323/359/45 324/357/45 322/357/45 321/359/45
f 328/360/45 323/361/45 321/361/45 326/360/45
f 327/358/45 328/360/45 326/360/45 325/358/45
f 326/362/54 321/363/54 322/357/54 325/358/54
f 327/364/55 324/358/55 323/362/55 328/365/55
f 332/366/45 335/367/45 333/367/45 330/366/45
f 331/368/45 332/366/45 330/366/45 329/368/45
f 336/369/45 331/370/45 329/370/45 334/369/45
f 335/367/45 336/369/45 334/369/45 333/367/45
f 334/371/46 329/372/46 330/366/46 333/367/46
f 335/373/47 332/367/47 331/371/47 336/374/47
f 340/375/45 343/376/45 341/376/45 338/375/45
f 339/377/45 340/375/45 338/375/45 337/377/45
f 344/378/45 339/379/45 337/379/45 342/378/45
f 343/376/45 344/378/45 342/378/45 341/376/45
f 342/380/46 337/381/46 338/375/46 341/376/46
f 343/382/47 340/376/47 339/380/47 344/383/47
f 348/384/45 351/385/45 349/385/45 346/384/45
f 347/386/45 348/384/45 346/384/45 345/386/45
f 352/387/45 347/388/45 345/388/45 350/387/45
f 351/385/45 352/387/45 350/387/45 349/385/45
f 350/389/46 345/390/46 346/384/46 349/385/46
f 351/391/47 348/385/47 347/389/47 352/392/47
f 356/393/45 359/394/45 357/394/45 354/393/45
f 355/395/45 356/393/45 354/393/45 353/395/45
f 360/396/45 355/397/45 353/397/45 358/396/45
f 359/394/45 360/396/45 358/396/45 357/394/45
f 358/398/46 353/391/46 354/393/46 357/394/46
f 359/399/47 356/394/47 355/398/47 360/400/47
