# Blender 4.3.2
# www.blender.org
mtllib door_right_in.mtl
o cube.008
v -1.294488 1.936592 -0.187500
v -1.294488 1.936592 -0.687500
v -1.294488 1.936592 -0.187500
v -1.294488 1.936592 -0.687500
v -1.332655 1.062424 -0.687500
v -1.332655 1.062424 -0.187500
v -1.332655 1.062424 -0.687500
v -1.332655 1.062424 -0.187500
v -1.337682 0.940091 -0.000000
v -1.337682 0.940091 -0.875000
v -1.337682 0.940091 -0.000000
v -1.337682 0.940091 -0.875000
v -1.337682 0.690091 -0.875000
v -1.337682 0.690091 -0.000000
v -1.337682 0.690091 -0.875000
v -1.337682 0.690091 -0.000000
v -1.337920 0.695538 -0.000000
v -1.337920 0.695538 -0.875000
v -1.337920 0.695538 -0.000000
v -1.337920 0.695538 -0.875000
v -1.316131 0.446489 -0.875000
v -1.316131 0.446489 -0.000000
v -1.316131 0.446489 -0.875000
v -1.316131 0.446489 -0.000000
v -1.316939 0.452432 -0.000000
v -1.316939 0.452432 -0.875000
v -1.316939 0.452432 -0.000000
v -1.316939 0.452432 -0.875000
v -1.271381 0.206618 -0.875000
v -1.271381 0.206618 -0.000000
v -1.271381 0.206618 -0.875000
v -1.271381 0.206618 -0.000000
v -1.275302 0.219649 -0.000000
v -1.275302 0.219649 -0.875000
v -1.275302 0.219649 -0.000000
v -1.275302 0.219649 -0.875000
v -1.153199 -0.068009 -0.875000
v -1.153199 -0.068009 0.000000
v -1.153199 -0.068009 -0.875000
v -1.153199 -0.068009 0.000000
v -1.285943 2.123735 -0.687500
v -1.285943 2.123735 -0.875000
v -1.285943 2.123735 -0.687500
v -1.285943 2.123735 -0.875000
v -1.337741 0.937365 -0.875000
v -1.337741 0.937365 -0.687500
v -1.337741 0.937365 -0.875000
v -1.337741 0.937365 -0.687500
v -1.332289 1.062246 -0.125000
v -1.332289 1.062246 -0.687500
v -1.332289 1.062246 -0.125000
v -1.332289 1.062246 -0.687500
v -1.337741 0.937365 -0.687500
v -1.337741 0.937365 -0.125000
v -1.337741 0.937365 -0.687500
v -1.337741 0.937365 -0.125000
v -1.285943 2.123735 -0.000000
v -1.285943 2.123735 -0.187500
v -1.285943 2.123735 -0.000000
v -1.285943 2.123735 -0.187500
v -1.337741 0.937365 -0.187500
v -1.337741 0.937365 -0.000000
v -1.337741 0.937365 -0.187500
v -1.337741 0.937365 -0.000000
v -1.285813 2.124686 -0.125000
v -1.285813 2.124686 -0.687500
v -1.285813 2.124686 -0.125000
v -1.285813 2.124686 -0.687500
v -1.293991 1.937365 -0.687500
v -1.293991 1.937365 -0.125000
v -1.293991 1.937365 -0.687500
v -1.293991 1.937365 -0.125000
vn -0.0000 -0.0000 1.0000
vn -0.0000 -0.0000 -0.0000
vn -0.9990 0.0436 -0.0000
vn 0.9990 -0.0436 -0.0000
vn -1.0000 -0.0000 -0.0000
vn 1.0000 -0.0000 -0.0000
vn -0.9962 -0.0872 -0.0000
vn 0.9962 0.0872 -0.0000
vn -0.9833 -0.1822 -0.0000
vn 0.9833 0.1822 -0.0000
vn -0.9205 -0.3907 -0.0000
vn 0.9205 0.3907 -0.0000
vt 0.966435 0.930556
vt 0.950231 0.930556
vt 0.975694 0.930556
vt 0.991898 0.930556
vt 0.940972 0.930556
vt 0.950231 0.939815
vt 0.966435 0.939815
vt 0.982639 0.930556
vt 0.982639 0.939815
vt 0.899306 0.900463
vt 0.903935 0.900463
vt 0.883102 0.900463
vt 0.920139 0.900463
vt 0.924769 0.900463
vt 0.903935 0.916667
vt 0.899306 0.916667
vt 0.908565 0.900463
vt 0.908565 0.916667
vt 0.899306 0.875000
vt 0.903935 0.875000
vt 0.883102 0.875000
vt 0.920139 0.875000
vt 0.924769 0.875000
vt 0.903935 0.891204
vt 0.899306 0.891204
vt 0.908565 0.875000
vt 0.908565 0.891204
vt 0.899306 0.850694
vt 0.903935 0.850694
vt 0.883102 0.850694
vt 0.920139 0.850694
vt 0.924769 0.850694
vt 0.903935 0.866898
vt 0.899306 0.866898
vt 0.908565 0.850694
vt 0.908565 0.866898
vt 0.907407 0.826389
vt 0.913194 0.826389
vt 0.891204 0.826389
vt 0.929398 0.826389
vt 0.935185 0.826389
vt 0.913194 0.842593
vt 0.907407 0.842593
vt 0.918981 0.826389
vt 0.918981 0.842593
vt 0.936343 0.903935
vt 0.958333 0.903935
vt 0.932870 0.903935
vt 0.961806 0.903935
vt 0.983796 0.903935
vt 0.958333 0.907407
vt 0.936343 0.907407
vt 0.980324 0.903935
vt 0.980324 0.907407
vt 0.961806 0.980324
vt 0.964120 0.980324
vt 0.951389 0.980324
vt 0.974537 0.980324
vt 0.976852 0.980324
vt 0.964120 0.990741
vt 0.961806 0.990741
vt 0.966435 0.980324
vt 0.966435 0.990741
vt 0.936343 0.916667
vt 0.958333 0.916667
vt 0.932870 0.916667
vt 0.961806 0.916667
vt 0.983796 0.916667
vt 0.958333 0.920139
vt 0.936343 0.920139
vt 0.980324 0.916667
vt 0.980324 0.920139
vt 0.976852 0.978009
vt 0.980324 0.978009
vt 0.966435 0.978009
vt 0.990741 0.978009
vt 0.994213 0.978009
vt 0.980324 0.988426
vt 0.976852 0.988426
vt 0.983796 0.978009
vt 0.983796 0.988426
s 0
usemtl m_d66f417c-c71e-1189-400f-200ebb740664
f 4/1/1 7/2/1 5/2/1 2/1/1
f 3/3/2 4/1/2 2/1/2 1/3/2
f 8/4/1 3/3/1 1/3/1 6/4/1
f 7/2/2 8/5/2 6/5/2 5/2/2
f 6/6/3 1/7/3 2/1/3 5/2/3
f 7/1/4 4/8/4 3/9/4 8/7/4
f 12/10/1 15/11/1 13/11/1 10/10/1
f 11/12/2 12/10/2 10/10/2 9/12/2
f 16/13/1 11/14/1 9/14/1 14/13/1
f 15/11/2 16/13/2 14/13/2 13/11/2
f 14/15/5 9/16/5 10/10/5 13/11/5
f 15/17/6 12/11/6 11/15/6 16/18/6
f 20/19/1 23/20/1 21/20/1 18/19/1
f 19/21/2 20/19/2 18/19/2 17/21/2
f 24/22/1 19/23/1 17/23/1 22/22/1
f 23/20/2 24/22/2 22/22/2 21/20/2
f 22/24/7 17/25/7 18/19/7 21/20/7
f 23/26/8 20/20/8 19/24/8 24/27/8
f 28/28/1 31/29/1 29/29/1 26/28/1
f 27/30/2 28/28/2 26/28/2 25/30/2
f 32/31/1 27/32/1 25/32/1 30/31/1
f 31/29/2 32/31/2 30/31/2 29/29/2
f 30/33/9 25/34/9 26/28/9 29/29/9
f 31/35/10 28/29/10 27/33/10 32/36/10
f 36/37/1 39/38/1 37/38/1 34/37/1
f 35/39/2 36/37/2 34/37/2 33/39/2
f 40/40/1 35/41/1 33/41/1 38/40/1
f 39/38/2 40/40/2 38/40/2 37/38/2
f 38/42/11 33/43/11 34/37/11 37/38/11
f 39/44/12 36/38/12 35/42/12 40/45/12
f 44/46/1 47/47/1 45/47/1 42/46/1
f 43/48/2 44/46/2 42/46/2 41/48/2
f 48/49/1 43/50/1 41/50/1 46/49/1
f 47/47/2 48/49/2 46/49/2 45/47/2
f 46/51/3 41/52/3 42/46/3 45/47/3
f 47/53/4 44/47/4 43/51/4 48/54/4
f 52/55/1 55/56/1 53/56/1 50/55/1
f 51/57/2 52/55/2 50/55/2 49/57/2
f 56/58/1 51/59/1 49/59/1 54/58/1
f 55/56/2 56/58/2 54/58/2 53/56/2
f 54/60/3 49/61/3 50/55/3 53/56/3
f 55/62/4 52/56/4 51/60/4 56/63/4
f 60/64/1 63/65/1 61/65/1 58/64/1
f 59/66/2 60/64/2 58/64/2 57/66/2
f 64/67/1 59/68/1 57/68/1 62/67/1
f 63/65/2 64/67/2 62/67/2 61/65/2
f 62/69/3 57/70/3 58/64/3 61/65/3
f 63/71/4 60/65/4 59/69/4 64/72/4
f 68/73/1 71/74/1 69/74/1 66/73/1
f 67/75/2 68/73/2 66/73/2 65/75/2
f 72/76/1 67/77/1 65/77/1 70/76/1
f 71/74/2 72/76/2 70/76/2 69/74/2
f 70/78/3 65/79/3 66/73/3 69/74/3
f 71/80/4 68/74/4 67/78/4 72/81/4
o cube.017
v -1.294488 1.936591 -5.187500
v -1.294488 1.936591 -5.687500
v -1.294488 1.936591 -5.187500
v -1.294488 1.936591 -5.687500
v -1.332655 1.062424 -5.687500
v -1.332655 1.062424 -5.187500
v -1.332655 1.062424 -5.687500
v -1.332655 1.062424 -5.187500
v -1.337682 0.940091 -5.000000
v -1.337682 0.940091 -5.875000
v -1.337682 0.940091 -5.000000
v -1.337682 0.940091 -5.875000
v -1.337682 0.690091 -5.875000
v -1.337682 0.690091 -5.000000
v -1.337682 0.690091 -5.875000
v -1.337682 0.690091 -5.000000
v -1.337920 0.695538 -5.000000
v -1.337920 0.695538 -5.875000
v -1.337920 0.695538 -5.000000
v -1.337920 0.695538 -5.875000
v -1.316131 0.446489 -5.875000
v -1.316131 0.446489 -5.000000
v -1.316131 0.446489 -5.875000
v -1.316131 0.446489 -5.000000
v -1.316939 0.452432 -5.000000
v -1.316939 0.452432 -5.875000
v -1.316939 0.452432 -5.000000
v -1.316939 0.452432 -5.875000
v -1.271381 0.206618 -5.875000
v -1.271381 0.206618 -5.000000
v -1.271381 0.206618 -5.875000
v -1.271381 0.206618 -5.000000
v -1.275302 0.219649 -5.000000
v -1.275302 0.219649 -5.875000
v -1.275302 0.219649 -5.000000
v -1.275302 0.219649 -5.875000
v -1.153199 -0.068009 -5.875000
v -1.153199 -0.068009 -5.000000
v -1.153199 -0.068009 -5.875000
v -1.153199 -0.068009 -5.000000
v -1.285943 2.123734 -5.687500
v -1.285943 2.123734 -5.875000
v -1.285943 2.123734 -5.687500
v -1.285943 2.123734 -5.875000
v -1.337741 0.937365 -5.875000
v -1.337741 0.937365 -5.687500
v -1.337741 0.937365 -5.875000
v -1.337741 0.937365 -5.687500
v -1.332289 1.062246 -5.125000
v -1.332289 1.062245 -5.687500
v -1.332289 1.062246 -5.125000
v -1.332289 1.062245 -5.687500
v -1.337741 0.937365 -5.687500
v -1.337741 0.937365 -5.125000
v -1.337741 0.937365 -5.687500
v -1.337741 0.937365 -5.125000
v -1.285943 2.123734 -5.000000
v -1.285943 2.123734 -5.187500
v -1.285943 2.123734 -5.000000
v -1.285943 2.123734 -5.187500
v -1.337741 0.937365 -5.187500
v -1.337741 0.937365 -5.000000
v -1.337741 0.937365 -5.187500
v -1.337741 0.937365 -5.000000
v -1.285813 2.124686 -5.125000
v -1.285813 2.124686 -5.687500
v -1.285813 2.124686 -5.125000
v -1.285813 2.124686 -5.687500
v -1.293991 1.937364 -5.687500
v -1.293991 1.937365 -5.125000
v -1.293991 1.937364 -5.687500
v -1.293991 1.937365 -5.125000
vn -0.0000 -0.0000 1.0000
vn -0.0000 -0.0000 -0.0000
vn -0.9990 0.0436 -0.0000
vn 0.9990 -0.0436 -0.0000
vn -1.0000 -0.0000 -0.0000
vn 1.0000 -0.0000 -0.0000
vn -0.9962 -0.0872 -0.0000
vn 0.9962 0.0872 -0.0000
vn -0.9833 -0.1822 -0.0000
vn 0.9833 0.1822 -0.0000
vn -0.9205 -0.3907 -0.0000
vn 0.9205 0.3907 -0.0000
vt 0.950231 0.930556
vt 0.966435 0.930556
vt 0.940972 0.930556
vt 0.975694 0.930556
vt 0.991898 0.930556
vt 0.966435 0.939815
vt 0.950231 0.939815
vt 0.982639 0.930556
vt 0.982639 0.939815
vt 0.899306 0.900463
vt 0.903935 0.900463
vt 0.883102 0.900463
vt 0.920139 0.900463
vt 0.924769 0.900463
vt 0.903935 0.916667
vt 0.899306 0.916667
vt 0.908565 0.900463
vt 0.908565 0.916667
vt 0.899306 0.875000
vt 0.903935 0.875000
vt 0.883102 0.875000
vt 0.920139 0.875000
vt 0.924769 0.875000
vt 0.903935 0.891204
vt 0.899306 0.891204
vt 0.908565 0.875000
vt 0.908565 0.891204
vt 0.899306 0.850694
vt 0.903935 0.850694
vt 0.883102 0.850694
vt 0.920139 0.850694
vt 0.924769 0.850694
vt 0.903935 0.866898
vt 0.899306 0.866898
vt 0.908565 0.850694
vt 0.908565 0.866898
vt 0.907407 0.826389
vt 0.913194 0.826389
vt 0.891204 0.826389
vt 0.929398 0.826389
vt 0.935185 0.826389
vt 0.913194 0.842593
vt 0.907407 0.842593
vt 0.918981 0.826389
vt 0.918981 0.842593
vt 0.936343 0.903935
vt 0.958333 0.903935
vt 0.932870 0.903935
vt 0.961806 0.903935
vt 0.983796 0.903935
vt 0.958333 0.907407
vt 0.936343 0.907407
vt 0.980324 0.903935
vt 0.980324 0.907407
vt 0.961806 0.980324
vt 0.964120 0.980324
vt 0.951389 0.980324
vt 0.974537 0.980324
vt 0.976852 0.980324
vt 0.964120 0.990741
vt 0.961806 0.990741
vt 0.966435 0.980324
vt 0.966435 0.990741
vt 0.936343 0.916667
vt 0.958333 0.916667
vt 0.932870 0.916667
vt 0.961806 0.916667
vt 0.983796 0.916667
vt 0.958333 0.920139
vt 0.936343 0.920139
vt 0.980324 0.916667
vt 0.980324 0.920139
vt 0.976852 0.978009
vt 0.980324 0.978009
vt 0.966435 0.978009
vt 0.990741 0.978009
vt 0.994213 0.978009
vt 0.980324 0.988426
vt 0.976852 0.988426
vt 0.983796 0.978009
vt 0.983796 0.988426
s 0
usemtl m_d66f417c-c71e-1189-400f-200ebb740664
f 76/82/13 79/83/13 77/83/13 74/82/13
f 75/84/14 76/82/14 74/82/14 73/84/14
f 80/85/13 75/86/13 73/86/13 78/85/13
f 79/83/14 80/85/14 78/85/14 77/83/14
f 78/87/15 73/88/15 74/82/15 77/83/15
f 79/89/16 76/83/16 75/87/16 80/90/16
f 84/91/13 87/92/13 85/92/13 82/91/13
f 83/93/14 84/91/14 82/91/14 81/93/14
f 88/94/13 83/95/13 81/95/13 86/94/13
f 87/92/14 88/94/14 86/94/14 85/92/14
f 86/96/17 81/97/17 82/91/17 85/92/17
f 87/98/18 84/92/18 83/96/18 88/99/18
f 92/100/13 95/101/13 93/101/13 90/100/13
f 91/102/14 92/100/14 90/100/14 89/102/14
f 96/103/13 91/104/13 89/104/13 94/103/13
f 95/101/14 96/103/14 94/103/14 93/101/14
f 94/105/19 89/106/19 90/100/19 93/101/19
f 95/107/20 92/101/20 91/105/20 96/108/20
f 100/109/13 103/110/13 101/110/13 98/109/13
f 99/111/14 100/109/14 98/109/14 97/111/14
f 104/112/13 99/113/13 97/113/13 102/112/13
f 103/110/14 104/112/14 102/112/14 101/110/14
f 102/114/21 97/115/21 98/109/21 101/110/21
f 103/116/22 100/110/22 99/114/22 104/117/22
f 108/118/13 111/119/13 109/119/13 106/118/13
f 107/120/14 108/118/14 106/118/14 105/120/14
f 112/121/13 107/122/13 105/122/13 110/121/13
f 111/119/14 112/121/14 110/121/14 109/119/14
f 110/123/23 105/124/23 106/118/23 109/119/23
f 111/125/24 108/119/24 107/123/24 112/126/24
f 116/127/13 119/128/13 117/128/13 114/127/13
f 115/129/14 116/127/14 114/127/14 113/129/14
f 120/130/13 115/131/13 113/131/13 118/130/13
f 119/128/14 120/130/14 118/130/14 117/128/14
f 118/132/15 113/133/15 114/127/15 117/128/15
f 119/134/16 116/128/16 115/132/16 120/135/16
f 124/136/13 127/137/13 125/137/13 122/136/13
f 123/138/14 124/136/14 122/136/14 121/138/14
f 128/139/13 123/140/13 121/140/13 126/139/13
f 127/137/14 128/139/14 126/139/14 125/137/14
f 126/141/15 121/142/15 122/136/15 125/137/15
f 127/143/16 124/137/16 123/141/16 128/144/16
f 132/145/13 135/146/13 133/146/13 130/145/13
f 131/147/14 132/145/14 130/145/14 129/147/14
f 136/148/13 131/149/13 129/149/13 134/148/13
f 135/146/14 136/148/14 134/148/14 133/146/14
f 134/150/15 129/151/15 130/145/15 133/146/15
f 135/152/16 132/146/16 131/150/16 136/153/16
f 140/154/13 143/155/13 141/155/13 138/154/13
f 139/156/14 140/154/14 138/154/14 137/156/14
f 144/157/13 139/158/13 137/158/13 142/157/13
f 143/155/14 144/157/14 142/157/14 141/155/14
f 142/159/15 137/160/15 138/154/15 141/155/15
f 143/161/16 140/155/16 139/159/16 144/162/16
o cube.026
v -1.294488 1.936591 -10.187500
v -1.294488 1.936591 -10.687500
v -1.294488 1.936591 -10.187500
v -1.294488 1.936591 -10.687500
v -1.332655 1.062424 -10.687500
v -1.332655 1.062424 -10.187500
v -1.332655 1.062424 -10.687500
v -1.332655 1.062424 -10.187500
v -1.337682 0.940090 -10.000000
v -1.337682 0.940090 -10.875000
v -1.337682 0.940090 -10.000000
v -1.337682 0.940090 -10.875000
v -1.337682 0.690090 -10.875000
v -1.337682 0.690090 -10.000000
v -1.337682 0.690090 -10.875000
v -1.337682 0.690090 -10.000000
v -1.337920 0.695537 -10.000000
v -1.337920 0.695537 -10.875000
v -1.337920 0.695537 -10.000000
v -1.337920 0.695537 -10.875000
v -1.316131 0.446489 -10.875000
v -1.316131 0.446489 -10.000000
v -1.316131 0.446489 -10.875000
v -1.316131 0.446489 -10.000000
v -1.316939 0.452431 -10.000000
v -1.316939 0.452431 -10.875000
v -1.316939 0.452431 -10.000000
v -1.316939 0.452431 -10.875000
v -1.271381 0.206618 -10.875000
v -1.271381 0.206618 -10.000000
v -1.271381 0.206618 -10.875000
v -1.271381 0.206618 -10.000000
v -1.275302 0.219648 -10.000000
v -1.275302 0.219648 -10.875000
v -1.275302 0.219648 -10.000000
v -1.275302 0.219648 -10.875000
v -1.153199 -0.068009 -10.875000
v -1.153199 -0.068009 -10.000000
v -1.153199 -0.068009 -10.875000
v -1.153199 -0.068009 -10.000000
v -1.285943 2.123734 -10.687500
v -1.285943 2.123734 -10.875000
v -1.285943 2.123734 -10.687500
v -1.285943 2.123734 -10.875000
v -1.337741 0.937364 -10.875000
v -1.337741 0.937364 -10.687500
v -1.337741 0.937364 -10.875000
v -1.337741 0.937364 -10.687500
v -1.332289 1.062245 -10.125000
v -1.332289 1.062245 -10.687500
v -1.332289 1.062245 -10.125000
v -1.332289 1.062245 -10.687500
v -1.337741 0.937364 -10.687500
v -1.337741 0.937364 -10.125000
v -1.337741 0.937364 -10.687500
v -1.337741 0.937364 -10.125000
v -1.285943 2.123734 -10.000000
v -1.285943 2.123734 -10.187500
v -1.285943 2.123734 -10.000000
v -1.285943 2.123734 -10.187500
v -1.337741 0.937364 -10.187500
v -1.337741 0.937364 -10.000000
v -1.337741 0.937364 -10.187500
v -1.337741 0.937364 -10.000000
v -1.285813 2.124686 -10.125000
v -1.285813 2.124686 -10.687500
v -1.285813 2.124686 -10.125000
v -1.285813 2.124686 -10.687500
v -1.293991 1.937364 -10.687500
v -1.293991 1.937364 -10.125000
v -1.293991 1.937364 -10.687500
v -1.293991 1.937364 -10.125000
vn -0.0000 -0.0000 1.0000
vn -0.0000 -0.0000 -0.0000
vn -0.9990 0.0436 -0.0000
vn 0.9990 -0.0436 -0.0000
vn -1.0000 -0.0000 -0.0000
vn 1.0000 -0.0000 -0.0000
vn -0.9962 -0.0872 -0.0000
vn 0.9962 0.0872 -0.0000
vn -0.9833 -0.1822 -0.0000
vn 0.9833 0.1822 -0.0000
vn -0.9205 -0.3907 -0.0000
vn 0.9205 0.3907 -0.0000
vt 0.950231 0.930556
vt 0.966435 0.930556
vt 0.940972 0.930556
vt 0.975694 0.930556
vt 0.991898 0.930556
vt 0.966435 0.939815
vt 0.950231 0.939815
vt 0.982639 0.930556
vt 0.982639 0.939815
vt 0.899306 0.900463
vt 0.903935 0.900463
vt 0.883102 0.900463
vt 0.920139 0.900463
vt 0.924769 0.900463
vt 0.903935 0.916667
vt 0.899306 0.916667
vt 0.908565 0.900463
vt 0.908565 0.916667
vt 0.899306 0.875000
vt 0.903935 0.875000
vt 0.883102 0.875000
vt 0.920139 0.875000
vt 0.924769 0.875000
vt 0.903935 0.891204
vt 0.899306 0.891204
vt 0.908565 0.875000
vt 0.908565 0.891204
vt 0.899306 0.850694
vt 0.903935 0.850694
vt 0.883102 0.850694
vt 0.920139 0.850694
vt 0.924769 0.850694
vt 0.903935 0.866898
vt 0.899306 0.866898
vt 0.908565 0.850694
vt 0.908565 0.866898
vt 0.907407 0.826389
vt 0.913194 0.826389
vt 0.891204 0.826389
vt 0.929398 0.826389
vt 0.935185 0.826389
vt 0.913194 0.842593
vt 0.907407 0.842593
vt 0.918981 0.826389
vt 0.918981 0.842593
vt 0.936343 0.903935
vt 0.958333 0.903935
vt 0.932870 0.903935
vt 0.961806 0.903935
vt 0.983796 0.903935
vt 0.958333 0.907407
vt 0.936343 0.907407
vt 0.980324 0.903935
vt 0.980324 0.907407
vt 0.961806 0.980324
vt 0.964120 0.980324
vt 0.951389 0.980324
vt 0.974537 0.980324
vt 0.976852 0.980324
vt 0.964120 0.990741
vt 0.961806 0.990741
vt 0.966435 0.980324
vt 0.966435 0.990741
vt 0.936343 0.916667
vt 0.958333 0.916667
vt 0.932870 0.916667
vt 0.961806 0.916667
vt 0.983796 0.916667
vt 0.958333 0.920139
vt 0.936343 0.920139
vt 0.980324 0.916667
vt 0.980324 0.920139
vt 0.976852 0.978009
vt 0.980324 0.978009
vt 0.966435 0.978009
vt 0.990741 0.978009
vt 0.994213 0.978009
vt 0.980324 0.988426
vt 0.976852 0.988426
vt 0.983796 0.978009
vt 0.983796 0.988426
s 0
usemtl m_d66f417c-c71e-1189-400f-200ebb740664
f 148/163/25 151/164/25 149/164/25 146/163/25
f 147/165/26 148/163/26 146/163/26 145/165/26
f 152/166/25 147/167/25 145/167/25 150/166/25
f 151/164/26 152/166/26 150/166/26 149/164/26
f 150/168/27 145/169/27 146/163/27 149/164/27
f 151/170/28 148/164/28 147/168/28 152/171/28
f 156/172/25 159/173/25 157/173/25 154/172/25
f 155/174/26 156/172/26 154/172/26 153/174/26
f 160/175/25 155/176/25 153/176/25 158/175/25
f 159/173/26 160/175/26 158/175/26 157/173/26
f 158/177/29 153/178/29 154/172/29 157/173/29
f 159/179/30 156/173/30 155/177/30 160/180/30
f 164/181/25 167/182/25 165/182/25 162/181/25
f 163/183/26 164/181/26 162/181/26 161/183/26
f 168/184/25 163/185/25 161/185/25 166/184/25
f 167/182/26 168/184/26 166/184/26 165/182/26
f 166/186/31 161/187/31 162/181/31 165/182/31
f 167/188/32 164/182/32 163/186/32 168/189/32
f 172/190/25 175/191/25 173/191/25 170/190/25
f 171/192/26 172/190/26 170/190/26 169/192/26
f 176/193/25 171/194/25 169/194/25 174/193/25
f 175/191/26 176/193/26 174/193/26 173/191/26
f 174/195/33 169/196/33 170/190/33 173/191/33
f 175/197/34 172/191/34 171/195/34 176/198/34
f 180/199/25 183/200/25 181/200/25 178/199/25
f 179/201/26 180/199/26 178/199/26 177/201/26
f 184/202/25 179/203/25 177/203/25 182/202/25
f 183/200/26 184/202/26 182/202/26 181/200/26
f 182/204/35 177/205/35 178/199/35 181/200/35
f 183/206/36 180/200/36 179/204/36 184/207/36
f 188/208/25 191/209/25 189/209/25 186/208/25
f 187/210/26 188/208/26 186/208/26 185/210/26
f 192/211/25 187/212/25 185/212/25 190/211/25
f 191/209/26 192/211/26 190/211/26 189/209/26
f 190/213/27 185/214/27 186/208/27 189/209/27
f 191/215/28 188/209/28 187/213/28 192/216/28
f 196/217/25 199/218/25 197/218/25 194/217/25
f 195/219/26 196/217/26 194/217/26 193/219/26
f 200/220/25 195/221/25 193/221/25 198/220/25
f 199/218/26 200/220/26 198/220/26 197/218/26
f 198/222/27 193/223/27 194/217/27 197/218/27
f 199/224/28 196/218/28 195/222/28 200/225/28
f 204/226/25 207/227/25 205/227/25 202/226/25
f 203/228/26 204/226/26 202/226/26 201/228/26
f 208/229/25 203/230/25 201/230/25 206/229/25
f 207/227/26 208/229/26 206/229/26 205/227/26
f 206/231/27 201/232/27 202/226/27 205/227/27
f 207/233/28 204/227/28 203/231/28 208/234/28
f 212/235/25 215/236/25 213/236/25 210/235/25
f 211/237/26 212/235/26 210/235/26 209/237/26
f 216/238/25 211/239/25 209/239/25 214/238/25
f 215/236/26 216/238/26 214/238/26 213/236/26
f 214/240/27 209/241/27 210/235/27 213/236/27
f 215/242/28 212/236/28 211/240/28 216/243/28
o cube.035
v -1.294488 1.936592 4.812500
v -1.294488 1.936592 4.312500
v -1.294488 1.936592 4.812500
v -1.294488 1.936592 4.312500
v -1.332655 1.062425 4.312500
v -1.332655 1.062425 4.812500
v -1.332655 1.062425 4.312500
v -1.332655 1.062425 4.812500
v -1.337682 0.940092 5.000000
v -1.337682 0.940092 4.125000
v -1.337682 0.940092 5.000000
v -1.337682 0.940092 4.125000
v -1.337682 0.690092 4.125000
v -1.337682 0.690092 5.000000
v -1.337682 0.690092 4.125000
v -1.337682 0.690092 5.000000
v -1.337920 0.695539 5.000000
v -1.337920 0.695538 4.125000
v -1.337920 0.695539 5.000000
v -1.337920 0.695538 4.125000
v -1.316131 0.446490 4.125000
v -1.316131 0.446490 5.000000
v -1.316131 0.446490 4.125000
v -1.316131 0.446490 5.000000
v -1.316939 0.452432 5.000000
v -1.316939 0.452432 4.125000
v -1.316939 0.452432 5.000000
v -1.316939 0.452432 4.125000
v -1.271381 0.206619 4.125000
v -1.271381 0.206619 5.000000
v -1.271381 0.206619 4.125000
v -1.271381 0.206619 5.000000
v -1.275302 0.219650 5.000000
v -1.275302 0.219650 4.125000
v -1.275302 0.219650 5.000000
v -1.275302 0.219650 4.125000
v -1.153199 -0.068008 4.125000
v -1.153199 -0.068008 5.000000
v -1.153199 -0.068008 4.125000
v -1.153199 -0.068008 5.000000
v -1.285943 2.123735 4.312500
v -1.285943 2.123735 4.125000
v -1.285943 2.123735 4.312500
v -1.285943 2.123735 4.125000
v -1.337741 0.937365 4.125000
v -1.337741 0.937365 4.312500
v -1.337741 0.937365 4.125000
v -1.337741 0.937365 4.312500
v -1.332289 1.062246 4.875000
v -1.332289 1.062246 4.312500
v -1.332289 1.062246 4.875000
v -1.332289 1.062246 4.312500
v -1.337741 0.937365 4.312500
v -1.337741 0.937365 4.875000
v -1.337741 0.937365 4.312500
v -1.337741 0.937365 4.875000
v -1.285943 2.123735 5.000000
v -1.285943 2.123735 4.812500
v -1.285943 2.123735 5.000000
v -1.285943 2.123735 4.812500
v -1.337741 0.937365 4.812500
v -1.337741 0.937365 5.000000
v -1.337741 0.937365 4.812500
v -1.337741 0.937365 5.000000
v -1.285813 2.124687 4.875000
v -1.285813 2.124687 4.312500
v -1.285813 2.124687 4.875000
v -1.285813 2.124687 4.312500
v -1.293991 1.937365 4.312500
v -1.293991 1.937365 4.875000
v -1.293991 1.937365 4.312500
v -1.293991 1.937365 4.875000
vn -0.0000 -0.0000 1.0000
vn -0.0000 -0.0000 -0.0000
vn -0.9990 0.0436 -0.0000
vn 0.9990 -0.0436 -0.0000
vn -1.0000 -0.0000 -0.0000
vn 1.0000 -0.0000 -0.0000
vn -0.9962 -0.0872 -0.0000
vn 0.9962 0.0872 -0.0000
vn -0.9833 -0.1822 -0.0000
vn 0.9833 0.1822 -0.0000
vn -0.9205 -0.3907 -0.0000
vn 0.9205 0.3907 -0.0000
vt 0.950231 0.930556
vt 0.966435 0.930556
vt 0.940972 0.930556
vt 0.975694 0.930556
vt 0.991898 0.930556
vt 0.966435 0.939815
vt 0.950231 0.939815
vt 0.982639 0.930556
vt 0.982639 0.939815
vt 0.899306 0.900463
vt 0.903935 0.900463
vt 0.883102 0.900463
vt 0.920139 0.900463
vt 0.924769 0.900463
vt 0.903935 0.916667
vt 0.899306 0.916667
vt 0.908565 0.900463
vt 0.908565 0.916667
vt 0.899306 0.875000
vt 0.903935 0.875000
vt 0.883102 0.875000
vt 0.920139 0.875000
vt 0.924769 0.875000
vt 0.903935 0.891204
vt 0.899306 0.891204
vt 0.908565 0.875000
vt 0.908565 0.891204
vt 0.899306 0.850694
vt 0.903935 0.850694
vt 0.883102 0.850694
vt 0.920139 0.850694
vt 0.924769 0.850694
vt 0.903935 0.866898
vt 0.899306 0.866898
vt 0.908565 0.850694
vt 0.908565 0.866898
vt 0.907407 0.826389
vt 0.913194 0.826389
vt 0.891204 0.826389
vt 0.929398 0.826389
vt 0.935185 0.826389
vt 0.913194 0.842593
vt 0.907407 0.842593
vt 0.918981 0.826389
vt 0.918981 0.842593
vt 0.936343 0.903935
vt 0.958333 0.903935
vt 0.932870 0.903935
vt 0.961806 0.903935
vt 0.983796 0.903935
vt 0.958333 0.907407
vt 0.936343 0.907407
vt 0.980324 0.903935
vt 0.980324 0.907407
vt 0.961806 0.980324
vt 0.964120 0.980324
vt 0.951389 0.980324
vt 0.974537 0.980324
vt 0.976852 0.980324
vt 0.964120 0.990741
vt 0.961806 0.990741
vt 0.966435 0.980324
vt 0.966435 0.990741
vt 0.936343 0.916667
vt 0.958333 0.916667
vt 0.932870 0.916667
vt 0.961806 0.916667
vt 0.983796 0.916667
vt 0.958333 0.920139
vt 0.936343 0.920139
vt 0.980324 0.916667
vt 0.980324 0.920139
vt 0.976852 0.978009
vt 0.980324 0.978009
vt 0.966435 0.978009
vt 0.990741 0.978009
vt 0.994213 0.978009
vt 0.980324 0.988426
vt 0.976852 0.988426
vt 0.983796 0.978009
vt 0.983796 0.988426
s 0
usemtl m_d66f417c-c71e-1189-400f-200ebb740664
f 220/244/37 223/245/37 221/245/37 218/244/37
f 219/246/38 220/244/38 218/244/38 217/246/38
f 224/247/37 219/248/37 217/248/37 222/247/37
f 223/245/38 224/247/38 222/247/38 221/245/38
f 222/249/39 217/250/39 218/244/39 221/245/39
f 223/251/40 220/245/40 219/249/40 224/252/40
f 228/253/37 231/254/37 229/254/37 226/253/37
f 227/255/38 228/253/38 226/253/38 225/255/38
f 232/256/37 227/257/37 225/257/37 230/256/37
f 231/254/38 232/256/38 230/256/38 229/254/38
f 230/258/41 225/259/41 226/253/41 229/254/41
f 231/260/42 228/254/42 227/258/42 232/261/42
f 236/262/37 239/263/37 237/263/37 234/262/37
f 235/264/38 236/262/38 234/262/38 233/264/38
f 240/265/37 235/266/37 233/266/37 238/265/37
f 239/263/38 240/265/38 238/265/38 237/263/38
f 238/267/43 233/268/43 234/262/43 237/263/43
f 239/269/44 236/263/44 235/267/44 240/270/44
f 244/271/37 247/272/37 245/272/37 242/271/37
f 243/273/38 244/271/38 242/271/38 241/273/38
f 248/274/37 243/275/37 241/275/37 246/274/37
f 247/272/38 248/274/38 246/274/38 245/272/38
f 246/276/45 241/277/45 242/271/45 245/272/45
f 247/278/46 244/272/46 243/276/46 248/279/46
f 252/280/37 255/281/37 253/281/37 250/280/37
f 251/282/38 252/280/38 250/280/38 249/282/38
f 256/283/37 251/284/37 249/284/37 254/283/37
f 255/281/38 256/283/38 254/283/38 253/281/38
f 254/285/47 249/286/47 250/280/47 253/281/47
f 255/287/48 252/281/48 251/285/48 256/288/48
f 260/289/37 263/290/37 261/290/37 258/289/37
f 259/291/38 260/289/38 258/289/38 257/291/38
f 264/292/37 259/293/37 257/293/37 262/292/37
f 263/290/38 264/292/38 262/292/38 261/290/38
f 262/294/39 257/295/39 258/289/39 261/290/39
f 263/296/40 260/290/40 259/294/40 264/297/40
f 268/298/37 271/299/37 269/299/37 266/298/37
f 267/300/38 268/298/38 266/298/38 265/300/38
f 272/301/37 267/302/37 265/302/37 270/301/37
f 271/299/38 272/301/38 270/301/38 269/299/38
f 270/303/39 265/304/39 266/298/39 269/299/39
f 271/305/40 268/299/40 267/303/40 272/306/40
f 276/307/37 279/308/37 277/308/37 274/307/37
f 275/309/38 276/307/38 274/307/38 273/309/38
f 280/310/37 275/311/37 273/311/37 278/310/37
f 279/308/38 280/310/38 278/310/38 277/308/38
f 278/312/39 273/313/39 274/307/39 277/308/39
f 279/314/40 276/308/40 275/312/40 280/315/40
f 284/316/37 287/317/37 285/317/37 282/316/37
f 283/318/38 284/316/38 282/316/38 281/318/38
f 288/319/37 283/320/37 281/320/37 286/319/37
f 287/317/38 288/319/38 286/319/38 285/317/38
f 286/321/39 281/322/39 282/316/39 285/317/39
f 287/323/40 284/317/40 283/321/40 288/324/40
o cube.044
v -1.294488 1.936592 9.812500
v -1.294488 1.936592 9.312500
v -1.294488 1.936592 9.812500
v -1.294488 1.936592 9.312500
v -1.332655 1.062425 9.312500
v -1.332655 1.062425 9.812500
v -1.332655 1.062425 9.312500
v -1.332655 1.062425 9.812500
v -1.337682 0.940092 10.000000
v -1.337682 0.940092 9.125000
v -1.337682 0.940092 10.000000
v -1.337682 0.940092 9.125000
v -1.337682 0.690092 9.125000
v -1.337682 0.690092 10.000000
v -1.337682 0.690092 9.125000
v -1.337682 0.690092 10.000000
v -1.337920 0.695539 10.000000
v -1.337920 0.695539 9.125000
v -1.337920 0.695539 10.000000
v -1.337920 0.695539 9.125000
v -1.316131 0.446490 9.125000
v -1.316131 0.446490 10.000000
v -1.316131 0.446490 9.125000
v -1.316131 0.446490 10.000000
v -1.316939 0.452433 10.000000
v -1.316939 0.452433 9.125000
v -1.316939 0.452433 10.000000
v -1.316939 0.452433 9.125000
v -1.271381 0.206619 9.125000
v -1.271381 0.206619 10.000000
v -1.271381 0.206619 9.125000
v -1.271381 0.206619 10.000000
v -1.275302 0.219650 10.000000
v -1.275302 0.219650 9.125000
v -1.275302 0.219650 10.000000
v -1.275302 0.219650 9.125000
v -1.153199 -0.068008 9.125000
v -1.153199 -0.068008 10.000000
v -1.153199 -0.068008 9.125000
v -1.153199 -0.068008 10.000000
v -1.285943 2.123735 9.312500
v -1.285943 2.123735 9.125000
v -1.285943 2.123735 9.312500
v -1.285943 2.123735 9.125000
v -1.337741 0.937366 9.125000
v -1.337741 0.937366 9.312500
v -1.337741 0.937366 9.125000
v -1.337741 0.937366 9.312500
v -1.332289 1.062247 9.875000
v -1.332289 1.062247 9.312500
v -1.332289 1.062247 9.875000
v -1.332289 1.062247 9.312500
v -1.337741 0.937366 9.312500
v -1.337741 0.937366 9.875000
v -1.337741 0.937366 9.312500
v -1.337741 0.937366 9.875000
v -1.285943 2.123735 10.000000
v -1.285943 2.123735 9.812500
v -1.285943 2.123735 10.000000
v -1.285943 2.123735 9.812500
v -1.337741 0.937366 9.812500
v -1.337741 0.937366 10.000000
v -1.337741 0.937366 9.812500
v -1.337741 0.937366 10.000000
v -1.285813 2.124687 9.875000
v -1.285813 2.124687 9.312500
v -1.285813 2.124687 9.875000
v -1.285813 2.124687 9.312500
v -1.293991 1.937366 9.312500
v -1.293991 1.937366 9.875000
v -1.293991 1.937366 9.312500
v -1.293991 1.937366 9.875000
vn -0.0000 -0.0000 1.0000
vn -0.0000 -0.0000 -0.0000
vn -0.9990 0.0436 -0.0000
vn 0.9990 -0.0436 -0.0000
vn -1.0000 -0.0000 -0.0000
vn 1.0000 -0.0000 -0.0000
vn -0.9962 -0.0872 -0.0000
vn 0.9962 0.0872 -0.0000
vn -0.9833 -0.1822 -0.0000
vn 0.9833 0.1822 -0.0000
vn -0.9205 -0.3907 -0.0000
vn 0.9205 0.3907 -0.0000
vt 0.950231 0.930556
vt 0.966435 0.930556
vt 0.940972 0.930556
vt 0.975694 0.930556
vt 0.991898 0.930556
vt 0.966435 0.939815
vt 0.950231 0.939815
vt 0.982639 0.930556
vt 0.982639 0.939815
vt 0.899306 0.900463
vt 0.903935 0.900463
vt 0.883102 0.900463
vt 0.920139 0.900463
vt 0.924769 0.900463
vt 0.903935 0.916667
vt 0.899306 0.916667
vt 0.908565 0.900463
vt 0.908565 0.916667
vt 0.899306 0.875000
vt 0.903935 0.875000
vt 0.883102 0.875000
vt 0.920139 0.875000
vt 0.924769 0.875000
vt 0.903935 0.891204
vt 0.899306 0.891204
vt 0.908565 0.875000
vt 0.908565 0.891204
vt 0.899306 0.850694
vt 0.903935 0.850694
vt 0.883102 0.850694
vt 0.920139 0.850694
vt 0.924769 0.850694
vt 0.903935 0.866898
vt 0.899306 0.866898
vt 0.908565 0.850694
vt 0.908565 0.866898
vt 0.907407 0.826389
vt 0.913194 0.826389
vt 0.891204 0.826389
vt 0.929398 0.826389
vt 0.935185 0.826389
vt 0.913194 0.842593
vt 0.907407 0.842593
vt 0.918981 0.826389
vt 0.918981 0.842593
vt 0.936343 0.903935
vt 0.958333 0.903935
vt 0.932870 0.903935
vt 0.961806 0.903935
vt 0.983796 0.903935
vt 0.958333 0.907407
vt 0.936343 0.907407
vt 0.980324 0.903935
vt 0.980324 0.907407
vt 0.961806 0.980324
vt 0.964120 0.980324
vt 0.951389 0.980324
vt 0.974537 0.980324
vt 0.976852 0.980324
vt 0.964120 0.990741
vt 0.961806 0.990741
vt 0.966435 0.980324
vt 0.966435 0.990741
vt 0.936343 0.916667
vt 0.958333 0.916667
vt 0.932870 0.916667
vt 0.961806 0.916667
vt 0.983796 0.916667
vt 0.958333 0.920139
vt 0.936343 0.920139
vt 0.980324 0.916667
vt 0.980324 0.920139
vt 0.976852 0.978009
vt 0.980324 0.978009
vt 0.966435 0.978009
vt 0.990741 0.978009
vt 0.994213 0.978009
vt 0.980324 0.988426
vt 0.976852 0.988426
vt 0.983796 0.978009
vt 0.983796 0.988426
s 0
usemtl m_d66f417c-c71e-1189-400f-200ebb740664
f 292/325/49 295/326/49 293/326/49 290/325/49
f 291/327/50 292/325/50 290/325/50 289/327/50
f 296/328/49 291/329/49 289/329/49 294/328/49
f 295/326/50 296/328/50 294/328/50 293/326/50
f 294/330/51 289/331/51 290/325/51 293/326/51
f 295/332/52 292/326/52 291/330/52 296/333/52
f 300/334/49 303/335/49 301/335/49 298/334/49
f 299/336/50 300/334/50 298/334/50 297/336/50
f 304/337/49 299/338/49 297/338/49 302/337/49
f 303/335/50 304/337/50 302/337/50 301/335/50
f 302/339/53 297/340/53 298/334/53 301/335/53
f 303/341/54 300/335/54 299/339/54 304/342/54
f 308/343/49 311/344/49 309/344/49 306/343/49
f 307/345/50 308/343/50 306/343/50 305/345/50
f 312/346/49 307/347/49 305/347/49 310/346/49
f 311/344/50 312/346/50 310/346/50 309/344/50
f 310/348/55 305/349/55 306/343/55 309/344/55
f 311/350/56 308/344/56 307/348/56 312/351/56
f 316/352/49 319/353/49 317/353/49 314/352/49
f 315/354/50 316/352/50 314/352/50 313/354/50
f 320/355/49 315/356/49 313/356/49 318/355/49
f 319/353/50 320/355/50 318/355/50 317/353/50
f 318/357/57 313/358/57 314/352/57 317/353/57
f 319/359/58 316/353/58 315/357/58 320/360/58
f 324/361/49 327/362/49 325/362/49 322/361/49
f 323/363/50 324/361/50 322/361/50 321/363/50
f 328/364/49 323/365/49 321/365/49 326/364/49
f 327/362/50 328/364/50 326/364/50 325/362/50
f 326/366/59 321/367/59 322/361/59 325/362/59
f 327/368/60 324/362/60 323/366/60 328/369/60
f 332/370/49 335/371/49 333/371/49 330/370/49
f 331/372/50 332/370/50 330/370/50 329/372/50
f 336/373/49 331/374/49 329/374/49 334/373/49
f 335/371/50 336/373/50 334/373/50 333/371/50
f 334/375/51 329/376/51 330/370/51 333/371/51
f 335/377/52 332/371/52 331/375/52 336/378/52
f 340/379/49 343/380/49 341/380/49 338/379/49
f 339/381/50 340/379/50 338/379/50 337/381/50
f 344/382/49 339/383/49 337/383/49 342/382/49
f 343/380/50 344/382/50 342/382/50 341/380/50
f 342/384/51 337/385/51 338/379/51 341/380/51
f 343/386/52 340/380/52 339/384/52 344/387/52
f 348/388/49 351/389/49 349/389/49 346/388/49
f 347/390/50 348/388/50 346/388/50 345/390/50
f 352/391/49 347/392/49 345/392/49 350/391/49
f 351/389/50 352/391/50 350/391/50 349/389/50
f 350/393/51 345/394/51 346/388/51 349/389/51
f 351/395/52 348/389/52 347/393/52 352/396/52
f 356/397/49 359/398/49 357/398/49 354/397/49
f 355/399/50 356/397/50 354/397/50 353/399/50
f 360/400/49 355/401/49 353/401/49 358/400/49
f 359/398/50 360/400/50 358/400/50 357/398/50
f 358/402/51 353/403/51 354/397/51 357/398/51
f 359/404/52 356/398/52 355/402/52 360/405/52
