# Blender 4.3.2
# www.blender.org
mtllib speed_screen.mtl
o speedscreen
v 0.289648 0.893965 -13.732209
v 0.121289 0.893965 -13.732209
v 0.121289 1.000368 -13.760719
v 0.289648 1.000368 -13.760719
v 0.289648 0.893965 -13.732209
v 0.289648 1.000368 -13.760719
v 0.121289 0.893965 -13.732209
v 0.121289 1.000368 -13.760719
vn -0.0000 -0.2588 -0.9659
vn -0.0000 -0.0000 1.0000
vn -0.0000 0.2588 0.9659
vt 0.500000 0.000000
vt 1.000000 0.000000
vt 1.000000 1.000000
vt 0.500000 1.000000
vt 0.000000 0.000000
vt 0.000000 1.000000
vt 1.000100 1.000000
vt 0.500050 1.000000
s 1
usemtl m_df304aa1-4bd4-eef7-d0ef-3fc000ed07bd
f 1/1/1 2/2/1 3/3/1 4/4/1
s 0
f 5/1/2 1/1/2 4/4/2 6/4/2
s 1
f 7/5/3 5/1/3 6/4/3 8/6/3
s 0
f 2/1/2 7/1/2 8/4/2 3/4/2
f 8/3/2 6/4/2 4/4/2 3/3/2
f 2/7/2 1/8/2 5/8/2 7/7/2
