# Blender 4.3.2
# www.blender.org
mtllib text_screens.mtl
g innled
v -0.500000 2.319140 -11.311523
v -0.500000 2.319140 -11.311523
v -0.500000 2.194140 -11.311523
v -0.500000 2.194140 -11.311523
v 0.500000 2.319140 -11.311523
v 0.500000 2.319140 -11.311523
v 0.500000 2.194140 -11.311523
v 0.500000 2.194140 -11.311523
vn -0.0000 -0.0000 1.0000
vn -0.0000 -0.0000 -1.0000
vn -1.0000 -0.0000 -0.0000
vn 1.0000 -0.0000 -0.0000
vn -0.0000 1.0000 -0.0000
vn -0.0000 -1.0000 -0.0000
vt 0.000000 0.750000
vt 0.500000 0.750000
vt 0.500000 1.000000
vt 0.000000 1.000000
vt 1.000000 0.750000
vt 1.000000 1.000000
s 1
usemtl m_df8db17a-1832-1579-1691-6a93ef8a3301
f 4/1/1 7/2/1 5/3/1 2/4/1
s 0
f 3/1/2 4/1/3 2/4/2 1/4/3
s 1
f 8/2/2 3/5/2 1/6/2 6/3/2
s 0
f 7/2/2 8/2/4 6/3/2 5/3/4
f 6/3/5 1/4/2 2/4/5 5/3/2
f 7/6/6 4/3/2 3/3/6 8/6/2
g innled2
v -0.500000 2.319140 -11.311523
v -0.500000 2.319140 -11.311523
v -0.500000 2.194140 -11.311523
v -0.500000 2.194140 -11.311523
v 0.500000 2.319140 -11.311523
v 0.500000 2.319140 -11.311523
v 0.500000 2.194140 -11.311523
v 0.500000 2.194140 -11.311523
vn -0.0000 -0.0000 1.0000
vn -0.0000 -0.0000 -1.0000
vn -1.0000 -0.0000 -0.0000
vn 1.0000 -0.0000 -0.0000
vn -0.0000 1.0000 -0.0000
vn -0.0000 -1.0000 -0.0000
vt 0.000000 0.375000
vt 0.500000 0.375000
vt 0.500000 0.625000
vt 0.000000 0.625000
vt 1.000000 0.375000
vt 1.000000 0.625000
s 1
usemtl m_df8db17a-1832-1579-1691-6a93ef8a3301
f 12/7/7 15/8/7 13/9/7 10/10/7
s 0
f 11/7/8 12/7/9 10/10/8 9/10/9
s 1
f 16/8/8 11/11/8 9/12/8 14/9/8
s 0
f 15/8/8 16/8/10 14/9/8 13/9/10
f 14/9/11 9/10/8 10/10/11 13/9/8
f 15/12/12 12/9/8 11/9/12 16/12/8
g speedscreen
v 0.299219 1.006405 -13.762337
v 0.299219 1.006405 -13.762337
v 0.299219 0.885664 -13.729984
v 0.299219 0.885664 -13.729984
v 0.111719 1.006405 -13.762337
v 0.111719 1.006405 -13.762337
v 0.111719 0.885664 -13.729984
v 0.111719 0.885664 -13.729984
vn -0.0000 -0.2588 -0.9659
vn -0.0000 -0.0000 1.0000
vn 1.0000 -0.0000 -0.0000
vn -0.0000 -0.0000 -1.0000
vn -0.0000 0.2588 0.9659
vn -1.0000 -0.0000 -0.0000
vn -0.0000 0.9659 -0.2589
vn -0.0000 -0.9659 0.2589
vt 0.000000 0.000000
vt 0.093750 0.000000
vt 0.093750 0.250000
vt 0.000000 0.250000
vt 0.187500 0.000000
vt 0.187500 0.250000
s 1
usemtl m_df8db17a-1832-1579-1691-6a93ef8a3301
f 20/13/13 23/14/13 21/15/13 18/16/13
s 0
f 19/13/14 20/13/15 18/16/16 17/16/15
s 1
f 24/14/17 19/17/17 17/18/17 22/15/17
s 0
f 23/14/14 24/14/18 22/15/16 21/15/18
f 22/15/19 17/16/16 18/16/19 21/15/16
f 23/18/20 20/15/14 19/15/20 24/18/14
