# Made in Blockbench 5.1.4
mtllib trm01_train_numbers.mtl

o train_number_side_style1
v -1.2977714243357852 2.4104899781601787 7.65625
v -1.2977714243357852 2.4104899781601787 6.71875
v -1.337945649941194 2.3626122004652426 7.65625
v -1.337945649941194 2.3626122004652426 6.71875
v -1.4537010064424225 0.690090930725352 -7.046875
v -1.4537010064424225 0.690090930725352 -7.953125
v -1.4460748789520022 0.6029238946423243 -7.046875
v -1.4460748789520022 0.6029238946423243 -7.953125
v -1.4537010064424223 0.752590930725352 -7.046875
v -1.4537010064424223 0.752590930725352 -7.953125
v -1.4537010064424225 0.690090930725352 -7.046875
v -1.4537010064424225 0.690090930725352 -7.953125
v -1.401625858084694 2.1877733678409963 -7.34375
v -1.401625858084694 2.1877733678409963 -8.28125
v -1.33794591843285 2.3626126363052844 -7.34375
v -1.33794591843285 2.3626126363052844 -8.28125
v -1.3907732011504375 2.2493241629257033 -7.34375
v -1.3907732011504375 2.2493241629257033 -8.28125
v -1.2977714243357847 2.4104899781601787 -7.34375
v -1.2977714243357847 2.4104899781601787 -8.28125
v -1.4537010064424225 0.690090930725352 7.953124999999999
v -1.4537010064424225 0.690090930725352 7.046874999999999
v -1.4460748789520022 0.6029238946423243 7.953124999999999
v -1.4460748789520022 0.6029238946423243 7.046874999999999
v -1.4537010064424223 0.752590930725352 7.953124999999999
v -1.4537010064424223 0.752590930725352 7.046874999999999
v -1.4537010064424225 0.690090930725352 7.953124999999999
v -1.4537010064424225 0.690090930725352 7.046874999999999
v -1.3907728469805112 2.2493238524042596 7.656249999999998
v -1.3907728469805112 2.2493238524042596 6.718749999999999
v -1.401625858084694 2.1877733678409963 7.656249999999998
v -1.401625858084694 2.1877733678409963 6.718749999999999
v -1.33794591843285 2.3626126363052844 7.656249999999998
v -1.33794591843285 2.3626126363052844 6.718749999999999
v -1.3907732011504375 2.2493241629257033 7.656249999999998
v -1.3907732011504375 2.2493241629257033 6.718749999999999
v -1.3907728469805112 2.2493238524042596 -7.34375
v -1.3907728469805112 2.2493238524042596 -8.28125
v -1.3379456499411937 2.362612200465243 -7.34375
v -1.3379456499411937 2.362612200465243 -8.28125
vt 0.9999553571428565 0.845366379936121
vt 0 0.845366379936121
vt 0 0.7798781122967475
vt 0.9999553571428565 0.7798781122967475
vt 1 0.9245283018867925
vt 0 0.9245283018867925
vt 0 0.8490566037735849
vt 1 0.8490566037735849
vt 1 1
vt 0 1
vt 0 0.9245283018867925
vt 1 0.9245283018867925
vt 1 0.6492233866869912
vt 0.00004464285714327332 0.6492233866869912
vt 0.00004464285714327332 0.5837351190476175
vt 1 0.5837351190476175
vt 1 0.780199921965737
vt 0.00004464285714327332 0.780199921965737
vt 0.00004464285714327332 0.6492233866869912
vt 1 0.6492233866869912
vt 0.9999553571428565 0.8460565476190478
vt 0 0.8460565476190478
vt 0 0.7805682799796743
vt 0.9999553571428565 0.7805682799796743
vt 1 0.9245283018867925
vt 0 0.9245283018867925
vt 0 0.8490566037735849
vt 1 0.8490566037735849
vt 1 1
vt 0 1
vt 0 0.9245283018867925
vt 1 0.9245283018867925
vt 1 0.6492233866869912
vt 0.00004464285714327332 0.6492233866869912
vt 0.00004464285714327332 0.5837351190476175
vt 1 0.5837351190476175
vt 1 0.780199921965737
vt 0.00004464285714327332 0.780199921965737
vt 0.00004464285714327332 0.6492233866869912
vt 1 0.6492233866869912
vn -0.766044443118978 0.6427876096865393 0
vn -0.9961946980917455 -0.0871557427476583 0
vn -1 1.1102230246251565e-16 0
vn -0.984807753012209 0.17364817766692545 0
vn -0.9063077870366498 0.42261826174070005 0
vn -0.766044443118978 0.6427876096865393 0
vn -0.9961946980917455 -0.0871557427476583 0
vn -1 1.1102230246251565e-16 0
vn -0.984807753012209 0.17364817766692547 0
vn -0.9063077870366498 0.42261826174070005 0
usemtl m_23a58c75-ac6e-660b-8865-8d471e5c5eca
f 1/1/1 2/2/1 4/3/1 3/4/1
f 5/5/2 6/6/2 8/7/2 7/8/2
f 9/9/3 10/10/3 12/11/3 11/12/3
f 37/13/4 38/14/4 14/15/4 13/16/4
f 15/17/5 16/18/5 18/19/5 17/20/5
f 19/21/6 20/22/6 40/23/6 39/24/6
f 21/25/7 22/26/7 24/27/7 23/28/7
f 25/29/8 26/30/8 28/31/8 27/32/8
f 29/33/9 30/34/9 32/35/9 31/36/9
f 33/37/10 34/38/10 36/39/10 35/40/10
o train_number_side_style2
v -1.4537010064424227 0.690090930725352 -8.359375
v -1.4537010064424227 0.690090930725352 -9.015625
v -1.4460748789520026 0.6029238946423243 -8.359375
v -1.4460748789520026 0.6029238946423243 -9.015625
v -1.453701006442423 0.7525909307253521 -8.359375
v -1.453701006442423 0.7525909307253521 -9.015625
v -1.453701006442423 0.6900909307253521 -8.359375
v -1.453701006442423 0.6900909307253521 -9.015625
v -1.3907728469805116 2.2493238524042596 -7.34375
v -1.3907728469805116 2.2493238524042596 -8.28125
v -1.4016258580846945 2.1877733678409963 -7.34375
v -1.4016258580846945 2.1877733678409963 -8.28125
v -1.3379459184328506 2.362612636305284 -7.34375
v -1.3379459184328506 2.362612636305284 -8.28125
v -1.390773201150438 2.2493241629257033 -7.34375
v -1.390773201150438 2.2493241629257033 -8.28125
v -1.2977714243357852 2.4104899781601787 -7.34375
v -1.2977714243357852 2.4104899781601787 -8.28125
v -1.3379456499411941 2.362612200465243 -7.34375
v -1.3379456499411941 2.362612200465243 -8.28125
v -1.453701006442423 0.6900909307253521 9.015625
v -1.453701006442423 0.6900909307253521 8.359375
v -1.4460748789520028 0.6029238946423243 9.015625
v -1.4460748789520028 0.6029238946423243 8.359375
v -1.453701006442423 0.7525909307253521 9.015625
v -1.453701006442423 0.7525909307253521 8.359375
v -1.453701006442423 0.6900909307253521 9.015625
v -1.453701006442423 0.6900909307253521 8.359375
v -1.3907728469805116 2.2493238524042596 7.65625
v -1.3907728469805116 2.2493238524042596 6.71875
v -1.4016258580846945 2.1877733678409963 7.65625
v -1.4016258580846945 2.1877733678409963 6.71875
v -1.3379459184328506 2.362612636305284 7.65625
v -1.3379459184328506 2.362612636305284 6.71875
v -1.390773201150438 2.2493241629257033 7.65625
v -1.390773201150438 2.2493241629257033 6.71875
v -1.2977714243357852 2.4104899781601787 7.65625
v -1.2977714243357852 2.4104899781601787 6.71875
v -1.3379456499411941 2.362612200465243 7.65625
v -1.3379456499411941 2.362612200465243 6.71875
vt 0.8125 0.9245283018867925
vt 0.1875 0.9245283018867925
vt 0.1875 0.8490566037735849
vt 0.8125 0.8490566037735849
vt 0.8125 1
vt 0.1875 1
vt 0.1875 0.9245283018867925
vt 0.8125 0.9245283018867925
vt 1 0.6492233866869912
vt 0.00004464285714327332 0.6492233866869912
vt 0.00004464285714327332 0.5837351190476175
vt 1 0.5837351190476175
vt 1 0.780199921965737
vt 0.00004464285714327332 0.780199921965737
vt 0.00004464285714327332 0.6492233866869912
vt 1 0.6492233866869912
vt 0.9999553571428565 0.845366379936121
vt 0 0.845366379936121
vt 0 0.7798781122967475
vt 0.9999553571428565 0.7798781122967475
vt 0.8125 0.9245283018867925
vt 0.1875 0.9245283018867925
vt 0.1875 0.8490566037735849
vt 0.8125 0.8490566037735849
vt 0.8125 1
vt 0.1875 1
vt 0.1875 0.9245283018867925
vt 0.8125 0.9245283018867925
vt 1 0.6492233866869912
vt 0.00004464285714327332 0.6492233866869912
vt 0.00004464285714327332 0.5837351190476175
vt 1 0.5837351190476175
vt 1 0.780199921965737
vt 0.00004464285714327332 0.780199921965737
vt 0.00004464285714327332 0.6492233866869912
vt 1 0.6492233866869912
vt 0.9999553571428565 0.845366379936121
vt 0 0.845366379936121
vt 0 0.7798781122967475
vt 0.9999553571428565 0.7798781122967475
vn -0.9961946980917455 -0.08715574274765836 0
vn -1 -2.0816681711721685e-16 0
vn -0.9848077530122086 0.1736481776669281 0
vn -0.9063077870366505 0.4226182617406984 0
vn -0.7660444431189765 0.642787609686541 0
vn -0.9961946980917455 -0.08715574274765836 0
vn -1 -2.0816681711721685e-16 0
vn -0.9848077530122086 0.1736481776669281 0
vn -0.9063077870366505 0.4226182617406984 0
vn -0.7660444431189765 0.642787609686541 0
usemtl m_23a58c75-ac6e-660b-8865-8d471e5c5eca
f 41/41/11 42/42/11 44/43/11 43/44/11
f 45/45/12 46/46/12 48/47/12 47/48/12
f 49/49/13 50/50/13 52/51/13 51/52/13
f 53/53/14 54/54/14 56/55/14 55/56/14
f 57/57/15 58/58/15 60/59/15 59/60/15
f 61/61/16 62/62/16 64/63/16 63/64/16
f 65/65/17 66/66/17 68/67/17 67/68/17
f 69/69/18 70/70/18 72/71/18 71/72/18
f 73/73/19 74/74/19 76/75/19 75/76/19
f 77/77/20 78/78/20 80/79/20 79/80/20
o train_number_head
v -0.5600045172145262 0.21778842799505227 -14.048491873411571
v -0.5068149614608776 -0.015513888549395186 -13.924813947490774
v -0.90724022181048 0.2136599874292143 -13.906945692141125
v -0.8540506660568314 -0.01964232911523317 -13.783267766220328
v -0.19148482209218015 0.2217663081652381 -14.122478652540176
v -0.16403035239012087 -0.011063558033708926 -13.989844438984601
v -0.5600046097627214 0.2177887115956364 -14.053179700017148
v -0.5325501400606611 -0.015041154603308085 -13.92054548646157
vt 0.26874999999999993 0.5828125
vt 0.26874999999999993 0.4031640540099979
vt 0.5375 0.40312499999999996
vt 0.5375 0.5828125
vt 0 0.5828125
vt 0 0.40312499999999996
vt 0.26874999999999993 0.4031640540099979
vt 0.26874999999999993 0.5828125
vn -0.32187247425863436 -0.4996929962288613 -0.8041797186167082
vn -0.15451187580915163 -0.5027295951912714 -0.8505228006072253
usemtl m_23a58c75-ac6e-660b-8865-8d471e5c5eca
f 81/81/21 82/82/21 84/83/21 83/84/21
f 85/85/22 86/86/22 88/87/22 87/88/22
o train_number_doors
v -1.4065802509907521 2.067034758916776 0.05468750000000022
v -1.4065802509907521 2.1764097589167766 0.054687500000000555
v -1.4065802509907521 2.0670347589167757 -0.054687500000000555
v -1.4065802509907521 2.176409758916776 -0.05468750000000017
v -1.4065802509907521 2.067034758916775 -4.945312499999999
v -1.4065802509907521 2.176409758916776 -4.945312500000001
v -1.4065802509907521 2.067034758916776 -5.054687499999999
v -1.4065802509907521 2.1764097589167775 -5.054687500000001
v -1.4065802509907521 2.0670347589167757 -9.9453125
v -1.4065802509907521 2.176409758916774 -9.945312499999998
v -1.4065802509907521 2.0670347589167783 -10.054687500000002
v -1.4065802509907521 2.1764097589167766 -10.0546875
v -1.4065802509907521 2.067034758916777 10.0546875
v -1.4065802509907521 2.176409758916774 10.054687500000002
v -1.4065802509907521 2.0670347589167783 9.945312499999998
v -1.4065802509907521 2.1764097589167752 9.9453125
v -1.4065802509907521 2.067034758916777 5.0546875
v -1.4065802509907521 2.176409758916777 5.054687499999999
v -1.4065802509907521 2.0670347589167752 4.945312500000001
v -1.4065802509907521 2.1764097589167752 4.9453125
v 1.4065802509907526 2.0670347589167766 -0.054687499999999
v 1.4065802509907526 2.176409758916776 -0.054687499999999195
v 1.4065802509907526 2.067034758916777 0.054687499999999195
v 1.4065802509907526 2.1764097589167766 0.054687499999999056
v 1.4065802509907526 2.0670347589167766 4.945312499999999
v 1.4065802509907526 2.1764097589167783 4.945312500000001
v 1.4065802509907526 2.067034758916775 5.054687499999999
v 1.4065802509907526 2.1764097589167766 5.054687500000001
v 1.4065802509907526 2.0670347589167783 9.9453125
v 1.4065802509907526 2.176409758916778 9.9453125
v 1.4065802509907526 2.0670347589167752 10.0546875
v 1.4065802509907526 2.176409758916775 10.0546875
v 1.4065802509907526 2.067034758916776 -10.0546875
v 1.4065802509907526 2.1764097589167775 -10.054687499999998
v 1.4065802509907526 2.0670347589167757 -9.945312500000002
v 1.4065802509907526 2.176409758916777 -9.9453125
v 1.4065802509907526 2.067034758916776 -5.054687500000001
v 1.4065802509907526 2.1764097589167775 -5.0546875
v 1.4065802509907526 2.0670347589167757 -4.9453125
v 1.4065802509907526 2.176409758916777 -4.945312499999999
vt 0.46875 0.24687499999999996
vt 0.46875 0.40312499999999996
vt 0.3125 0.40312499999999996
vt 0.3125 0.24687499999999996
vt 0.3125 0.24687499999999996
vt 0.3125 0.40312499999999996
vt 0.15625 0.40312499999999996
vt 0.15625 0.24687499999999996
vt 0.15625000000000006 0.24687499999999996
vt 0.15625000000000006 0.40312499999999996
vt 0 0.40312499999999996
vt 0 0.24687499999999996
vt 0.7812500000000001 0.24687499999999996
vt 0.7812500000000001 0.40312499999999996
vt 0.625 0.40312499999999996
vt 0.625 0.24687499999999996
vt 0.625 0.24687499999999996
vt 0.625 0.40312499999999996
vt 0.46875 0.40312499999999996
vt 0.46875 0.24687499999999996
vt 0.46875 0.09062499999999996
vt 0.46875 0.24687499999999996
vt 0.3125 0.24687499999999996
vt 0.3125 0.09062499999999996
vt 0.3125 0.09062499999999996
vt 0.3125 0.24687499999999996
vt 0.15625 0.24687499999999996
vt 0.15625 0.09062499999999996
vt 0.15625000000000006 0.09062499999999996
vt 0.15625000000000006 0.24687499999999996
vt 0 0.24687499999999996
vt 0 0.09062499999999996
vt 0.7812500000000001 0.09062499999999996
vt 0.7812500000000001 0.24687499999999996
vt 0.625 0.24687499999999996
vt 0.625 0.09062499999999996
vt 0.625 0.09062499999999996
vt 0.625 0.24687499999999996
vt 0.46875 0.24687499999999996
vt 0.46875 0.09062499999999996
vn -1 2.220446049250313e-16 0
vn -1 2.220446049250313e-16 0
vn -1 2.220446049250313e-16 0
vn -1 2.220446049250313e-16 0
vn -1 2.220446049250313e-16 0
vn 1 -2.220446049250313e-16 0
vn 1 -2.220446049250313e-16 0
vn 1 -2.220446049250313e-16 0
vn 1 -2.220446049250313e-16 0
vn 1 -2.220446049250313e-16 0
usemtl m_23a58c75-ac6e-660b-8865-8d471e5c5eca
f 89/89/23 90/90/23 92/91/23 91/92/23
f 93/93/24 94/94/24 96/95/24 95/96/24
f 97/97/25 98/98/25 100/99/25 99/100/25
f 101/101/26 102/102/26 104/103/26 103/104/26
f 105/105/27 106/106/27 108/107/27 107/108/27
f 109/109/28 110/110/28 112/111/28 111/112/28
f 113/113/29 114/114/29 116/115/29 115/116/29
f 117/117/30 118/118/30 120/119/30 119/120/30
f 121/121/31 122/122/31 124/123/31 123/124/31
f 125/125/32 126/126/32 128/127/32 127/128/32
o train_number_properting_in
v 1.0401420079260237 0.984488895807256 -13.757027921914242
v 1.0401420079260237 1.0130551632260758 -13.764682230199885
v 0.9052344782034346 0.984488895807256 -13.757027921914242
v 0.9052344782034346 1.0130551632260758 -13.764682230199885
vt 0.3734375 0
vt 0.3734375 0.09062499999999996
vt 0 0.09062499999999996
vt 0 0
vn 0 0.25881904510252074 0.9659258262890683
usemtl m_23a58c75-ac6e-660b-8865-8d471e5c5eca
f 129/129/33 130/130/33 132/131/33 131/132/33
o train_number_doors_in
v -1.2293456927723867 1.8825137225449733 0.8625000000000003
v -1.22552899637792 1.9699304419333856 0.8625
v -1.2293456927723867 1.8825137225449735 0.9500000000000004
v -1.22552899637792 1.969930441933386 0.95
v -1.2293456927723867 1.8825137225449753 -4.137499999999998
v -1.22552899637792 1.9699304419333852 -4.137500000000001
v -1.2293456927723867 1.8825137225449744 -4.049999999999998
v -1.22552899637792 1.9699304419333854 -4.05
v -1.2293456927723865 1.8825137225449775 -9.1375
v -1.2255289963779197 1.9699304419333887 -9.137500000000001
v -1.2293456927723865 1.8825137225449766 -9.05
v -1.2255289963779197 1.9699304419333878 -9.05
v -1.229345692772387 1.882513722544974 5.862500000000002
v -1.22552899637792 1.9699304419333856 5.862499999999997
v -1.229345692772387 1.8825137225449728 5.950000000000005
v -1.2255289963779201 1.9699304419333838 5.950000000000001
v -1.2293456927723865 1.8825137225449782 10.862500000000002
v -1.2255289963779197 1.9699304419333905 10.862499999999999
v -1.2293456927723867 1.8825137225449742 10.950000000000001
v -1.22552899637792 1.969930441933386 10.949999999999998
v 1.2293456927723865 1.882513722544973 -0.8625000000000003
v 1.2255289963779195 1.969930441933386 -0.8625
v 1.2293456927723865 1.8825137225449733 -0.9500000000000004
v 1.22552899637792 1.9699304419333863 -0.95
v 1.2293456927723865 1.882513722544975 4.137499999999998
v 1.2255289963779195 1.9699304419333854 4.137500000000001
v 1.2293456927723865 1.8825137225449742 4.049999999999998
v 1.2255289963779195 1.9699304419333856 4.05
v 1.229345692772386 1.8825137225449773 9.1375
v 1.2255289963779195 1.9699304419333892 9.137500000000001
v 1.2293456927723856 1.8825137225449764 9.05
v 1.225528996377919 1.969930441933388 9.05
v 1.2293456927723865 1.8825137225449737 -5.862500000000002
v 1.2255289963779195 1.9699304419333858 -5.862499999999997
v 1.2293456927723865 1.8825137225449726 -5.950000000000005
v 1.22552899637792 1.9699304419333838 -5.950000000000001
v 1.2293456927723865 1.8825137225449782 -10.862500000000002
v 1.2255289963779195 1.9699304419333905 -10.862499999999999
v 1.229345692772386 1.8825137225449742 -10.950000000000001
v 1.2255289963779195 1.9699304419333865 -10.949999999999998
vt 0.46875 0.24687499999999996
vt 0.46875 0.40312499999999996
vt 0.3125 0.40312499999999996
vt 0.3125 0.24687499999999996
vt 0.3125 0.24687499999999996
vt 0.3125 0.40312499999999996
vt 0.15625 0.40312499999999996
vt 0.15625 0.24687499999999996
vt 0.15625000000000006 0.24687499999999996
vt 0.15625000000000006 0.40312499999999996
vt 0 0.40312499999999996
vt 0 0.24687499999999996
vt 0.625 0.24687499999999996
vt 0.625 0.40312499999999996
vt 0.46875 0.40312499999999996
vt 0.46875 0.24687499999999996
vt 0.7812500000000001 0.24687499999999996
vt 0.7812500000000001 0.40312499999999996
vt 0.625 0.40312499999999996
vt 0.625 0.24687499999999996
vt 0.46875 0.09062499999999996
vt 0.46875 0.24687499999999996
vt 0.3125 0.24687499999999996
vt 0.3125 0.09062499999999996
vt 0.3125 0.09062499999999996
vt 0.3125 0.24687499999999996
vt 0.15625 0.24687499999999996
vt 0.15625 0.09062499999999996
vt 0.15625000000000006 0.09062499999999996
vt 0.15625000000000006 0.24687499999999996
vt 0 0.24687499999999996
vt 0 0.09062499999999996
vt 0.625 0.09062499999999996
vt 0.625 0.24687499999999996
vt 0.46875 0.24687499999999996
vt 0.46875 0.09062499999999996
vt 0.7812500000000001 0.09062499999999996
vt 0.7812500000000001 0.24687499999999996
vt 0.625 0.24687499999999996
vt 0.625 0.09062499999999996
vn 0.9990482215818578 -0.04361938736533588 -2.0151790017560922e-17
vn 0.9990482215818578 -0.04361938736533588 -2.0151790017560922e-17
vn 0.9990482215818578 -0.04361938736533588 -2.0151790017560922e-17
vn 0.9990482215818578 -0.04361938736533588 -2.0151790017560922e-17
vn 0.9990482215818578 -0.04361938736533588 -2.0151790017560922e-17
vn -0.9990482215818578 -0.0436193873653362 -2.1444679564861918e-16
vn -0.9990482215818577 -0.043619387365338845 -2.1444679564861963e-16
vn -0.999048221581858 -0.04361938736533225 1.1025269452970321e-15
vn -0.9990482215818575 -0.04361938736534215 -8.116289241322226e-15
vn -0.9990482215818578 -0.04361938736533663 4.203787690104622e-15
usemtl m_23a58c75-ac6e-660b-8865-8d471e5c5eca
f 133/133/34 134/134/34 136/135/34 135/136/34
f 137/137/35 138/138/35 140/139/35 139/140/35
f 141/141/36 142/142/36 144/143/36 143/144/36
f 145/145/37 146/146/37 148/147/37 147/148/37
f 149/149/38 150/150/38 152/151/38 151/152/38
f 153/153/39 154/154/39 156/155/39 155/156/39
f 157/157/40 158/158/40 160/159/40 159/160/40
f 161/161/41 162/162/41 164/163/41 163/164/41
f 165/165/42 166/166/42 168/167/42 167/168/42
f 169/169/43 170/170/43 172/171/43 171/172/43