# Made in Blockbench 5.1.4
mtllib trm01_lcd_screens.mtl

o lcd_screens
v 1.1110430775311977 2.256101249599929 10.55
v 1.111043077531198 2.256101249599929 9.44375
v 1.1188950406830114 2.0562554423517843 10.55
v 1.1188950406830116 2.0562554423517843 9.44375
v 1.1110430775311986 2.2561012495999293 5.550000000000001
v 1.1110430775311988 2.2561012495999293 4.44375
v 1.1188950406830125 2.056255442351785 4.44375
v 1.1188950406830125 2.056255442351785 5.550000000000001
v 1.1110430775311995 2.25610124959993 0.5500000000000007
v 1.1110430775311995 2.25610124959993 -0.5562500000000004
v 1.1188950406830134 2.0562554423517856 -0.5562500000000004
v 1.1188950406830132 2.0562554423517856 0.5500000000000007
v 1.1110430775312004 2.2561012495999306 -4.449999999999999
v 1.1110430775312004 2.2561012495999306 -5.55625
v 1.118895040683014 2.0562554423517865 -5.55625
v 1.118895040683014 2.0562554423517865 -4.449999999999999
v 1.1110430775312012 2.2561012495999315 -9.45
v 1.1110430775312015 2.2561012495999315 -10.556249999999999
v 1.1188950406830152 2.056255442351787 -10.556249999999999
v 1.118895040683015 2.056255442351787 -9.45
vt 1 1
vt 0 1
vt 0 0.8125
vt 1 0.8125
vt 1 1
vt 0 1
vt 0 0.8125
vt 1 0.8125
vt 1 1
vt 0 1
vt 0 0.8125
vt 1 0.8125
vt 1 1
vt 0 1
vt 0 0.8125
vt 1 0.8125
vt 1 1
vt 0 1
vt 0 0.8125
vt 1 0.8125
vn -0.9992290362407229 -0.03925981575906867 -1.0035914346894067e-16
vn -0.9992290362407229 -0.03925981575906867 -1.0035914346894058e-16
vn -0.9992290362407229 -0.03925981575906867 -1.0035914346894058e-16
vn -0.9992290362407229 -0.03925981575906867 -1.0035914346894058e-16
vn -0.9992290362407229 -0.03925981575906867 -1.0035914346894075e-16
usemtl m_d41d9105-bd41-b7f3-2281-023a78f0abe2
f 1/1/1 2/2/1 4/3/1 3/4/1
f 5/5/2 6/6/2 7/7/2 8/8/2
f 9/9/3 10/10/3 11/11/3 12/12/3
f 13/13/4 14/14/4 15/15/4 16/16/4
f 17/17/5 18/18/5 19/19/5 20/20/5