# Blender 4.3.2
# www.blender.org
mtllib trm01_doors.mtl
o door_left
v -1.401744 0.940091 0.875000
v -1.401744 0.940091 -0.000000
v -1.339244 0.940091 -0.000000
v -1.401744 0.690091 0.875000
v -1.401744 0.690091 -0.000000
v -1.339244 0.690091 -0.000000
v -1.401744 0.690091 0.875000
v -1.401744 0.690091 -0.000000
v -1.339482 0.695538 -0.000000
v -1.379955 0.441042 0.875000
v -1.379955 0.441042 -0.000000
v -1.317693 0.446489 -0.000000
v -1.379955 0.441042 0.875000
v -1.379955 0.441042 -0.000000
v -1.318502 0.452432 -0.000000
v -1.334396 0.195229 0.875000
v -1.334396 0.195229 -0.000000
v -1.272943 0.206618 -0.000000
v -1.334396 0.195229 0.875000
v -1.334396 0.195229 -0.000000
v -1.276865 0.219649 -0.000000
v -1.212293 -0.092429 0.875000
v -1.212293 -0.092429 0.000000
v -1.154761 -0.068009 0.000000
v -1.349946 2.126461 0.187500
v -1.349946 2.126461 -0.000000
v -1.287506 2.123735 0.187500
v -1.287506 2.123735 -0.000000
v -1.401744 0.940091 0.187500
v -1.401744 0.940091 -0.000000
v -1.339304 0.937365 0.187500
v -1.339304 0.937365 -0.000000
v -1.349946 2.126461 0.875000
v -1.349946 2.126461 0.687500
v -1.287506 2.123735 0.687500
v -1.401744 0.940091 0.875000
v -1.401744 0.940091 0.687500
v -1.339304 0.937365 0.687500
v -1.396292 1.064972 0.687500
v -1.396292 1.064972 0.125000
v -1.333851 1.062246 0.687500
v -1.333851 1.062246 0.125000
v -1.401744 0.940091 0.687500
v -1.401744 0.940091 0.125000
v -1.339304 0.937365 0.687500
v -1.339304 0.937365 0.125000
v -1.349816 2.127413 0.687500
v -1.349816 2.127413 0.125000
v -1.357994 1.940091 0.687500
v -1.357994 1.940091 0.125000
v -1.295554 1.937365 0.687500
v -1.295554 1.937365 0.125000
v -1.355336 2.001577 0.687500
v -1.355336 2.001577 0.187500
v -1.355336 2.001577 0.687500
v -1.355336 2.001577 0.187500
v -1.396229 1.064969 0.687500
v -1.396229 1.064969 0.187500
v -1.396229 1.064969 0.687500
v -1.396229 1.064969 0.187500
vn -1.0000 -0.0000 -0.0000
vn -0.0000 -0.0000 -1.0000
vn -0.9962 -0.0872 -0.0000
vn -0.9833 -0.1822 -0.0000
vn -0.9205 -0.3907 -0.0000
vn -0.0436 -0.9990 -0.0000
vn -0.9990 0.0436 -0.0000
vn -0.0000 -0.0000 1.0000
vn 0.0436 0.9990 -0.0000
vn 0.9990 -0.0436 -0.0000
vn -0.0000 -0.0000 -0.0000
vt 0.777778 0.993056
vt 0.777778 0.976852
vt 0.782407 0.976852
vt 0.782407 0.993056
vt 0.782407 0.975694
vt 0.777778 0.975694
vt 0.777778 0.959491
vt 0.782407 0.959491
vt 0.782407 0.958333
vt 0.777778 0.958333
vt 0.777778 0.942130
vt 0.782407 0.942130
vt 0.782407 0.940972
vt 0.777778 0.940972
vt 0.776620 0.940972
vt 0.776620 0.924769
vt 0.782407 0.924769
vt 0.782407 0.923611
vt 0.776620 0.923611
vt 0.968750 0.809028
vt 0.968750 0.810185
vt 0.965278 0.810185
vt 0.965278 0.809028
vt 0.943287 0.813657
vt 0.943287 0.810185
vt 0.965278 0.813657
vt 0.990741 0.809028
vt 0.990741 0.810185
vt 0.943287 0.809028
vt 0.942130 0.802083
vt 0.942130 0.798611
vt 0.964120 0.798611
vt 0.964120 0.802083
vt 0.964120 0.797454
vt 0.942130 0.797454
vt 0.934028 0.929398
vt 0.934028 0.930556
vt 0.923611 0.930556
vt 0.923611 0.929398
vt 0.946759 0.929398
vt 0.946759 0.930556
vt 0.936343 0.930556
vt 0.936343 0.929398
vt 0.934028 0.940972
vt 0.936343 0.940972
vt 0.938657 0.940972
vt 0.938657 0.930556
vt 0.932870 0.940972
vt 0.932870 0.930556
vt 0.938657 0.844907
vt 0.929398 0.844907
vt 0.965278 0.844907
vt 0.956019 0.844907
vt 0.938657 0.854167
vt 0.956019 0.854167
vt 0.973380 0.854167
vt 0.973380 0.844907
vt 0.982639 0.844907
s 1
usemtl m_d66f417c-c71e-1189-400f-200ebb740664
f 1/1/1 2/2/1 5/3/1 4/4/1
f 6/5/2 5/3/2 2/2/2 3/6/2
f 7/6/3 8/7/3 11/8/3 10/5/3
f 12/9/2 11/8/2 8/7/2 9/10/2
f 13/10/4 14/11/4 17/12/4 16/9/4
f 18/13/2 17/12/2 14/11/2 15/14/2
f 19/15/5 20/16/5 23/17/5 22/13/5
f 24/18/2 23/17/2 20/16/2 21/19/2
f 31/20/6 29/21/6 30/22/6 32/23/6
f 25/24/7 26/25/7 30/22/7 29/26/7
f 27/27/8 25/28/8 29/21/8 31/20/8
f 32/23/2 30/22/2 26/25/2 28/29/2
f 33/30/7 34/31/7 37/32/7 36/33/7
f 38/34/2 37/32/2 34/31/2 35/35/2
f 42/36/9 40/37/9 39/38/9 41/39/9
f 45/40/6 43/41/6 44/42/6 46/43/6
f 39/44/7 40/37/7 44/42/7 43/45/7
f 42/42/10 41/45/10 45/46/10 46/47/10
f 51/40/6 49/41/6 50/42/6 52/43/6
f 47/48/7 48/49/7 50/42/7 49/45/7
s 0
f 54/50/11 53/51/11 56/50/11 55/51/11
f 57/52/11 58/53/11 59/52/11 60/53/11
s 1
f 53/54/7 54/50/7 58/53/7 57/55/7
f 56/53/10 55/55/10 59/56/10 60/57/10
s 0
f 53/58/8 57/52/8 55/58/8 59/52/8
f 58/53/8 54/50/8 60/53/8 56/50/8
o door_right
v -1.401744 0.940091 -0.000000
v -1.401744 0.940091 -0.875000
v -1.339244 0.940091 -0.000000
v -1.401744 0.690091 -0.000000
v -1.401744 0.690091 -0.875000
v -1.339244 0.690091 -0.000000
v -1.401744 0.690091 -0.000000
v -1.401744 0.690091 -0.875000
v -1.339482 0.695538 -0.000000
v -1.379955 0.441042 -0.000000
v -1.379955 0.441042 -0.875000
v -1.317693 0.446489 -0.000000
v -1.379955 0.441042 -0.000000
v -1.379955 0.441042 -0.875000
v -1.318502 0.452432 -0.000000
v -1.334396 0.195229 -0.000000
v -1.334396 0.195229 -0.875000
v -1.272943 0.206618 -0.000000
v -1.334396 0.195229 -0.000000
v -1.334396 0.195228 -0.875000
v -1.276865 0.219649 -0.000000
v -1.212293 -0.092429 0.000000
v -1.212293 -0.092429 -0.875000
v -1.154761 -0.068009 0.000000
v -1.349946 2.126461 -0.687500
v -1.349946 2.126461 -0.875000
v -1.287506 2.123735 -0.687500
v -1.401744 0.940091 -0.687500
v -1.401744 0.940091 -0.875000
v -1.339304 0.937365 -0.687500
v -1.396292 1.064972 -0.125000
v -1.396292 1.064972 -0.687500
v -1.333851 1.062246 -0.125000
v -1.333851 1.062246 -0.687500
v -1.401744 0.940091 -0.125000
v -1.401744 0.940091 -0.687500
v -1.339304 0.937365 -0.125000
v -1.339304 0.937365 -0.687500
v -1.349946 2.126461 -0.000000
v -1.349946 2.126461 -0.187500
v -1.287506 2.123735 -0.000000
v -1.287506 2.123735 -0.187500
v -1.401744 0.940091 -0.000000
v -1.401744 0.940091 -0.187500
v -1.339304 0.937365 -0.000000
v -1.339304 0.937365 -0.187500
v -1.349816 2.127413 -0.125000
v -1.349816 2.127413 -0.687500
v -1.357994 1.940091 -0.125000
v -1.357994 1.940091 -0.687500
v -1.295554 1.937365 -0.125000
v -1.295554 1.937365 -0.687500
v -1.355336 2.001577 -0.187500
v -1.355336 2.001577 -0.687500
v -1.355336 2.001577 -0.187500
v -1.355336 2.001577 -0.687500
v -1.396229 1.064969 -0.187500
v -1.396229 1.064969 -0.687500
v -1.396229 1.064969 -0.187500
v -1.396229 1.064969 -0.687500
vn -1.0000 -0.0000 -0.0000
vn -0.0000 -0.0000 1.0000
vn -0.9962 -0.0872 -0.0000
vn -0.9833 -0.1822 -0.0000
vn -0.9205 -0.3907 -0.0000
vn -0.9990 0.0436 -0.0000
vn 0.0436 0.9990 -0.0000
vn -0.0436 -0.9990 -0.0000
vn -0.0000 -0.0000 -1.0000
vn -0.0000 -0.0000 -0.0000
vn 0.9990 -0.0436 -0.0000
vt 0.777778 0.993056
vt 0.777778 0.976852
vt 0.782407 0.976852
vt 0.782407 0.993056
vt 0.803241 0.975694
vt 0.803241 0.976852
vt 0.798611 0.976852
vt 0.798611 0.975694
vt 0.777778 0.975694
vt 0.777778 0.959491
vt 0.782407 0.959491
vt 0.782407 0.975694
vt 0.803241 0.958333
vt 0.803241 0.959491
vt 0.798611 0.959491
vt 0.798611 0.958333
vt 0.777778 0.958333
vt 0.777778 0.942130
vt 0.782407 0.942130
vt 0.782407 0.958333
vt 0.803241 0.940972
vt 0.803241 0.942130
vt 0.798611 0.942130
vt 0.798611 0.940972
vt 0.776620 0.940972
vt 0.776620 0.924769
vt 0.782407 0.924769
vt 0.782407 0.940972
vt 0.804398 0.923611
vt 0.804398 0.924769
vt 0.798611 0.924769
vt 0.798611 0.923611
vt 0.942130 0.758102
vt 0.942130 0.754630
vt 0.964120 0.754630
vt 0.964120 0.758102
vt 0.989583 0.753472
vt 0.989583 0.754630
vt 0.967593 0.754630
vt 0.967593 0.753472
vt 0.934028 0.952546
vt 0.934028 0.953704
vt 0.923611 0.953704
vt 0.923611 0.952546
vt 0.946759 0.952546
vt 0.946759 0.953704
vt 0.936343 0.953704
vt 0.936343 0.952546
vt 0.934028 0.964120
vt 0.936343 0.964120
vt 0.968750 0.765046
vt 0.968750 0.766204
vt 0.965278 0.766204
vt 0.965278 0.765046
vt 0.943287 0.769676
vt 0.943287 0.766204
vt 0.965278 0.769676
vt 0.990741 0.765046
vt 0.990741 0.766204
vt 0.943287 0.765046
vt 0.932870 0.964120
vt 0.932870 0.953704
vt 0.938657 0.844907
vt 0.929398 0.844907
vt 0.965278 0.844907
vt 0.956019 0.844907
vt 0.938657 0.854167
vt 0.956019 0.854167
vt 0.973380 0.854167
vt 0.973380 0.844907
vt 0.982639 0.844907
s 1
usemtl m_d66f417c-c71e-1189-400f-200ebb740664
f 61/59/12 62/60/12 65/61/12 64/62/12
f 63/63/13 61/64/13 64/65/13 66/66/13
f 67/67/14 68/68/14 71/69/14 70/70/14
f 69/71/13 67/72/13 70/73/13 72/74/13
f 73/75/15 74/76/15 77/77/15 76/78/15
f 75/79/13 73/80/13 76/81/13 78/82/13
f 79/83/16 80/84/16 83/85/16 82/86/16
f 81/87/13 79/88/13 82/89/13 84/90/13
f 85/91/17 86/92/17 89/93/17 88/94/17
f 87/95/13 85/96/13 88/97/13 90/98/13
f 94/99/18 92/100/18 91/101/18 93/102/18
f 97/103/19 95/104/19 96/105/19 98/106/19
f 91/107/17 92/100/17 96/105/17 95/108/17
f 105/109/19 103/110/19 104/111/19 106/112/19
f 99/113/17 100/114/17 104/111/17 103/115/17
f 101/116/13 99/117/13 103/110/13 105/109/13
f 106/112/20 104/111/20 100/114/20 102/118/20
f 111/103/19 109/104/19 110/105/19 112/106/19
f 107/119/17 108/120/17 110/105/17 109/108/17
s 0
f 114/121/21 113/122/21 116/121/21 115/122/21
f 117/123/21 118/124/21 119/123/21 120/124/21
s 1
f 113/125/17 114/121/17 118/124/17 117/126/17
f 116/124/22 115/126/22 119/127/22 120/128/22
s 0
f 113/129/13 117/123/13 115/129/13 119/123/13
f 118/124/13 114/121/13 120/124/13 116/121/13
o door_left_in
v -1.332289 1.062246 0.125000
v -1.332289 1.062246 0.687500
v -1.332289 1.062246 0.125000
v -1.332289 1.062246 0.687500
v -1.337741 0.937365 0.125000
v -1.337741 0.937365 0.687500
v -1.337741 0.937365 0.125000
v -1.337741 0.937365 0.687500
v -1.337682 0.940091 -0.000000
v -1.337682 0.940091 0.875000
v -1.337682 0.940091 -0.000000
v -1.337682 0.940091 0.875000
v -1.337682 0.690091 -0.000000
v -1.337682 0.690091 0.875000
v -1.337682 0.690091 -0.000000
v -1.337682 0.690091 0.875000
v -1.337920 0.695538 -0.000000
v -1.337920 0.695538 0.875000
v -1.337920 0.695538 -0.000000
v -1.337920 0.695538 0.875000
v -1.316131 0.446489 -0.000000
v -1.316131 0.446490 0.875000
v -1.316131 0.446489 -0.000000
v -1.316131 0.446490 0.875000
v -1.316940 0.452432 -0.000000
v -1.316940 0.452432 0.875000
v -1.316940 0.452432 -0.000000
v -1.316940 0.452432 0.875000
v -1.271380 0.206619 -0.000000
v -1.271380 0.206619 0.875000
v -1.271380 0.206619 -0.000000
v -1.271380 0.206619 0.875000
v -1.275303 0.219649 -0.000000
v -1.275303 0.219649 0.875000
v -1.275303 0.219649 -0.000000
v -1.275303 0.219649 0.875000
v -1.153199 -0.068008 0.000000
v -1.153199 -0.068008 0.875000
v -1.153199 -0.068008 0.000000
v -1.153199 -0.068008 0.875000
v -1.285943 2.123735 0.687500
v -1.285943 2.123735 0.875000
v -1.285943 2.123735 0.687500
v -1.285943 2.123735 0.875000
v -1.337741 0.937365 0.687500
v -1.337741 0.937365 0.875000
v -1.337741 0.937365 0.687500
v -1.337741 0.937365 0.875000
v -1.285943 2.123735 -0.000000
v -1.285943 2.123735 0.187500
v -1.285943 2.123735 -0.000000
v -1.285943 2.123735 0.187500
v -1.337741 0.937365 -0.000000
v -1.337741 0.937365 0.187500
v -1.337741 0.937365 -0.000000
v -1.337741 0.937365 0.187500
v -1.285813 2.124687 0.125000
v -1.285813 2.124687 0.687500
v -1.285813 2.124687 0.125000
v -1.285813 2.124687 0.687500
v -1.293992 1.937365 0.125000
v -1.293992 1.937365 0.687500
v -1.293992 1.937365 0.125000
v -1.293992 1.937365 0.687500
v -1.294488 1.936592 0.187500
v -1.294488 1.936592 0.687500
v -1.294488 1.936592 0.187500
v -1.294488 1.936592 0.687500
v -1.332655 1.062425 0.187500
v -1.332655 1.062425 0.687500
v -1.332655 1.062425 0.187500
v -1.332655 1.062425 0.687500
vn -0.0000 -0.0000 -0.0000
vn -0.9990 0.0436 -0.0000
vn 0.9990 -0.0436 -0.0000
vn -0.0000 -0.0000 1.0000
vn -1.0000 -0.0000 -0.0000
vn 1.0000 -0.0000 -0.0000
vn -0.9962 -0.0872 -0.0000
vn 0.9962 0.0872 -0.0000
vn -0.9833 -0.1822 -0.0000
vn 0.9833 0.1822 -0.0000
vn -0.9205 -0.3907 -0.0000
vn 0.9205 0.3907 -0.0000
vt 0.951389 0.980324
vt 0.961806 0.980324
vt 0.964120 0.980324
vt 0.974537 0.980324
vt 0.961806 0.990741
vt 0.964120 0.990741
vt 0.966435 0.990741
vt 0.966435 0.980324
vt 0.976852 0.980324
vt 0.883102 0.900463
vt 0.899306 0.900463
vt 0.903935 0.900463
vt 0.920139 0.900463
vt 0.899306 0.916667
vt 0.903935 0.916667
vt 0.908565 0.916667
vt 0.908565 0.900463
vt 0.924769 0.900463
vt 0.883102 0.875000
vt 0.899306 0.875000
vt 0.903935 0.875000
vt 0.920139 0.875000
vt 0.899306 0.891204
vt 0.903935 0.891204
vt 0.908565 0.891204
vt 0.908565 0.875000
vt 0.924769 0.875000
vt 0.883102 0.850694
vt 0.899306 0.850694
vt 0.903935 0.850694
vt 0.920139 0.850694
vt 0.899306 0.866898
vt 0.903935 0.866898
vt 0.908565 0.866898
vt 0.908565 0.850694
vt 0.924769 0.850694
vt 0.891204 0.826389
vt 0.907407 0.826389
vt 0.913194 0.826389
vt 0.929398 0.826389
vt 0.907407 0.842593
vt 0.913194 0.842593
vt 0.918981 0.842593
vt 0.918981 0.826389
vt 0.935185 0.826389
vt 0.932870 0.903935
vt 0.936343 0.903935
vt 0.958333 0.903935
vt 0.961806 0.903935
vt 0.936343 0.907407
vt 0.958333 0.907407
vt 0.980324 0.907407
vt 0.980324 0.903935
vt 0.983796 0.903935
vt 0.932870 0.916667
vt 0.936343 0.916667
vt 0.958333 0.916667
vt 0.961806 0.916667
vt 0.936343 0.920139
vt 0.958333 0.920139
vt 0.980324 0.920139
vt 0.980324 0.916667
vt 0.983796 0.916667
vt 0.966435 0.978009
vt 0.976852 0.978009
vt 0.980324 0.978009
vt 0.990741 0.978009
vt 0.976852 0.988426
vt 0.980324 0.988426
vt 0.983796 0.988426
vt 0.983796 0.978009
vt 0.994213 0.978009
vt 0.975694 0.930556
vt 0.966435 0.930556
vt 0.950231 0.930556
vt 0.940972 0.930556
vt 0.966435 0.939815
vt 0.950231 0.939815
vt 0.982639 0.939815
vt 0.982639 0.930556
vt 0.991898 0.930556
s 0
usemtl m_d66f417c-c71e-1189-400f-200ebb740664.001
f 121/130/23 122/131/23 124/131/23 123/130/23
f 126/132/23 125/133/23 127/133/23 128/132/23
s 1
f 126/132/24 122/131/24 121/134/24 125/135/24
f 127/136/25 123/135/25 124/132/25 128/137/25
s 0
f 125/133/26 121/138/26 123/138/26 127/133/26
f 122/131/26 126/132/26 128/132/26 124/131/26
f 129/139/23 130/140/23 132/140/23 131/139/23
f 134/141/23 133/142/23 135/142/23 136/141/23
s 1
f 134/141/27 130/140/27 129/143/27 133/144/27
f 135/145/28 131/144/28 132/141/28 136/146/28
s 0
f 133/142/26 129/147/26 131/147/26 135/142/26
f 130/140/26 134/141/26 136/141/26 132/140/26
f 137/148/23 138/149/23 140/149/23 139/148/23
f 142/150/23 141/151/23 143/151/23 144/150/23
s 1
f 142/150/29 138/149/29 137/152/29 141/153/29
f 143/154/30 139/153/30 140/150/30 144/155/30
s 0
f 141/151/26 137/156/26 139/156/26 143/151/26
f 138/149/26 142/150/26 144/150/26 140/149/26
f 145/157/23 146/158/23 148/158/23 147/157/23
f 150/159/23 149/160/23 151/160/23 152/159/23
s 1
f 150/159/31 146/158/31 145/161/31 149/162/31
f 151/163/32 147/162/32 148/159/32 152/164/32
s 0
f 149/160/26 147/165/26 145/165/26 151/160/26
f 146/158/26 152/159/26 150/159/26 148/158/26
f 153/166/23 154/167/23 156/167/23 155/166/23
f 158/168/23 157/169/23 159/169/23 160/168/23
s 1
f 158/168/33 154/167/33 153/170/33 157/171/33
f 159/172/34 155/171/34 156/168/34 160/173/34
s 0
f 157/169/26 153/174/26 155/174/26 159/169/26
f 154/167/26 158/168/26 160/168/26 156/167/26
f 161/175/23 162/176/23 164/176/23 163/175/23
f 166/177/23 165/178/23 167/178/23 168/177/23
s 1
f 166/177/24 162/176/24 161/179/24 165/180/24
f 167/181/25 163/180/25 164/177/25 168/182/25
s 0
f 165/178/26 161/183/26 163/183/26 167/178/26
f 162/176/26 166/177/26 168/177/26 164/176/26
f 169/184/23 170/185/23 172/185/23 171/184/23
f 174/186/23 173/187/23 175/187/23 176/186/23
s 1
f 174/186/24 170/185/24 169/188/24 173/189/24
f 175/190/25 171/189/25 172/186/25 176/191/25
s 0
f 173/187/26 169/192/26 171/192/26 175/187/26
f 170/185/26 174/186/26 176/186/26 172/185/26
f 177/193/23 178/194/23 180/194/23 179/193/23
f 182/195/23 181/196/23 183/196/23 184/195/23
s 1
f 182/195/24 178/194/24 177/197/24 181/198/24
f 183/199/25 179/198/25 180/195/25 184/200/25
s 0
f 181/196/26 177/201/26 179/201/26 183/196/26
f 178/194/26 182/195/26 184/195/26 180/194/26
f 185/202/23 186/203/23 188/203/23 187/202/23
f 190/204/23 189/205/23 191/205/23 192/204/23
s 1
f 190/204/24 186/203/24 185/206/24 189/207/24
f 191/206/25 187/208/25 188/209/25 192/203/25
s 0
f 189/210/26 187/202/26 185/202/26 191/210/26
f 186/203/26 192/204/26 190/204/26 188/203/26
o door_right_in
v -1.332289 1.062246 -0.125000
v -1.332289 1.062246 -0.687500
v -1.332289 1.062246 -0.125000
v -1.332289 1.062246 -0.687500
v -1.337741 0.937365 -0.125000
v -1.337741 0.937365 -0.687500
v -1.337741 0.937365 -0.125000
v -1.337741 0.937365 -0.687500
v -1.337682 0.940091 -0.000000
v -1.337682 0.940091 -0.875000
v -1.337682 0.940091 -0.000000
v -1.337682 0.940091 -0.875000
v -1.337682 0.690091 -0.000000
v -1.337682 0.690091 -0.875000
v -1.337682 0.690091 -0.000000
v -1.337682 0.690091 -0.875000
v -1.337920 0.695538 -0.000000
v -1.337920 0.695538 -0.875000
v -1.337920 0.695538 -0.000000
v -1.337920 0.695538 -0.875000
v -1.316131 0.446489 -0.000000
v -1.316131 0.446489 -0.875000
v -1.316131 0.446489 -0.000000
v -1.316131 0.446489 -0.875000
v -1.316940 0.452432 -0.000000
v -1.316940 0.452432 -0.875000
v -1.316940 0.452432 -0.000000
v -1.316940 0.452432 -0.875000
v -1.271380 0.206619 -0.000000
v -1.271380 0.206618 -0.875000
v -1.271380 0.206619 -0.000000
v -1.271380 0.206618 -0.875000
v -1.275303 0.219649 -0.000000
v -1.275303 0.219649 -0.875000
v -1.275303 0.219649 -0.000000
v -1.275303 0.219649 -0.875000
v -1.153199 -0.068008 0.000000
v -1.153199 -0.068009 -0.875000
v -1.153199 -0.068008 0.000000
v -1.153199 -0.068009 -0.875000
v -1.285943 2.123735 -0.687500
v -1.285943 2.123735 -0.875000
v -1.285943 2.123735 -0.687500
v -1.285943 2.123735 -0.875000
v -1.337741 0.937365 -0.687500
v -1.337741 0.937365 -0.875000
v -1.337741 0.937365 -0.687500
v -1.337741 0.937365 -0.875000
v -1.285943 2.123735 -0.000000
v -1.285943 2.123735 -0.187500
v -1.285943 2.123735 -0.000000
v -1.285943 2.123735 -0.187500
v -1.337741 0.937365 -0.000000
v -1.337741 0.937365 -0.187500
v -1.337741 0.937365 -0.000000
v -1.337741 0.937365 -0.187500
v -1.285813 2.124687 -0.125000
v -1.285813 2.124687 -0.687500
v -1.285813 2.124687 -0.125000
v -1.285813 2.124687 -0.687500
v -1.293992 1.937365 -0.125000
v -1.293992 1.937365 -0.687500
v -1.293992 1.937365 -0.125000
v -1.293992 1.937365 -0.687500
v -1.294488 1.936592 -0.187500
v -1.294488 1.936592 -0.687500
v -1.294488 1.936592 -0.187500
v -1.294488 1.936592 -0.687500
v -1.332655 1.062425 -0.187500
v -1.332655 1.062425 -0.687500
v -1.332655 1.062425 -0.187500
v -1.332655 1.062425 -0.687500
vn -0.0000 -0.0000 -0.0000
vn -0.9990 0.0436 -0.0000
vn 0.9990 -0.0436 -0.0000
vn -0.0000 -0.0000 1.0000
vn -1.0000 -0.0000 -0.0000
vn 1.0000 -0.0000 -0.0000
vn -0.9962 -0.0872 -0.0000
vn 0.9962 0.0872 -0.0000
vn -0.9833 -0.1822 -0.0000
vn 0.9833 0.1822 -0.0000
vn -0.9205 -0.3907 -0.0000
vn 0.9205 0.3907 -0.0000
vt 0.961806 0.980324
vt 0.951389 0.980324
vt 0.974537 0.980324
vt 0.964120 0.980324
vt 0.961806 0.990741
vt 0.964120 0.990741
vt 0.966435 0.990741
vt 0.966435 0.980324
vt 0.976852 0.980324
vt 0.899306 0.900463
vt 0.883102 0.900463
vt 0.920139 0.900463
vt 0.903935 0.900463
vt 0.899306 0.916667
vt 0.903935 0.916667
vt 0.908565 0.916667
vt 0.908565 0.900463
vt 0.924769 0.900463
vt 0.899306 0.875000
vt 0.883102 0.875000
vt 0.920139 0.875000
vt 0.903935 0.875000
vt 0.899306 0.891204
vt 0.903935 0.891204
vt 0.908565 0.891204
vt 0.908565 0.875000
vt 0.924769 0.875000
vt 0.899306 0.850694
vt 0.883102 0.850694
vt 0.920139 0.850694
vt 0.903935 0.850694
vt 0.899306 0.866898
vt 0.903935 0.866898
vt 0.908565 0.866898
vt 0.908565 0.850694
vt 0.924769 0.850694
vt 0.907407 0.826389
vt 0.891204 0.826389
vt 0.929398 0.826389
vt 0.913194 0.826389
vt 0.907407 0.842593
vt 0.913194 0.842593
vt 0.918981 0.842593
vt 0.918981 0.826389
vt 0.935185 0.826389
vt 0.936343 0.903935
vt 0.932870 0.903935
vt 0.961806 0.903935
vt 0.958333 0.903935
vt 0.936343 0.907407
vt 0.958333 0.907407
vt 0.980324 0.907407
vt 0.980324 0.903935
vt 0.983796 0.903935
vt 0.936343 0.916667
vt 0.932870 0.916667
vt 0.961806 0.916667
vt 0.958333 0.916667
vt 0.936343 0.920139
vt 0.958333 0.920139
vt 0.980324 0.920139
vt 0.980324 0.916667
vt 0.983796 0.916667
vt 0.976852 0.978009
vt 0.966435 0.978009
vt 0.990741 0.978009
vt 0.980324 0.978009
vt 0.976852 0.988426
vt 0.980324 0.988426
vt 0.983796 0.988426
vt 0.983796 0.978009
vt 0.994213 0.978009
vt 0.966435 0.930556
vt 0.975694 0.930556
vt 0.940972 0.930556
vt 0.950231 0.930556
vt 0.966435 0.939815
vt 0.950231 0.939815
vt 0.982639 0.930556
vt 0.982639 0.939815
vt 0.991898 0.930556
s 0
usemtl m_d66f417c-c71e-1189-400f-200ebb740664.001
f 194/211/35 193/212/35 196/211/35 195/212/35
f 197/213/35 198/214/35 199/213/35 200/214/35
s 1
f 193/215/36 194/211/36 198/214/36 197/216/36
f 196/214/37 195/216/37 199/217/37 200/218/37
s 0
f 193/219/38 197/213/38 195/219/38 199/213/38
f 198/214/38 194/211/38 200/214/38 196/211/38
f 202/220/35 201/221/35 204/220/35 203/221/35
f 205/222/35 206/223/35 207/222/35 208/223/35
s 1
f 201/224/39 202/220/39 206/223/39 205/225/39
f 204/223/40 203/225/40 207/226/40 208/227/40
s 0
f 201/228/38 205/222/38 203/228/38 207/222/38
f 206/223/38 202/220/38 208/223/38 204/220/38
f 210/229/35 209/230/35 212/229/35 211/230/35
f 213/231/35 214/232/35 215/231/35 216/232/35
s 1
f 209/233/41 210/229/41 214/232/41 213/234/41
f 212/232/42 211/234/42 215/235/42 216/236/42
s 0
f 209/237/38 213/231/38 211/237/38 215/231/38
f 214/232/38 210/229/38 216/232/38 212/229/38
f 218/238/35 217/239/35 220/238/35 219/239/35
f 221/240/35 222/241/35 223/240/35 224/241/35
s 1
f 217/242/43 218/238/43 222/241/43 221/243/43
f 220/241/44 219/243/44 223/244/44 224/245/44
s 0
f 219/246/38 217/246/38 221/240/38 223/240/38
f 224/241/38 222/241/38 218/238/38 220/238/38
f 226/247/35 225/248/35 228/247/35 227/248/35
f 229/249/35 230/250/35 231/249/35 232/250/35
s 1
f 225/251/45 226/247/45 230/250/45 229/252/45
f 228/250/46 227/252/46 231/253/46 232/254/46
s 0
f 225/255/38 229/249/38 227/255/38 231/249/38
f 230/250/38 226/247/38 232/250/38 228/247/38
f 234/256/35 233/257/35 236/256/35 235/257/35
f 237/258/35 238/259/35 239/258/35 240/259/35
s 1
f 233/260/36 234/256/36 238/259/36 237/261/36
f 236/259/37 235/261/37 239/262/37 240/263/37
s 0
f 233/264/38 237/258/38 235/264/38 239/258/38
f 238/259/38 234/256/38 240/259/38 236/256/38
f 242/265/35 241/266/35 244/265/35 243/266/35
f 245/267/35 246/268/35 247/267/35 248/268/35
s 1
f 241/269/36 242/265/36 246/268/36 245/270/36
f 244/268/37 243/270/37 247/271/37 248/272/37
s 0
f 241/273/38 245/267/38 243/273/38 247/267/38
f 246/268/38 242/265/38 248/268/38 244/265/38
f 250/274/35 249/275/35 252/274/35 251/275/35
f 253/276/35 254/277/35 255/276/35 256/277/35
s 1
f 249/278/36 250/274/36 254/277/36 253/279/36
f 252/277/37 251/279/37 255/280/37 256/281/37
s 0
f 249/282/38 253/276/38 251/282/38 255/276/38
f 254/277/38 250/274/38 256/277/38 252/274/38
f 258/283/35 257/284/35 260/283/35 259/284/35
f 261/285/35 262/286/35 263/285/35 264/286/35
s 1
f 257/287/36 258/283/36 262/286/36 261/288/36
f 260/289/37 259/290/37 263/287/37 264/283/37
s 0
f 259/284/38 257/284/38 261/291/38 263/291/38
f 264/286/38 262/286/38 258/283/38 260/283/38
