# Made in Blockbench 5.1.4
mtllib trm01_led_screens.mtl

o sideled_type_1
v -1.4139906324628342 1.869128664240639 -1.1391506249999999
v -1.4235474994795392 1.6347799809059216 -1.1391506249999999
v -1.4139906324628342 1.869128664240639 -1.4355425
v -1.4235474994795392 1.6347799809059216 -1.4355425
vt 0.1265625 0.8128124999999999
vt 0.1265625 0.9140625
vt 0 0.9140625
vt 0 0.8128124999999999
vn -0.999169509295452 0.04074667709502119 3.2514739969398656e-18
usemtl m_bee80b08-e924-9532-1fea-e750bbf7ac27
f 2/1/1 1/2/1 3/3/1 4/4/1
o sideled_type_2
v -1.4075476619321192 2.0151527791921007 -2.765141875
v -1.4075476619321192 2.0151527791921007 -2.2341975
v -1.407220024979461 2.1006709645075774 -2.2341975
v -1.407220024979461 2.1006709645075774 -2.765141875
vt 0.15625 0.9143359375
vt 0.15625 0.9421875
vt 0 0.9421875
vt 0 0.9143359375
vn -0.9999926610483588 0.003831168153738843 0
usemtl m_bee80b08-e924-9532-1fea-e750bbf7ac27
f 6/5/2 7/6/2 8/7/2 5/8/2
o sideled_type_1_base
v -1.4124138265793331 1.8766991526977321 -1.44375
v -1.4124138265793331 1.8766991526977321 -1.13125
v -1.423318673420667 1.6269370973022679 -1.44375
v -1.423318673420667 1.6269370973022679 -1.13125
vt 0.013888888888888888 0.9409722222222222
vt 0.013888888888888888 0.9456018518518519
vt 0.008101851851851851 0.9456018518518519
vt 0.008101851851851851 0.9409722222222222
vn -0.9990482215818578 0.043619387365336076 -5.3418343117727325e-18
usemtl m_d66f417c-c71e-1189-400f-200ebb740664
f 12/9/3 10/10/3 9/11/3 11/12/3
o sideled_type_2_base
v -1.3994079105755903 2.116550660203073 -2.21875
v -1.3994079105755903 2.116550660203073 -2.78125
v -1.3997351594365175 1.9915510885710745 -2.21875
v -1.3997351594365175 1.9915510885710745 -2.78125
v -1.405657503003534 2.116714522140645 -2.21875
v -1.405657503003534 2.116714522140645 -2.78125
v -1.4059847518644615 1.9917149505086467 -2.21875
v -1.4059847518644615 1.9917149505086467 -2.78125
vt 0.024305555555555556 0.9224537037037037
vt 0.024305555555555556 0.9247685185185185
vt 0.013888888888888888 0.9247685185185185
vt 0.013888888888888888 0.9224537037037037
vt 0.01273148148148148 0.9351851851851852
vt 0.01273148148148148 0.9247685185185185
vt 0.013888888888888888 0.9247685185185185
vt 0.013888888888888888 0.9351851851851852
vt 0.013888888888888888 0.9247685185185185
vt 0.013888888888888888 0.9351851851851852
vt 0.015046296296296295 0.9351851851851852
vt 0.015046296296296295 0.9247685185185185
vt 0.02546296296296296 0.9224537037037037
vt 0.02546296296296296 0.9247685185185185
vt 0.024305555555555556 0.9247685185185185
vt 0.024305555555555556 0.9224537037037037
vt 0.013888888888888888 0.9224537037037037
vt 0.013888888888888888 0.9247685185185185
vt 0.01273148148148148 0.9247685185185185
vt 0.01273148148148148 0.9224537037037037
vn -0.9999965730559848 0.0026179908874179934 0
vn 0.026210611896385683 0.9996564428962668 0
vn -0.02621061189638125 -0.999656442896267 0
vn 0 0 1
vn 0 0 -1
usemtl m_d66f417c-c71e-1189-400f-200ebb740664
f 19/13/4 17/14/4 18/15/4 20/16/4
f 13/17/5 14/18/5 18/19/5 17/20/5
f 16/21/6 15/22/6 19/23/6 20/24/6
f 15/25/7 13/26/7 17/27/7 19/28/7
f 20/29/8 18/30/8 14/31/8 16/32/8
o innled
v -0.5625 2.319140625 -11.311523125
v -0.5625 2.194140625 -11.311523125
v 0.5625 2.319140625 -11.311523125
v 0.5625 2.194140625 -11.311523125
vt 0.24609375 0.94296875
vt 0.24609375 0.9703125
vt 0 0.9703125
vt 0 0.94296875
vn 0 1.2246467991473532e-16 1
usemtl m_bee80b08-e924-9532-1fea-e750bbf7ac27
f 24/33/9 23/34/9 21/35/9 22/36/9
o outled
v 0.7440638658786107 2.1153298560534233 -13.328086798250508
v 0.7427613743431436 1.9653356223848755 -13.328269505626224
v 0.07073347290317966 2.121234140378701 -13.375164620228142
v 0.06943098136771247 1.9712399067101534 -13.375347327603858
vt 0.13671875 0.971875
vt 0.13671875 1
vt 0.0015625 1
vt 0.0015625 0.971875
vn 0.06975289468260844 0.0006094218711736811 -0.9975641143748004
usemtl m_bee80b08-e924-9532-1fea-e750bbf7ac27
f 28/37/10 27/38/10 25/39/10 26/40/10
o speedscreen
v 0.11171874999999998 1.0064058423085058 -13.762337092968592
v 0.11171874999999998 0.8856651140223724 -13.729984712330776
v 0.29921875 1.0064058423085058 -13.762337092968592
v 0.29921875 0.8856651140223724 -13.729984712330776
vt 1 0.14531249999999996
vt 1 0.8125
vt 0 0.8125
vt 0 0.14531249999999996
vn 0 0.25881904510252074 0.9659258262890683
usemtl m_bee80b08-e924-9532-1fea-e750bbf7ac27
f 32/41/11 31/42/11 29/43/11 30/44/11